<?xml version="1.0" encoding="utf-8"?>
<!-- Generator: Adobe Illustrator 22.1.0, SVG Export Plug-In . SVG Version: 6.00 Build 0)  -->
<svg version="1.1" id="Layer_1" xmlns="http://www.w3.org/2000/svg" xmlns:xlink="http://www.w3.org/1999/xlink" x="0px" y="0px"
	 viewBox="0 0 121.7 23.6" style="enable-background:new 0 0 121.7 23.6;" xml:space="preserve">
<style type="text/css">
	.st0{fill:#E0362C;}
	.st1{fill:#56626C;}
</style>
<g>
	<polygon class="st0" points="17.8,17.9 17.8,17.9 17.8,17.9 	"/>
	<path class="st0" d="M5.3,5.7C5.3,5.7,5.3,5.8,5.3,5.7C5.3,5.8,5.3,5.8,5.3,5.7C5.3,5.8,5.3,5.8,5.3,5.7C5.3,5.7,5.3,5.7,5.3,5.7z"
		/>
	<path class="st0" d="M17.8,17.9C17.8,17.9,17.8,17.9,17.8,17.9C17.8,17.9,17.8,17.9,17.8,17.9C17.8,17.9,17.8,17.9,17.8,17.9
		C17.8,17.9,17.8,17.9,17.8,17.9z"/>
	<path class="st0" d="M4.6,19.2C4.6,19.3,4.6,19.3,4.6,19.2C4.6,19.3,4.6,19.3,4.6,19.2C4.6,19.2,4.6,19.2,4.6,19.2z"/>
	<polygon class="st0" points="15.6,19.8 15.6,19.8 15.6,19.8 	"/>
	<path class="st1" d="M121.3,6.6c-1,0-2,0-3.1,0c-0.4,0-0.4,0-0.4,0.4c0,2.1,0,4.3,0,6.4c0,0.4,0,0.4,0.4,0.4c1,0,2,0,3,0
		c0.1,0,0.3,0,0.4,0.1c0-0.4,0-0.9,0-1.3c-0.8,0-1.6,0-2.4,0c-0.2,0-0.2,0-0.2-0.2c0-0.5,0-0.9,0-1.4c0-0.1,0-0.2,0.2-0.2
		c0.7,0,1.4,0,2.1,0c0.2,0,0.2,0,0.2-0.2c0-0.3,0-0.6,0-0.8c0-0.2,0-0.2-0.2-0.2c-0.6,0-1.3,0-1.9,0c-0.1,0-0.1,0-0.2,0
		c-0.1,0-0.1,0-0.1-0.2c0-0.2,0-0.4,0-0.6c0-0.3,0-0.6,0-0.9c0-0.2,0-0.2,0.2-0.2c0.7,0,1.5,0,2.2,0c0.1,0,0.1,0,0.2,0
		c0-0.4,0-0.8,0-1.2C121.6,6.6,121.4,6.6,121.3,6.6z"/>
	<path class="st1" d="M118.3,13.8c-0.4,0-0.4,0-0.4-0.4c0-2.1,0-4.3,0-6.4c0-0.4,0-0.4,0.4-0.4c1,0,2,0,3.1,0c0.1,0,0.3,0,0.4-0.1
		c-1.3,0-2.5,0-3.8,0c-0.2,0-0.2,0-0.2,0.2c0,2.3,0,4.6,0,6.9c0,0.2,0,0.2,0.2,0.2c1,0,2,0,3,0c0.2,0,0.5,0,0.7,0
		c-0.1-0.1-0.3-0.1-0.4-0.1C120.3,13.8,119.3,13.8,118.3,13.8z"/>
	<path class="st0" d="M10.3,17.6c0.1,0,0.1,0,0.2-0.1C10.4,17.5,10.4,17.5,10.3,17.6C7.5,16.8,5.6,14,6,11.1c0.3-2.4,1.7-4,4-4.9
		c0.3-0.1,0.5-0.2,0.8-0.2c0,0,0,0,0,0c-0.5,0-1,0-1.5-0.1c-0.9,0-1.8-0.1-2.8-0.1c-0.1,0-0.2,0-0.3,0c-0.1,0-0.2,0-0.3,0l0,0
		c-0.1,0-0.2,0-0.3,0l0,0c0,0,0,0,0,0c-0.1,0-0.2,0-0.3-0.1c0,0,0,0-0.1,0c0,0,0,0,0,0c0,0,0,0,0,0c0,0-0.1,0-0.1,0
		c0.1,0,0.2,0,0.4,0c0.7,0,1.3,0,2,0c0.1,0,0.1,0,0.2,0c0.1,0,0.1,0,0.2,0c2.9,0,5.7,0,8.6-0.1c1.2,0,2.4,0,3.7,0c0,0,0,0,0,0
		c-0.8-0.1-1.6-0.1-2.4-0.2c-1-0.1-1.9-0.1-2.9-0.2C13.4,5.1,12,5,10.5,5C9.3,4.9,8.1,4.8,6.9,4.7c-0.1,0-0.2,0-0.2,0
		c-0.2,0-0.3,0-0.5,0c0,0-0.1,0-0.1,0c0,0,0.1,0,0.1,0c0.4,0,0.9,0,1.3,0c0.1,0,0.2,0,0.3,0c2.5,0,5-0.1,7.6-0.1
		c1.1,0,2.2,0,3.4-0.1c0.3-0.1,0.5,0,0.8,0c0,0,0,0,0,0c-1.5-0.1-3-0.1-4.5-0.2C13.3,4.1,11.6,4,9.9,4c-0.2,0-0.5,0-0.7,0
		c-0.1,0-0.2,0-0.3,0c-0.1,0-0.2,0-0.3,0c0.1,0,0.2,0,0.3,0v0c0.1,0,0.2,0,0.3,0c0.2,0,0.5,0,0.7,0c3.5-0.1,7-0.1,10.5-0.2
		c0-0.1-0.1-0.1-0.1-0.2c-1.9-1.9-4.1-3-6.8-3.4C11.9-0.1,10.4,0,8.9,0.4C7.1,0.8,5.4,1.7,4,2.9c-2.5,2.2-3.8,4.9-4,8.2
		c-0.1,2.1,0.3,4,1.2,5.9c0.1,0.1,0.1,0.2,0.3,0.2c1,0,2.1,0.1,3.1,0.1C6.5,17.4,8.4,17.5,10.3,17.6z"/>
	<path class="st0" d="M17.8,17.9C17.8,17.9,17.8,17.9,17.8,17.9C17.8,17.9,17.8,17.9,17.8,17.9C17.8,17.9,17.8,17.9,17.8,17.9z"/>
	<path class="st0" d="M22.4,6.6c0-0.1-0.1-0.1-0.2-0.1c-0.9,0-1.8-0.1-2.7-0.1c-1.1,0-2.2-0.1-3.3-0.1c-0.8,0-1.5-0.1-2.3-0.1
		c-0.2,0.1-0.3,0-0.5,0c0.5,0.1,0.9,0.3,1.3,0.5c2.2,1.2,3.4,3.9,2.8,6.4c-0.5,2.4-2.4,4.1-4.8,4.5c0,0,0,0,0,0
		c0.8,0,1.5,0.1,2.3,0.1c0.9,0,1.7,0.1,2.6,0.1c0.1,0,0.1,0,0.2,0c0.1,0,0.2,0,0.3,0c0.3,0,0.5,0,0.8,0.1c0,0,0,0,0,0c0,0,0,0,0,0
		c0.1,0,0.1,0,0.2,0c-0.1,0-0.1,0-0.2,0c-0.4,0-0.7,0-1.1,0c-0.6,0-1.1,0-1.7,0c0,0-0.1,0-0.1,0c-2.5,0-5.1,0-7.6,0.1
		c-1.4,0-2.8,0-4.2,0.1c0,0,0,0,0,0c0.8,0.1,1.5,0.1,2.3,0.2c0.7,0,1.3,0.1,2,0.1c1,0.1,2,0.1,3,0.2c0.9,0.1,1.9,0.1,2.8,0.2
		c1.1,0.1,2.1,0.1,3.2,0.2c0.2,0,0.4,0,0.6,0.1c0,0,0.1,0,0.1,0c0,0-0.1,0-0.1,0c-0.4,0-0.8,0-1.1,0c-1.5,0-2.9,0-4.4,0.1
		c-2.4,0-4.9,0.1-7.3,0.1c-0.2,0.1-0.4,0-0.6,0c0,0,0,0,0,0c2,0.1,3.9,0.2,5.9,0.3c1.2,0.1,2.5,0.1,3.7,0.2c0.3,0,0.6,0,0.9,0
		c0.1,0,0.1,0,0.2,0c0.1,0,0.1,0,0.2,0c0,0,0,0,0,0c0,0,0,0,0,0c0,0,0,0,0,0c0,0,0.1,0,0.1,0c0,0,0,0,0,0c0,0,0,0,0,0c0,0,0,0,0,0
		c0,0,0,0-0.1,0c0,0,0,0,0,0c-0.1,0-0.1,0-0.2,0c-0.1,0-0.1,0-0.2,0c-0.2,0-0.3,0-0.5,0c0,0-0.1,0-0.1,0c-3.6,0.1-7.3,0.1-10.9,0.2
		c-0.1,0-0.2,0-0.3,0c0,0,0,0.1,0,0.1c0,0.1,0.1,0.1,0.1,0.1c2.2,2.1,4.8,3.3,7.8,3.4c1.4,0.1,2.8-0.1,4.1-0.5
		c2.4-0.8,4.3-2.1,5.8-4.1c1.3-1.8,2.1-3.7,2.3-5.9c0.1-1.1,0.1-2.3-0.1-3.4C23.2,8.6,22.9,7.5,22.4,6.6z"/>
	<path class="st1" d="M88.6,13.1c0.9-0.7,1.4-1.6,1.4-2.8c0-0.2,0-0.2-0.2-0.2c-1.5,0-2.9,0-4.4,0c-0.2,0-0.2,0-0.2,0.2
		c0,0.3,0,0.5,0,0.8c0,0.2,0,0.2,0.2,0.2c0.8,0,1.7,0,2.5,0c0.1,0,0.2,0,0.3,0c0,0.1-0.1,0.2-0.2,0.3c-0.6,0.8-1.6,1.2-2.6,1
		c-1.3-0.3-2.1-1.5-1.9-2.8c0.2-1.1,0.7-1.8,1.8-2.1c1-0.3,1.9,0,2.6,0.8c0.1,0.1,0.2,0.1,0.3,0.1c0.4,0,0.9,0,1.3,0
		c0,0,0.1,0,0.1,0c0-0.1-0.1-0.2-0.1-0.2c-0.7-1.2-1.8-1.9-3.1-2C85,6.3,83.8,6.8,83,7.9c-1,1.3-1,3.1-0.1,4.4
		C84.2,14.2,86.9,14.5,88.6,13.1z"/>
	<path class="st1" d="M45.8,13.5c0-2.3,0-4.5,0-6.8c0,0,0-0.1,0-0.1c0-0.2,0-0.2-0.2-0.2c-0.3,0-0.6,0-0.8,0c-0.3,0-0.3,0-0.3,0.3
		c0,1.6,0,3.2,0,4.8c0,0.1,0,0.2,0,0.3c-0.1-0.1-0.1-0.1-0.2-0.2c-0.4-0.8-0.8-1.5-1.3-2.3c-0.5-0.9-1-1.8-1.5-2.7
		c-0.1-0.1-0.2-0.2-0.3-0.2c-0.4,0-0.7,0-1.1,0c-0.3,0-0.2,0-0.2,0.2c0,0,0,0,0,0.1c0,2.3,0,4.6,0,6.8c0,0.1,0,0.1,0,0.2
		c0,0.1,0,0.2,0.1,0.1c0.3,0,0.7,0,1,0c0.2,0,0.2,0,0.2-0.2c0-0.1,0-0.1,0-0.2c0-1.6,0-3.1,0-4.7c0-0.1,0-0.2,0-0.2c0,0,0,0,0.1,0
		c0.1,0.1,0.1,0.2,0.2,0.3c0.9,1.6,1.8,3.2,2.7,4.8c0.1,0.1,0.2,0.2,0.3,0.2c0.3,0,0.7,0,1,0c0.2,0,0.2,0,0.2-0.2
		C45.8,13.6,45.8,13.6,45.8,13.5z"/>
	<path class="st1" d="M81.1,6.5c-0.4,0-0.7,0-1.1,0c-0.1,0-0.1,0-0.1,0.1c0,0.1,0,0.1,0,0.2c0,1.6,0,3.1,0,4.7c0,0.1,0,0.1,0,0.2
		c-0.1-0.1-0.2-0.2-0.2-0.3c-0.9-1.6-1.8-3.2-2.7-4.8c-0.1-0.1-0.1-0.2-0.3-0.2c-0.4,0-0.8,0-1.2,0c-0.2,0-0.2,0-0.2,0.2
		c0,0,0,0.1,0,0.1c0,2.2,0,4.5,0,6.7c0,0.1,0,0.1,0,0.2c0,0.1,0,0.2,0.2,0.2c0.3,0,0.6,0,0.8,0c0.4,0,0.3,0.1,0.3-0.3
		c0-1.6,0-3.3,0-5c0.1,0.1,0.1,0.2,0.2,0.3c0.9,1.6,1.9,3.2,2.8,4.9c0.1,0.1,0.2,0.2,0.3,0.2c0.3,0,0.7,0,1,0c0.3,0,0.3,0,0.3-0.3
		c0-2.3,0-4.5,0-6.8c0,0,0-0.1,0-0.1C81.2,6.6,81.2,6.5,81.1,6.5z"/>
	<path class="st1" d="M107.3,6.4c-2.1,0-3.8,1.7-3.8,3.8c0,2.2,1.8,3.8,3.8,3.8c2.1,0,3.8-1.7,3.8-3.8
		C111.1,8.1,109.4,6.4,107.3,6.4z M108.4,12.4c-1.5,0.8-3.3-0.1-3.6-1.8c0-0.2-0.1-0.3-0.1-0.4c0-1.3,0.9-2.3,1.9-2.5
		c1.3-0.3,2.6,0.4,3,1.7C110,10.6,109.5,11.9,108.4,12.4z"/>
	<path class="st1" d="M28.6,13.9c0.4,0,0.7,0,1.1-0.1c1.2-0.2,2-1.1,1.9-2.2c0-0.8-0.3-1.4-1.1-1.7c0,0-0.1,0-0.1-0.1
		c0.3-0.2,0.6-0.5,0.7-0.9c0.2-0.8-0.1-1.7-0.8-2.1c-0.4-0.3-0.9-0.3-1.4-0.3c-0.6,0-1.1,0-1.7,0c-0.4,0-0.3-0.1-0.3,0.3
		c0,2.3,0,4.5,0,6.8c0,0,0,0.1,0,0.1c0,0.2,0,0.2,0.2,0.2C27.6,13.9,28.1,13.9,28.6,13.9z M28.4,7.7c0.3,0,0.6,0,0.8,0.1
		c0.4,0.1,0.6,0.4,0.6,0.8c0,0.3-0.2,0.5-0.5,0.7c-0.3,0.1-0.7,0.1-1,0.1c-0.1,0-0.1-0.1-0.1-0.1c0-0.2,0-0.4,0-0.7
		c0-0.2,0-0.4,0-0.6C28.3,7.8,28.3,7.7,28.4,7.7z M28.3,11.6c0-0.3,0-0.6,0-0.8c0-0.1,0-0.1,0.1-0.1c0.4,0,0.7,0,1.1,0.1
		c0.1,0,0.2,0.1,0.2,0.1c0.6,0.2,0.7,0.8,0.5,1.3c-0.1,0.2-0.2,0.3-0.4,0.4c-0.2,0.1-0.5,0.2-0.7,0.2c-0.2,0-0.5,0-0.7,0
		c-0.1,0-0.2,0-0.2-0.2C28.3,12.2,28.3,11.9,28.3,11.6z"/>
	<path class="st1" d="M115.3,11.1c1.4-0.4,1.8-1.8,1.6-2.7c-0.2-1-1.1-1.8-2.2-1.8c-0.8,0-1.6,0-2.5,0c-0.2,0-0.2,0-0.2,0.2
		c0,0,0,0.1,0,0.1c0,2.2,0,4.5,0,6.7c0,0.1,0,0.1,0,0.2c0,0.1,0,0.1,0.2,0.1c0.3,0,0.6,0,1,0c0.2,0,0.2,0,0.2-0.2c0-0.8,0-1.5,0-2.3
		c0-0.1,0-0.2,0-0.3c0.1,0,0.1,0.1,0.2,0.2c0.5,0.7,1,1.4,1.5,2.1c0.1,0.2,0.2,0.4,0.3,0.4c0.2,0.1,0.4,0,0.6,0c0.3,0,0.7,0,1,0
		c-0.7-0.9-1.3-1.8-2-2.7C115.1,11.1,115.2,11.1,115.3,11.1z M114.1,10c-0.2,0-0.4,0-0.5,0c-0.1,0-0.2,0-0.2-0.2c0-0.3,0-0.6,0-0.9
		c0-0.3,0-0.6,0-1c0-0.1,0-0.2,0.2-0.2c0.3,0,0.7,0,1,0c0.7,0.1,1.1,0.7,0.9,1.4c-0.1,0.4-0.4,0.6-0.8,0.7
		C114.5,10,114.3,10,114.1,10z"/>
	<path class="st1" d="M33.6,13.7c0.2-0.5,0.4-1,0.6-1.5c0.1-0.1,0.1-0.2,0.3-0.2c0.7,0,1.4,0,2.1,0c0.3,0,0.2,0,0.3,0.2
		c0.2,0.5,0.4,1,0.6,1.5c0,0.1,0.1,0.2,0.2,0.2c0.4,0,0.9,0,1.3,0c0-0.1,0-0.2-0.1-0.3c-0.7-1.7-1.4-3.5-2.1-5.2
		c-0.2-0.6-0.5-1.2-0.7-1.8c-0.1-0.1-0.1-0.2-0.3-0.2c-0.2,0-0.4,0-0.6,0c-0.3,0-0.2-0.1-0.3,0.2c-0.9,2.2-1.8,4.4-2.7,6.6
		c-0.1,0.2-0.1,0.4-0.2,0.6c0.5,0,0.9,0,1.4,0C33.5,13.9,33.5,13.8,33.6,13.7z M35.6,8.4c0.3,0.8,0.5,1.5,0.8,2.2
		c-0.2,0-1.4,0.1-1.6,0C34.8,10.4,35.4,8.7,35.6,8.4z"/>
	<path class="st1" d="M95.6,9.3c-0.4-0.9-0.7-1.7-1.1-2.6c-0.1-0.2-0.1-0.2-0.3-0.2c-0.2,0-0.4,0-0.6,0c-0.2,0-0.2,0.1-0.3,0.2
		c-0.6,1.5-1.3,3.1-1.9,4.6c-0.3,0.8-0.6,1.5-0.9,2.3c-0.1,0.2-0.1,0.2,0.1,0.2c0.4,0,0.7,0,1.1,0c0.1,0,0.2,0,0.3-0.2
		c0.2-0.5,0.4-1,0.6-1.5c0.1-0.2,0-0.2,0.3-0.2c0.7,0,1.4,0,2.1,0c0.3,0,0.2,0,0.3,0.2c0.2,0.5,0.4,1,0.6,1.5c0,0.1,0.1,0.2,0.2,0.2
		c0.4,0,0.9,0,1.4,0c0-0.1-0.1-0.2-0.1-0.2C96.8,12.2,96.2,10.8,95.6,9.3z M93,10.7c0.3-0.7,0.5-1.5,0.8-2.2c0,0,0,0,0.1,0
		c0.3,0.7,0.5,1.4,0.8,2.2C94.2,10.7,93.6,10.7,93,10.7z"/>
	<path class="st1" d="M47.4,13.7c0,0.1,0,0.2,0.1,0.1c0.3,0,0.6,0,1,0c0.2,0,0.2,0,0.2-0.2c0-0.9,0-1.9,0-2.8c0-0.1,0-0.1,0-0.2
		c0.1,0,0.1,0.1,0.1,0.2c0.7,1,1.3,1.9,2,2.9c0.1,0.1,0.2,0.2,0.3,0.2c0.3,0,0.6,0,0.9,0c0.1,0,0.3,0,0.5,0
		c-0.1-0.1-0.1-0.1-0.1-0.2c-0.6-0.8-1.2-1.6-1.8-2.5c-0.2-0.3-0.5-0.7-0.7-1c-0.1-0.1-0.1-0.2,0-0.3c0,0,0.1-0.1,0.1-0.1
		c0.8-1.1,1.6-2.1,2.4-3.2c0,0,0.1-0.1,0.1-0.2c-0.5,0-0.9,0-1.4,0c-0.1,0-0.2,0.1-0.2,0.2C50.6,7,50.3,7.4,50,7.8
		c-0.4,0.6-0.8,1.2-1.3,1.8c0,0,0,0-0.1,0c0-0.1,0-0.2,0-0.2c0-0.9,0-1.7,0-2.6c0-0.1,0-0.1,0-0.2c0-0.1,0-0.1-0.1-0.1
		c-0.4,0-0.7,0-1.1,0c-0.1,0-0.1,0-0.1,0.1c0,0.1,0,0.1,0,0.2c0,2.3,0,4.6,0,6.8C47.4,13.6,47.4,13.7,47.4,13.7z"/>
	<path class="st1" d="M70.6,9.8c-0.3-0.2-0.7-0.4-1-0.5C69.3,9.3,69,9.2,68.8,9c-0.3-0.2-0.4-0.6-0.3-0.9c0.1-0.3,0.4-0.5,0.7-0.5
		c0.4,0,0.7,0.2,0.8,0.6c0,0,0,0.1,0,0.1c0,0.1,0,0.1,0.1,0.1c0.4,0,0.8,0,1.3,0c0-1-0.7-1.9-1.8-2c-1.3-0.2-2.5,0.7-2.5,2
		c0,0.9,0.3,1.5,1.1,1.9c0.2,0.1,0.5,0.2,0.7,0.3c0.3,0.1,0.5,0.2,0.8,0.3c0.1,0.1,0.2,0.1,0.3,0.3c0.3,0.5,0.3,1.1-0.2,1.4
		c-0.5,0.3-1.1,0.2-1.4-0.3c0-0.1-0.1-0.2-0.1-0.3c0-0.2-0.1-0.2-0.2-0.2c-0.3,0-0.7,0-1,0c-0.1,0-0.1,0-0.2,0
		c0,0.3,0.1,0.6,0.2,0.9c0.6,1.2,2,1.5,3.1,1.1c0.9-0.4,1.4-1.2,1.4-2.2C71.5,10.8,71.2,10.2,70.6,9.8z"/>
	<path class="st1" d="M102.4,7.3c-0.4-0.5-1-0.7-1.7-0.7c-0.4,0-0.8,0-1.2,0c-0.4,0-0.8,0-1.1,0c-0.2,0-0.2,0-0.2,0.2
		c0,0.1,0,0.1,0,0.2c0,1.1,0,2.2,0,3.3c0,0.3,0,0.6,0,0.9c0,0.9,0,1.7,0,2.6c0,0.2,0,0.2,0.2,0.2c0.3,0,0.6,0,0.9,0
		c0.2,0,0.2,0,0.2-0.2c0-0.8,0-1.5,0-2.3c0-0.3,0-0.3,0.3-0.3c0.4,0,0.8,0,1.3-0.1c0.7-0.1,1.2-0.5,1.6-1.1c0.2-0.4,0.3-0.9,0.2-1.4
		C102.9,8,102.7,7.6,102.4,7.3z M101.5,9.1c-0.1,0.3-0.2,0.4-0.5,0.5c-0.4,0.2-0.9,0.1-1.3,0.1c-0.1,0-0.1-0.1-0.1-0.2
		c0-0.3,0-0.6,0-0.8c0-0.3,0-0.6,0-0.8c0-0.1,0-0.2,0.1-0.2c0.4,0,0.9,0,1.3,0.1c0.3,0.1,0.5,0.3,0.5,0.6
		C101.6,8.7,101.6,8.9,101.5,9.1z"/>
	<path class="st1" d="M56.9,6.4c-2.2,0-3.9,1.6-3.9,3.8c0,2.2,1.7,3.9,3.9,3.9c2.1,0,3.9-1.5,3.9-3.8C60.7,7.9,59,6.4,56.9,6.4z
		 M56.8,13.4c-1.7,0-3.2-1.3-3.1-3.2c0-1.9,1.5-3.1,3.2-3.1c1.6,0,3.1,1.2,3.1,3.2C60,12.2,58.5,13.4,56.8,13.4z"/>
	<path class="st1" d="M72.6,13.7c0,0.1,0,0.1,0.1,0.1c0.4,0,0.8,0,1.2,0c0.1,0,0.1,0,0.1-0.1c0-0.1,0-0.1,0-0.2c0-1.1,0-2.2,0-3.4
		c0-0.1,0-0.1,0-0.2c0-1.1,0-2.2,0-3.2c0-0.2,0-0.2-0.2-0.2c-0.3,0-0.6,0-0.9,0c-0.2,0-0.2,0-0.2,0.2c0,0,0,0.1,0,0.1
		c0,2.2,0,4.5,0,6.7C72.6,13.6,72.6,13.7,72.6,13.7z"/>
	<path class="st1" d="M65.6,9.8c-0.1,0-0.1,0-0.2,0c-0.8,0-1.7,0-2.5,0c-0.2,0-0.2,0-0.2-0.2c0-0.8,0-1.5,0-2.3c0-0.2,0-0.2,0.2-0.2
		c0.8,0,1.7,0,2.5,0c0.1,0,0.1,0,0.2,0c0.1,0,0.1,0,0.1-0.1c0-0.2,0-0.3,0-0.5c0-0.1,0-0.1-0.1-0.1c-0.1,0-0.1,0-0.2,0
		c-1.1,0-2.1,0-3.2,0c-0.1,0-0.1,0-0.2,0c-0.1,0-0.1,0-0.1,0.1c0,0.1,0,0.1,0,0.2c0,1.1,0,2.3,0,3.4c0,1.1,0,2.2,0,3.3
		c0,0.2-0.1,0.4,0,0.5c0.1,0.1,0.3,0,0.4,0c0.2,0,0.2,0,0.2-0.2c0-1,0-2,0-3c0-0.2,0-0.2,0.2-0.2c0.8,0,1.5,0,2.3,0
		c0.2,0,0.4,0.1,0.5,0c0.1-0.1,0-0.3,0-0.5C65.7,9.8,65.6,9.8,65.6,9.8z"/>
	<path class="st1" d="M97.2,17.1c-0.2-0.1-0.3,0-0.3,0.2c0,0.1,0,0.1,0,0.2c-0.7-0.5-1.5-0.5-2.1,0c-0.5,0.5-0.6,1.4-0.1,2
		c0.2,0.3,0.5,0.4,0.8,0.5c0.5,0.1,1,0,1.4-0.4c0,0.1,0,0.1,0,0.1c0,0.4-0.3,0.8-0.7,0.9c-0.4,0.1-0.9,0-1.2-0.4
		c-0.1-0.2-0.3-0.3-0.5-0.2c0.3,0.9,1.5,1.4,2.3,0.5c0.3-0.3,0.4-0.7,0.4-1.1c0-0.7,0-1.4,0-2.1C97.3,17.3,97.3,17.2,97.2,17.1
		C97.3,17.1,97.2,17.1,97.2,17.1z M95.9,19.6c-0.6,0-1.1-0.5-1.1-1.1c0-0.6,0.5-1.1,1.1-1.1c0.6,0,1.1,0.5,1.1,1.1
		C96.9,19.1,96.5,19.6,95.9,19.6z"/>
	<path class="st1" d="M35,17.3c-0.5-0.4-1.3-0.3-1.9,0c-0.9,0.6-0.8,1.9,0.1,2.4c0.5,0.3,1.1,0.3,1.6,0c0.3-0.2,0.5-0.4,0.7-0.8
		c-0.2,0-0.4-0.1-0.5,0.1c-0.3,0.6-1.3,0.7-1.9,0.2C33.1,19.2,33,19,33,18.9c-0.1-0.2,0-0.2,0.2-0.2c0.1,0,0.1,0,0.2,0
		c0.7,0,1.4,0,2.1,0c0.2,0,0.2,0,0.2-0.2C35.6,18,35.4,17.6,35,17.3z M33,18.3c0.1-0.5,0.5-0.8,1.1-0.9c0.6,0,1.1,0.3,1.2,0.9
		C34.5,18.3,33.7,18.3,33,18.3z"/>
	<path class="st1" d="M80.5,17.9c0-0.1,0.1-0.1,0.1-0.1c0.3-0.3,0.3-0.6,0.2-1c-0.1-0.4-0.4-0.5-0.7-0.6c-0.4-0.1-0.7,0-1.1,0
		c-0.1,0-0.1,0-0.1,0.1c0,0.1,0,0.1,0,0.2c0,1,0,2,0,3c0,0.1,0,0.2,0,0.3c0,0.1,0,0.1,0.1,0.1c0.4,0,0.8,0,1.2,0
		c0.5,0,0.8-0.4,0.9-0.9C81.1,18.5,81,18.1,80.5,17.9z M79.3,17.1C79.3,17.1,79.3,17.1,79.3,17.1c0-0.2,0-0.3,0-0.5
		c0-0.1,0-0.1,0.1-0.1c0.2,0,0.5,0,0.7,0c0.4,0.1,0.5,0.3,0.5,0.7c0,0.3-0.2,0.5-0.6,0.5c-0.2,0-0.4,0-0.5,0c-0.1,0-0.2,0-0.2-0.2
		C79.3,17.4,79.3,17.2,79.3,17.1z M80.2,19.5c-0.3,0-0.5,0-0.8,0c-0.1,0-0.2,0-0.2-0.1c0-0.2,0-0.4,0-0.6c0,0,0,0,0,0
		c0-0.2,0-0.4,0-0.6c0-0.1,0-0.1,0.1-0.1c0.3,0,0.6,0,0.8,0c0.3,0.1,0.6,0.4,0.5,0.7C80.7,19.2,80.5,19.4,80.2,19.5z"/>
	<path class="st1" d="M76.4,18.2c-0.2-0.8-0.9-1.3-1.8-1.2c-0.8,0.2-1.3,1-1.1,1.8c0.2,0.8,1.1,1.2,1.9,1c0.5-0.2,0.8-0.5,0.9-0.9
		c-0.2,0-0.3-0.1-0.5,0.1c-0.3,0.5-1,0.7-1.5,0.4c-0.3-0.2-0.5-0.4-0.5-0.8c0.1,0,0.2,0,0.3,0c0.7,0,1.3,0,2,0
		C76.4,18.6,76.4,18.6,76.4,18.2C76.4,18.3,76.4,18.2,76.4,18.2z M73.8,18.3c0.1-0.5,0.5-0.9,1.1-0.9c0.5,0,0.9,0.3,1.1,0.8
		C75.8,18.3,74.3,18.3,73.8,18.3z"/>
	<path class="st1" d="M56.2,17.2c-0.1,0-0.2,0-0.3,0c-0.1,0,0,0.1-0.1,0.2c0,0.1,0,0.1,0,0.2c0,0,0,0,0,0c0,0,0,0-0.1,0
		c-0.5-0.4-1-0.4-1.5-0.3c-0.6,0.1-1,0.7-1.1,1.3c0,0.6,0.3,1.2,0.8,1.4c0.5,0.2,0.9,0.2,1.4,0c0.2-0.1,0.3-0.2,0.5-0.3
		c0,0.1,0,0.2,0,0.2c0,0.2,0.1,0.2,0.2,0.2c0.2,0,0.2,0,0.2-0.2c0-0.3,0-0.7,0-1c0-0.5,0-1,0-1.4C56.2,17.3,56.3,17.2,56.2,17.2z
		 M54.9,19.6c-0.1,0-0.1,0-0.2,0c-0.7,0-1.1-0.4-1.2-0.9c-0.1-0.6,0.3-1.2,0.9-1.2c0.2,0,0.4,0,0.6,0c0.5,0.1,0.9,0.6,0.8,1.1
		C55.8,19.1,55.4,19.5,54.9,19.6z"/>
	<path class="st1" d="M43.7,17.1c-0.1,0-0.2,0-0.3,0c-0.1,0,0,0.1,0,0.2c0,0,0,0.1,0,0.1c0,0,0,0-0.1,0c0,0-0.1,0-0.1-0.1
		c-0.5-0.4-1-0.4-1.6-0.2c-0.6,0.2-0.9,0.7-1,1.3c0,0.6,0.4,1.1,0.9,1.3c0.6,0.2,1.1,0.2,1.6-0.2c0,0,0.1-0.1,0.1-0.1
		c0,0.1,0,0.2,0,0.2c0,0,0,0.1,0.1,0.1c0.2,0.1,0.3,0,0.3-0.2c0-0.8,0-1.6,0-2.4C43.7,17.3,43.7,17.3,43.7,17.1
		C43.7,17.2,43.7,17.1,43.7,17.1z M42.8,19.5c-0.4,0.2-1.1,0.2-1.4-0.1c-0.3-0.3-0.5-0.8-0.3-1.2c0.1-0.4,0.5-0.7,1-0.7
		c0.1,0,0.1,0,0.2,0c0.7,0,1.1,0.4,1.2,1C43.4,18.8,43.2,19.3,42.8,19.5z"/>
	<path class="st1" d="M71.2,17.1c-0.2,0-0.2,0-0.2,0.2c0,0.1,0,0.1,0,0.2c-0.9-0.6-1.7-0.6-2.2,0.1c-0.5,0.5-0.5,1.4,0,1.9
		c0.3,0.3,0.6,0.4,1,0.5c0.5,0,0.9-0.1,1.2-0.5c0,0.1,0,0.2,0,0.3c0,0.1,0.1,0.1,0.2,0.1c0.1,0,0.2,0,0.2-0.1c0,0,0-0.1,0-0.1
		c0-0.8,0-1.6,0-2.4C71.4,17.2,71.4,17.1,71.2,17.1z M69.9,19.6c-0.8,0-1.1-0.6-1.1-1.1c0-0.7,0.5-1.1,1.1-1.1
		c0.6,0,1.1,0.5,1.1,1.1C71,19.1,70.6,19.6,69.9,19.6z"/>
	<path class="st1" d="M84.1,17.1c-0.2,0-0.2,0-0.2,0.2c0,0.1,0,0.1,0,0.2c-0.3-0.3-0.7-0.4-1.1-0.4c-0.4,0-0.8,0.1-1,0.5
		c-0.5,0.5-0.5,1.4,0,1.9c0.2,0.2,0.5,0.4,0.8,0.5c0.5,0.1,1,0,1.4-0.4c0,0.1,0,0.2,0,0.3c0,0,0,0.1,0,0.1c0.1,0.1,0.3,0,0.3-0.2
		c0-0.4,0-0.8,0-1.2c0-0.4,0-0.9,0-1.3C84.3,17.1,84.2,17.1,84.1,17.1z M82.9,19.6c-0.8,0-1.1-0.6-1.1-1.1c0-0.6,0.5-1.1,1.1-1.1
		c0.5,0,1.1,0.3,1.1,1.1C83.9,19.1,83.5,19.6,82.9,19.6z"/>
	<path class="st1" d="M61.4,16.2c-0.3,0-0.7,0-1,0c-0.2,0-0.2,0-0.2,0.2c0,0.6,0,1.1,0,1.7c0,0.2,0,0.3,0,0.5c0,0.4,0,0.8,0,1.2
		c0,0.1,0,0.1,0,0.2c0.1,0,0.2,0,0.3,0c0.1,0,0.1-0.1,0.1-0.2c0-0.4,0-0.7,0-1.1c0-0.3,0-0.3,0.3-0.3c0.2,0,0.5,0,0.7,0
		c0.8-0.1,1.2-0.8,0.9-1.5C62.2,16.4,61.8,16.2,61.4,16.2z M61.5,18c-0.3,0.1-0.6,0-0.9,0c-0.1,0-0.1,0-0.1-0.1c0-0.2,0-0.4,0-0.7
		c0,0,0,0,0,0c0-0.2,0-0.4,0-0.6c0-0.1,0-0.2,0.1-0.1c0.3,0,0.5,0,0.8,0c0.4,0,0.7,0.3,0.7,0.7C62.1,17.7,61.9,17.9,61.5,18z"/>
	<path class="st1" d="M48.7,17.2c-0.3-0.1-0.5-0.1-0.8-0.1c-0.7,0.1-1.2,0.5-1.3,1.2c-0.1,0.7,0.2,1.3,0.8,1.6
		c0.2,0.1,0.5,0.2,0.7,0.1c0.1,0,0.2,0,0.2,0c0.7-0.1,1.2-0.6,1.3-1.2C49.7,18,49.4,17.4,48.7,17.2z M48.5,19.6
		c-0.3,0.1-0.6,0.1-0.9,0c-0.5-0.2-0.7-0.6-0.7-1.2c0.1-0.5,0.5-0.8,0.9-0.9c0.1,0,0.2,0,0.3,0c0.6,0,1,0.4,1.1,0.7
		C49.4,18.7,49.1,19.4,48.5,19.6z"/>
	<path class="st1" d="M39.1,17.1c-0.4,0-0.8,0.1-1.2,0.3c0-0.1,0-0.1,0-0.1c0-0.2,0-0.2-0.2-0.2c-0.1,0-0.1,0.1-0.1,0.2
		c0,0.8,0,1.6,0,2.4c0,0.1,0,0.2,0.2,0.2c0.2,0,0.2,0,0.2-0.2c0-0.4,0-0.8,0-1.1c0-0.1,0-0.3,0-0.4c0-0.3,0.2-0.6,0.6-0.7
		c0.2-0.1,0.4-0.1,0.7,0c0.4,0,0.7,0.3,0.7,0.7c0,0.1,0,0.3,0,0.4c0,0.4,0,0.8,0,1.2c0,0.1,0.1,0.1,0.2,0.1c0.1,0,0.2,0,0.2-0.1
		c0-0.5,0-1.1,0-1.6C40.2,17.5,39.7,17.1,39.1,17.1z"/>
	<path class="st1" d="M29.7,17.1c-0.5-0.1-0.9,0-1.4,0.3c0,0,0-0.1,0-0.1c0-0.2,0-0.2-0.2-0.2c-0.2,0-0.2,0.1-0.2,0.2
		c0,0.8,0,1.6,0,2.4c0,0.2,0,0.2,0.2,0.2c0.2,0,0.2,0,0.2-0.2c0-0.1,0-0.3,0-0.4c0-0.3,0-0.7,0-1c0-0.4,0.2-0.7,0.6-0.8
		c0.2-0.1,0.5-0.1,0.7,0c0.3,0.1,0.5,0.3,0.6,0.6c0,0.1,0,0.3,0,0.4c0,0.4,0,0.9,0,1.3c0,0.2,0.1,0.1,0.2,0.1c0.1,0,0.2,0,0.2-0.1
		c0-0.5,0-1,0-1.6C30.7,17.6,30.3,17.2,29.7,17.1z"/>
	<path class="st1" d="M51.6,17.1c-0.4,0-0.8,0-1.2,0.3c0,0,0-0.1,0-0.1c0-0.2,0-0.2-0.2-0.2c-0.2,0-0.2,0.1-0.2,0.2
		c0,0.8,0,1.6,0,2.4c0,0.2,0,0.2,0.2,0.2c0.2,0,0.2,0,0.2-0.2c0-0.5,0-1,0-1.4c0-0.4,0.2-0.7,0.6-0.8c0.3-0.1,0.5-0.1,0.8,0
		c0.3,0.1,0.5,0.3,0.6,0.6c0,0.1,0,0.3,0,0.4c0,0.4,0,0.9,0,1.3c0,0.1,0.1,0.1,0.2,0.1c0.1,0,0.2,0,0.2-0.1c0-0.5,0-1,0-1.5
		C52.7,17.6,52.3,17.1,51.6,17.1z"/>
	<path class="st1" d="M89.2,18.6c-0.1-0.2-0.1-0.2,0-0.3c0.2-0.3,0.4-0.6,0.7-0.9c0.1-0.1,0.1-0.2,0.2-0.3c-0.3-0.1-0.5,0-0.6,0.2
		c-0.3,0.4-0.6,0.8-0.9,1.2c0,0,0,0.1-0.1,0.1c0,0,0-0.1,0-0.1c0-0.7,0-1.4,0-2.1c0-0.1,0-0.1,0-0.2c0-0.1,0-0.1-0.1-0.1
		c-0.2,0-0.2,0-0.2,0.2c0,0.5,0,0.9,0,1.4c0,0.7,0,1.4,0,2c0,0.1,0,0.2,0.2,0.2c0.1,0,0.2,0,0.2-0.2c0-0.1,0-0.3,0-0.4
		c0.1-0.2,0.3-0.4,0.4-0.6c0.2,0.3,0.5,0.6,0.7,0.9c0.1,0.2,0.3,0.3,0.6,0.2c0-0.1,0-0.1-0.1-0.1C89.8,19.4,89.5,19,89.2,18.6z"/>
	<path class="st1" d="M93.9,18.4c0-0.1,0-0.3-0.1-0.4c-0.1-0.5-0.4-0.7-0.9-0.8c-0.4-0.1-0.8,0-1.2,0.3c-0.1-0.2-0.1-0.2-0.2-0.2
		c-0.2,0-0.1,0.1-0.1,0.2c0,0.6,0,1.3,0,1.9c0,0.2,0,0.3,0,0.5c0,0.1,0,0.1,0.1,0.1c0.2,0,0.2,0,0.2-0.2c0-0.1,0-0.2,0-0.2
		c0-0.4,0-0.9,0-1.3c0-0.3,0.1-0.5,0.4-0.6c0.3-0.2,0.6-0.2,0.9-0.1c0.2,0.1,0.4,0.2,0.4,0.4c0.1,0.1,0.1,0.3,0.1,0.5
		c0,0.4,0,0.9,0,1.3c0,0.1,0,0.1,0,0.2c0.1,0,0.2,0,0.3,0c0.1,0,0.1-0.1,0.1-0.2C93.9,19.2,93.9,18.8,93.9,18.4z"/>
	<path class="st1" d="M87.3,17.8c-0.1-0.3-0.3-0.6-0.7-0.7c-0.2-0.1-0.5-0.1-0.8-0.1c-0.2,0-0.4,0.1-0.6,0.3c0,0,0-0.1,0-0.1
		c0-0.2-0.1-0.2-0.2-0.2c-0.1,0-0.1,0.1-0.1,0.2c0,0.8,0,1.6,0,2.4c0,0.1,0.1,0.2,0.2,0.2c0.1,0,0.2,0,0.2-0.2c0-0.3,0-0.6,0-0.9
		c0-0.2,0-0.5,0-0.7c0-0.2,0.1-0.5,0.4-0.6c0.7-0.4,1.4,0,1.4,0.8c0,0.1,0,0.3,0,0.4c0,0.3,0,0.6,0,1c0,0.2,0,0.2,0.2,0.2
		c0.1,0,0.2,0,0.2-0.2c0-0.5,0-1,0-1.4C87.4,18.1,87.4,18,87.3,17.8z"/>
	<path class="st1" d="M67.8,17.5c-0.2,0.6-0.5,1.2-0.7,1.7c0,0,0,0.1-0.1,0.1c0-0.1-0.1-0.2-0.1-0.3c-0.2-0.6-0.5-1.1-0.7-1.7
		c-0.1-0.1-0.1-0.2-0.3-0.2c0,0-0.1,0-0.2,0c0,0.1,0,0.2,0.1,0.2c0.2,0.4,0.3,0.8,0.5,1.2c0.2,0.4,0.3,0.8,0.5,1.2
		c0,0.1,0.1,0.2,0.2,0.2c0.1,0,0.2,0,0.3-0.2c0.3-0.7,0.5-1.3,0.8-2c0.1-0.2,0.2-0.4,0.2-0.6C68,17.2,68,17.2,67.8,17.5z"/>
	<path class="st1" d="M32.6,17.3c0-0.1,0-0.2-0.1-0.2c-0.1,0-0.3,0-0.4,0c-0.1,0-0.2,0-0.2-0.2c0-0.2,0-0.5,0-0.7
		c0-0.2,0-0.2-0.2-0.2c-0.2,0-0.2,0-0.2,0.2c0,0.2,0,0.4,0,0.6c0,0.2,0,0.2-0.2,0.2c-0.1,0-0.2,0-0.3,0c-0.1,0-0.1,0.1-0.1,0.2
		c0,0.1,0,0.2,0.2,0.2c0.1,0,0.2,0,0.3,0c0.2,0,0.2,0,0.2,0.2c0,0.3,0,0.7,0,1c0,0.3,0,0.7,0,1c0,0.2,0,0.2,0.2,0.2
		c0.2,0,0.2,0,0.2-0.2c0-0.1,0-0.2,0-0.4c0-0.6,0-1.1,0-1.7c0-0.2,0-0.2,0.2-0.2c0.1,0,0.3,0,0.4,0C32.6,17.5,32.6,17.4,32.6,17.3z"
		/>
	<path class="st1" d="M45.5,17.1c-0.1,0-0.3,0-0.4,0c-0.1,0-0.2,0-0.2-0.2c0-0.2,0-0.5,0-0.7c0-0.2,0-0.2-0.2-0.2
		c-0.1,0-0.2,0-0.2,0.1c0,0.2,0,0.4,0,0.6c0,0.3,0,0.3-0.3,0.3c-0.1,0-0.1,0-0.2,0c-0.1,0-0.1,0.1-0.1,0.2c0,0.1,0,0.2,0.2,0.2
		c0.1,0,0.2,0,0.3,0c0.1,0,0.2,0,0.2,0.2c0,0.3,0,0.7,0,1c0,0.3,0,0.7,0,1c0,0.1,0,0.2,0.2,0.2c0.2,0,0.2,0,0.2-0.2c0,0,0-0.1,0-0.1
		c0-0.6,0-1.1,0-1.7c0-0.4,0-0.4,0.4-0.4c0.1,0,0.1,0,0.2,0c0.1,0,0.1-0.1,0.1-0.2C45.6,17.2,45.6,17.1,45.5,17.1z"/>
	<path class="st1" d="M73.2,17.1c-0.1,0-0.2,0-0.3,0c-0.2,0-0.2,0-0.2-0.2c0-0.2,0-0.4,0-0.7c0-0.1-0.1-0.2-0.2-0.2s-0.2,0-0.2,0.2
		c0,0.2,0,0.5,0,0.7c0,0.1,0,0.2-0.2,0.2c-0.1,0-0.2,0-0.3,0c0,0-0.1,0-0.1,0.1c-0.1,0.2,0,0.3,0.2,0.3c0.1,0,0.2,0,0.2,0
		c0.1,0,0.2,0,0.2,0.2c0,0.3,0,0.7,0,1c0,0,0,0,0,0c0,0.3,0,0.7,0,1c0,0.1,0,0.2,0.2,0.2c0.2,0,0.2,0,0.2-0.2c0-0.6,0-1.3,0-1.9
		c0-0.1,0-0.1,0-0.2c0-0.1,0-0.1,0.1-0.1c0.1,0,0.3,0,0.4,0c0.1,0,0.1-0.1,0.1-0.2C73.3,17.2,73.3,17.1,73.2,17.1z"/>
	<path class="st1" d="M27.4,18c0-0.6,0-1.1,0-1.7c0-0.2,0-0.2-0.2-0.2c-0.2,0-0.2,0-0.2,0.2c0,1.1,0,2.2,0,3.3c0,0.1,0,0.1,0,0.2
		c0,0,0,0.1,0,0.1c0.1,0,0.2,0,0.3,0c0.1,0,0.1-0.1,0.1-0.1C27.4,19.2,27.4,18.6,27.4,18z"/>
	<path class="st1" d="M37.1,17.1c-0.3,0-0.5,0.1-0.7,0.3c-0.1-0.1,0-0.2-0.1-0.2c-0.1,0-0.2,0-0.3,0c-0.1,0,0,0.1,0,0.2
		c0,0.6,0,1.3,0,1.9c0,0.2,0,0.4,0,0.5c0,0,0,0.1,0,0.1c0.1,0,0.2,0,0.3,0c0.1,0,0-0.1,0-0.2c0,0,0-0.1,0-0.1c0-0.4,0-0.8,0-1.3
		c0-0.2,0-0.5,0.2-0.7c0.2-0.2,0.3-0.2,0.6-0.2c0.2,0,0.2,0,0.2-0.2C37.3,17.1,37.2,17.1,37.1,17.1z"/>
	<path class="st1" d="M64.1,17.1c-0.2,0-0.5,0.1-0.7,0.3c-0.1-0.2-0.1-0.2-0.3-0.2c-0.2,0-0.1,0.1-0.1,0.2c0,0.8,0,1.6,0,2.3
		c0,0,0,0.1,0,0.1c0,0,0,0.1,0,0.1c0.2,0.1,0.3,0,0.3-0.2c0-0.5,0-1,0-1.4c0-0.4,0.2-0.8,0.8-0.9c0,0,0.1,0,0.1,0c0-0.1,0-0.2,0-0.3
		C64.3,17.1,64.2,17.1,64.1,17.1z"/>
	<path class="st1" d="M57.2,16.2C57.2,16.2,57.1,16.1,57.2,16.2c-0.2-0.1-0.4-0.1-0.4,0.1c0,0.6,0,1.1,0,1.7c0,0.6,0,1.1,0,1.7
		c0,0.2,0.1,0.3,0.3,0.2c0,0,0.1,0,0.1-0.1c0-0.1,0-0.1,0-0.2c0-1.1,0-2.2,0-3.3C57.2,16.3,57.2,16.3,57.2,16.2z"/>
	<path class="st1" d="M46.1,17.2c-0.1,0-0.2,0-0.3,0c-0.1,0-0.1,0.1-0.1,0.1c0,0.4,0,0.8,0,1.2c0,0.4,0,0.9,0,1.3
		c0,0.1,0.1,0.1,0.2,0.1c0.1,0,0.2,0,0.2-0.1c0-0.2,0-0.4,0-0.6c0-0.6,0-1.2,0-1.8C46.2,17.3,46.2,17.2,46.1,17.2z"/>
	<path class="st1" d="M90.6,17.1c-0.2,0-0.2,0.1-0.2,0.2c0,0.8,0,1.6,0,2.4c0,0,0,0.1,0,0.1c0,0,0,0.1,0,0.1c0.1,0.1,0.3,0,0.3-0.2
		c0-0.4,0-0.8,0-1.2c0-0.4,0-0.8,0-1.2C90.8,17.1,90.7,17.1,90.6,17.1z"/>
	<path class="st1" d="M65.1,17.2c-0.2,0-0.2,0-0.2,0.2c0,0.4,0,0.8,0,1.2c0,0.4,0,0.7,0,1.1c0,0.1,0,0.1,0,0.2c0,0,0,0.1,0.1,0.1
		c0.2,0.1,0.3,0,0.3-0.2c0-0.8,0-1.6,0-2.4C65.2,17.2,65.2,17.2,65.1,17.2z"/>
	<path class="st1" d="M46,16.8c0.2,0,0.2,0,0.2-0.2c0,0,0-0.1,0-0.1c0,0,0-0.1,0-0.1c0-0.2,0-0.2-0.2-0.2c-0.1,0-0.1,0.1-0.1,0.2
		c0,0.1,0,0.2,0,0.4C45.8,16.8,45.8,16.8,46,16.8z"/>
	<path class="st1" d="M65.1,16.2c-0.2,0-0.2,0-0.2,0.2c0,0,0,0.1,0,0.1c0,0,0,0,0,0c0,0.1,0,0.1,0,0.2c0,0.1,0.1,0.1,0.2,0.1
		c0.1,0,0.2,0,0.2-0.1c0-0.1,0-0.3,0-0.4C65.2,16.2,65.2,16.2,65.1,16.2z"/>
	<path class="st1" d="M90.6,16.1c-0.1,0-0.2,0-0.2,0.1c0,0.1,0,0.3,0,0.4c0,0.1,0,0.1,0.1,0.1c0.2,0,0.2,0,0.2-0.2c0,0,0-0.1,0-0.1
		c0,0,0,0,0,0c0-0.1,0-0.1,0-0.2C90.8,16.1,90.7,16.1,90.6,16.1z"/>
	<path class="st0" d="M5.7,5.8c0.1,0,0.2,0,0.3,0c0,0,0.1,0,0.1,0c0,0,0,0,0.1,0c0,0,0.1,0,0.1,0c0,0,0.1,0,0.1,0c0,0,0.1,0,0.1,0
		c0.1,0,0.3,0,0.4,0c0.3,0,0.5,0,0.8,0C7.1,5.7,6.4,5.8,5.7,5.8C5.7,5.8,5.7,5.8,5.7,5.8z"/>
	<path class="st0" d="M6.4,5.8c0,0-0.1,0-0.1,0c0,0-0.1,0-0.1,0c0,0,0.1,0,0.1,0C6.3,5.8,6.4,5.8,6.4,5.8z"/>
	<path class="st0" d="M5.7,5.8C5.7,5.8,5.7,5.8,5.7,5.8C5.7,5.8,5.7,5.8,5.7,5.8C5.6,5.8,5.6,5.8,5.7,5.8C5.7,5.8,5.7,5.8,5.7,5.8z"
		/>
	<path class="st0" d="M6.1,5.8c0,0-0.1,0-0.1,0c-0.1,0-0.2,0-0.3,0c0,0,0,0,0,0c0,0,0,0,0,0c0,0,0,0,0,0c0,0,0,0,0.1,0l0,0
		c0.1,0,0.2,0,0.3,0l0,0h0C6,5.8,6.1,5.8,6.1,5.8z"/>
	<path class="st0" d="M5.6,5.7C5.6,5.7,5.6,5.8,5.6,5.7C5.7,5.8,5.7,5.8,5.6,5.7c0.8,0,1.5,0,2.2,0c-0.1,0-0.1,0-0.2,0
		C6.9,5.7,6.3,5.7,5.6,5.7z"/>
	<path class="st0" d="M17.3,17.9c0.1,0,0.3,0,0.4,0c0,0,0,0,0,0c0,0,0,0,0,0c0,0-0.1,0-0.1,0v0l0,0c-0.4,0-0.9,0-1.3,0
		c-0.1,0-0.2,0-0.2,0C16.5,17.9,16.9,17.9,17.3,17.9z"/>
	<path class="st0" d="M17.8,17.9C17.8,17.9,17.8,17.9,17.8,17.9C17.8,17.9,17.8,17.9,17.8,17.9C17.8,17.9,17.8,17.9,17.8,17.9
		c-0.2,0-0.3,0-0.4,0c-0.4,0-0.8,0-1.2,0C16.7,18,17.2,17.9,17.8,17.9z"/>
	<path class="st0" d="M6.3,4.7C6.3,4.7,6.2,4.7,6.3,4.7C6.2,4.7,6.2,4.7,6.3,4.7C6.2,4.7,6.2,4.7,6.3,4.7c0.1,0,0.2,0,0.4,0
		c0,0,0.1,0,0.1,0c0,0,0.1,0,0.1,0c0.2,0,0.4,0,0.6,0C7.1,4.7,6.7,4.7,6.3,4.7z"/>
	<path class="st0" d="M6.7,4.7c-0.1,0-0.3,0-0.4,0c0,0,0,0,0,0c0,0,0,0,0,0C6.4,4.7,6.5,4.8,6.7,4.7C6.7,4.7,6.7,4.7,6.7,4.7
		C6.8,4.7,6.7,4.7,6.7,4.7z"/>
	<path class="st0" d="M6.2,4.6C6.2,4.7,6.2,4.7,6.2,4.6C6.2,4.7,6.3,4.7,6.2,4.6c0.5,0.1,0.9,0,1.3,0C7.1,4.6,6.7,4.6,6.2,4.6z"/>
	<path class="st0" d="M17.9,19C17.9,19,17.9,19,17.9,19c-0.2,0-0.4,0-0.5-0.1c-0.1,0.1-0.2,0-0.2,0.1c-0.1,0-0.2,0-0.3,0
		C17.2,19,17.6,19,17.9,19z"/>
	<path class="st0" d="M18,19C18,19,18,19,18,19C18,19,18,19,18,19C17.9,19,17.9,19,18,19C17.9,19,17.9,19,18,19
		c-0.4-0.1-0.8,0-1.1,0C17.2,19.1,17.6,19,18,19z"/>
	<path class="st0" d="M18,19C18,19,18,19,18,19c-0.2,0-0.4-0.1-0.6-0.1C17.5,19,17.7,19,18,19C18,19,18,19,18,19z"/>
	<path class="st0" d="M17.9,19C17.9,19,17.9,19,17.9,19C18,19,18,19,17.9,19C18,19,18,19,17.9,19C18,19,18,19,17.9,19z"/>
	<path class="st0" d="M4.4,19.2L4.4,19.2L4.4,19.2c0.1,0,0.1,0,0.2,0c0,0,0,0,0,0c0,0,0,0,0,0c0.2,0,0.4,0,0.5,0c-0.4,0-0.8,0-1.2,0
		c0,0,0,0.1,0,0.1c0.1,0,0.1,0,0.2,0C4.2,19.2,4.3,19.2,4.4,19.2z"/>
	<path class="st0" d="M4.6,19.2c0.2,0,0.4,0,0.6,0C5,19.2,4.8,19.2,4.6,19.2C4.6,19.2,4.6,19.2,4.6,19.2z"/>
	<path class="st0" d="M9.1,3.9c0.1,0,0.2,0,0.3,0C9.3,3.9,9.3,3.9,9.1,3.9C9.1,3.9,9.1,3.9,9.1,3.9C9.1,3.9,9.1,3.9,9.1,3.9
		C9.1,3.9,9.1,3.9,9.1,3.9z"/>
	<path class="st0" d="M9.9,4C9.9,3.9,9.9,3.9,9.9,4c-0.1-0.1-0.2,0-0.3,0C9.7,3.9,9.8,3.9,9.9,4z"/>
	<path class="st0" d="M9.4,3.9c-0.1,0-0.2,0-0.3,0c0,0,0,0,0,0c0,0,0,0,0,0C9.4,4,9.6,4,9.9,4c-0.1,0-0.2,0-0.3,0
		C9.5,3.9,9.5,3.9,9.4,3.9z"/>
	<path class="st0" d="M9.1,3.9C9.1,3.9,9.1,3.9,9.1,3.9c0.1,0,0.2,0,0.3,0c0,0,0.1,0,0.1,0c0.1,0,0.2,0,0.3,0
		C9.6,3.9,9.4,3.9,9.1,3.9C9.1,3.9,9.1,3.9,9.1,3.9z"/>
	<path class="st0" d="M9.5,3.9c0,0-0.1,0-0.1,0C9.5,3.9,9.5,3.9,9.5,3.9z"/>
	<path class="st0" d="M15,19.8C15.1,19.8,15.1,19.8,15,19.8C15.1,19.8,15.1,19.8,15,19.8C15.1,19.8,15.1,19.8,15,19.8
		c-0.3,0-0.6-0.1-0.8-0.1c0.1,0.1,0.3,0,0.4,0.1C14.7,19.7,14.9,19.8,15,19.8z"/>
	<path class="st0" d="M15.1,19.8C15.1,19.8,15.1,19.8,15.1,19.8c-0.2,0-0.3-0.1-0.5,0C14.8,19.8,14.9,19.8,15.1,19.8
		C15.1,19.8,15.1,19.8,15.1,19.8z"/>
	<path class="st0" d="M15.1,19.8C15.1,19.8,15.1,19.8,15.1,19.8c-0.3-0.1-0.6-0.1-0.9-0.1C14.5,19.7,14.8,19.8,15.1,19.8
		C15.1,19.8,15.1,19.8,15.1,19.8z"/>
	<path class="st0" d="M19.5,4.4C19.5,4.4,19.5,4.4,19.5,4.4C19.5,4.5,19.5,4.5,19.5,4.4c0.2,0.1,0.4,0,0.7,0c0,0-0.1-0.1-0.1-0.1
		c-0.1,0-0.2,0-0.3,0C19.7,4.5,19.6,4.4,19.5,4.4z"/>
	<polygon class="st0" points="19.5,4.4 19.5,4.4 19.5,4.4 	"/>
	<path class="st0" d="M13.9,6.1c-0.2-0.1-0.5,0-0.7,0c0.1,0,0.1,0,0.2,0C13.5,6,13.7,6.1,13.9,6.1z"/>
	<path class="st0" d="M13.9,6.1c-0.2,0-0.4-0.1-0.5,0C13.6,6.1,13.7,6.2,13.9,6.1z"/>
	<path class="st0" d="M4,19.2c-0.2,0-0.3,0-0.5,0C3.6,19.3,3.8,19.3,4,19.2L4,19.2L4,19.2C3.9,19.2,3.9,19.2,4,19.2z"/>
	<path class="st0" d="M3.9,19.3L3.9,19.3C3.9,19.2,3.9,19.2,3.9,19.3C3.9,19.2,3.9,19.2,3.9,19.3z"/>
	<path class="st0" d="M19.5,4.5c-0.2,0-0.5,0-0.7,0C19,4.5,19.3,4.5,19.5,4.5C19.5,4.5,19.5,4.5,19.5,4.5
		C19.5,4.5,19.5,4.5,19.5,4.5z"/>
	<path class="st0" d="M19.5,4.4L19.5,4.4C19.5,4.4,19.5,4.4,19.5,4.4L19.5,4.4C19.5,4.4,19.5,4.4,19.5,4.4c-0.2,0-0.5-0.1-0.8,0
		C19,4.4,19.3,4.5,19.5,4.4C19.5,4.5,19.5,4.5,19.5,4.4z"/>
	<path class="st0" d="M19.5,4.4C19.5,4.5,19.5,4.5,19.5,4.4C19.5,4.5,19.5,4.5,19.5,4.4C19.5,4.4,19.5,4.4,19.5,4.4z"/>
	<path class="st0" d="M19.5,4.4C19.5,4.4,19.5,4.4,19.5,4.4L19.5,4.4C19.5,4.4,19.5,4.4,19.5,4.4C19.5,4.4,19.5,4.4,19.5,4.4
		C19.5,4.4,19.5,4.4,19.5,4.4z"/>
	<path class="st0" d="M20.2,4.5c0.1,0,0.3,0,0.4,0c0,0,0,0,0,0c0,0,0,0,0,0C20.4,4.4,20.3,4.4,20.2,4.5C20.1,4.4,20.2,4.4,20.2,4.5z
		"/>
	<path class="st0" d="M20.1,4.4C20.1,4.4,20.2,4.5,20.1,4.4C20.2,4.4,20.1,4.4,20.1,4.4z"/>
	<path class="st0" d="M10.3,17.6c0.1,0.1,0.3,0,0.4,0c-0.1,0-0.1-0.1-0.2-0.1C10.4,17.6,10.3,17.6,10.3,17.6z"/>
	<path class="st0" d="M10.5,17.5c-0.1,0.1-0.1,0-0.2,0.1C10.3,17.6,10.4,17.6,10.5,17.5z"/>
	<path class="st0" d="M4.2,18.1c-0.1,0-0.2,0-0.3,0c0,0,0,0,0,0C4,18.1,4.1,18.1,4.2,18.1C4.1,18.1,4.1,18.1,4.2,18.1
		C4.2,18.1,4.2,18.1,4.2,18.1z"/>
	<path class="st0" d="M4.1,18.1C4.1,18.1,4.1,18.1,4.1,18.1C4.2,18.1,4.2,18.1,4.1,18.1C4.2,18.1,4.2,18.1,4.1,18.1z"/>
	<path class="st0" d="M19.5,4.4c0.1-0.1,0.2,0,0.3,0C19.7,4.4,19.6,4.4,19.5,4.4C19.5,4.4,19.5,4.4,19.5,4.4
		C19.5,4.4,19.5,4.4,19.5,4.4z"/>
	<path class="st0" d="M19.5,4.4C19.5,4.4,19.5,4.4,19.5,4.4C19.5,4.4,19.5,4.4,19.5,4.4C19.5,4.4,19.5,4.4,19.5,4.4
		C19.5,4.4,19.5,4.4,19.5,4.4C19.5,4.4,19.5,4.4,19.5,4.4C19.5,4.4,19.5,4.4,19.5,4.4z"/>
	<path class="st0" d="M19.5,4.4c0.1,0,0.2,0,0.3,0C19.7,4.4,19.6,4.4,19.5,4.4C19.5,4.4,19.5,4.4,19.5,4.4z"/>
	<polygon class="st0" points="19.5,4.4 19.5,4.4 19.5,4.4 19.5,4.4 	"/>
	<polygon class="st0" points="19.5,4.4 19.5,4.4 19.5,4.4 	"/>
	<polygon class="st0" points="19.5,4.4 19.5,4.4 19.5,4.4 	"/>
	<polygon class="st0" points="19.5,4.4 19.5,4.4 19.5,4.4 	"/>
	<polygon class="st0" points="19.5,4.4 19.5,4.4 19.5,4.4 19.5,4.4 	"/>
	<polygon class="st0" points="19.5,4.4 19.5,4.4 19.5,4.4 	"/>
	<path class="st0" d="M6.9,4.7C6.9,4.7,6.9,4.7,6.9,4.7C6.9,4.7,6.9,4.7,6.9,4.7C6.9,4.7,6.9,4.7,6.9,4.7z"/>
	<path class="st0" d="M6.7,4.7c0.1,0,0.2,0,0.2,0c0,0-0.1,0-0.1,0C6.8,4.7,6.7,4.7,6.7,4.7z"/>
	<path class="st0" d="M6.8,4.7C6.8,4.7,6.8,4.7,6.8,4.7c0.1,0,0.1,0,0.1,0C6.9,4.7,6.8,4.7,6.8,4.7z"/>
	<path class="st0" d="M6.8,4.7c0,0-0.1,0-0.1,0C6.7,4.7,6.8,4.7,6.8,4.7C6.8,4.7,6.8,4.7,6.8,4.7z"/>
	<path class="st0" d="M6.5,5.8C6.5,5.8,6.5,5.8,6.5,5.8C6.5,5.8,6.5,5.8,6.5,5.8C6.5,5.8,6.5,5.8,6.5,5.8z"/>
	<path class="st0" d="M6.3,5.8C6.3,5.8,6.3,5.8,6.3,5.8C6.3,5.8,6.3,5.8,6.3,5.8c0.1,0,0.2,0,0.2,0c0,0,0,0-0.1,0
		C6.4,5.8,6.3,5.8,6.3,5.8z"/>
	<path class="st0" d="M6.4,5.8C6.5,5.8,6.5,5.8,6.4,5.8C6.5,5.8,6.4,5.8,6.4,5.8C6.4,5.8,6.4,5.8,6.4,5.8z"/>
	<path class="st0" d="M6.3,5.8C6.3,5.8,6.3,5.8,6.3,5.8c0.1,0,0.1,0,0.2,0c0,0,0,0,0,0C6.4,5.8,6.3,5.8,6.3,5.8
		C6.3,5.8,6.3,5.8,6.3,5.8z"/>
	<path class="st0" d="M4.1,19.3c0.1,0,0.2,0,0.3,0c0,0,0,0,0,0C4.3,19.3,4.2,19.2,4.1,19.3z"/>
	<path class="st0" d="M4.4,19.3C4.4,19.3,4.4,19.2,4.4,19.3L4.4,19.3c-0.1,0-0.2-0.1-0.3,0C4.2,19.2,4.3,19.3,4.4,19.3z"/>
	<path class="st0" d="M12.8,17.6c-0.1,0-0.1,0-0.2,0C12.7,17.7,12.7,17.7,12.8,17.6C12.7,17.6,12.7,17.6,12.8,17.6
		C12.8,17.6,12.8,17.6,12.8,17.6z"/>
	<path class="st0" d="M12.8,17.6C12.7,17.6,12.7,17.6,12.8,17.6C12.8,17.6,12.8,17.6,12.8,17.6C12.8,17.6,12.8,17.6,12.8,17.6z"/>
	<path class="st0" d="M20.6,4.5c0.1,0,0.1,0,0.2,0C20.7,4.4,20.7,4.4,20.6,4.5C20.6,4.4,20.6,4.4,20.6,4.5
		C20.6,4.4,20.6,4.5,20.6,4.5C20.6,4.5,20.6,4.5,20.6,4.5z"/>
	<path class="st0" d="M20.6,4.5C20.6,4.5,20.6,4.4,20.6,4.5C20.6,4.5,20.6,4.5,20.6,4.5C20.6,4.5,20.6,4.5,20.6,4.5z"/>
	<path class="st0" d="M3.5,18.1c0.1,0,0.1,0,0.2,0c0,0,0,0,0,0C3.6,18.1,3.6,18,3.5,18.1z"/>
	<path class="st0" d="M20.2,5.6c0.1,0,0.1,0,0.2,0c0,0,0,0,0,0C20.4,5.6,20.3,5.6,20.2,5.6C20.3,5.6,20.3,5.6,20.2,5.6
		C20.3,5.6,20.2,5.6,20.2,5.6z"/>
	<path class="st0" d="M20.3,5.6C20.3,5.6,20.3,5.6,20.3,5.6C20.2,5.6,20.2,5.6,20.3,5.6C20.2,5.6,20.3,5.6,20.3,5.6z"/>
	<path class="st0" d="M20.8,5.6c-0.1,0-0.1,0-0.2,0c0,0,0,0,0,0C20.7,5.6,20.7,5.6,20.8,5.6z"/>
	<path class="st0" d="M4.4,19.3C4.4,19.3,4.4,19.3,4.4,19.3C4.4,19.3,4.4,19.3,4.4,19.3C4.4,19.3,4.4,19.3,4.4,19.3
		c0.1,0,0.1,0,0.2,0c0,0,0,0,0,0C4.5,19.3,4.4,19.3,4.4,19.3z"/>
	<path class="st0" d="M4.4,19.2C4.4,19.2,4.4,19.3,4.4,19.2C4.4,19.3,4.4,19.3,4.4,19.2c0.1,0,0.1,0,0.2,0
		C4.5,19.2,4.4,19.2,4.4,19.2L4.4,19.2z"/>
	<path class="st0" d="M4.4,19.3C4.4,19.3,4.4,19.3,4.4,19.3C4.4,19.3,4.4,19.3,4.4,19.3C4.4,19.3,4.4,19.3,4.4,19.3
		C4.4,19.3,4.4,19.3,4.4,19.3z"/>
	<path class="st0" d="M4.4,19.3C4.4,19.3,4.4,19.3,4.4,19.3C4.4,19.3,4.4,19.2,4.4,19.3C4.4,19.2,4.4,19.3,4.4,19.3z"/>
	<path class="st0" d="M10.8,6c0,0,0.1,0,0.1,0c0,0,0,0,0,0C10.9,6,10.8,6,10.8,6C10.8,6,10.8,6,10.8,6C10.8,6,10.8,6,10.8,6z"/>
	<path class="st0" d="M10.8,6C10.8,6,10.8,6,10.8,6C10.8,6,10.8,6,10.8,6C10.8,6,10.8,6,10.8,6z"/>
	<path class="st0" d="M20.4,5.6c0.1,0,0.1,0,0.2,0v0c0,0,0,0,0,0c0,0,0,0,0,0C20.5,5.6,20.5,5.6,20.4,5.6
		C20.5,5.6,20.5,5.6,20.4,5.6C20.5,5.6,20.5,5.6,20.4,5.6z"/>
	<path class="st0" d="M20.5,5.6C20.5,5.6,20.5,5.6,20.5,5.6C20.4,5.6,20.4,5.6,20.5,5.6C20.5,5.6,20.5,5.6,20.5,5.6z"/>
	<path class="st0" d="M20.6,5.6C20.6,5.6,20.6,5.6,20.6,5.6C20.6,5.6,20.6,5.6,20.6,5.6C20.6,5.6,20.6,5.6,20.6,5.6z"/>
	<path class="st0" d="M3.7,18.1L3.7,18.1L3.7,18.1C3.7,18.1,3.7,18.1,3.7,18.1C3.7,18.1,3.7,18.1,3.7,18.1c0.1,0,0.1,0,0.2,0
		c0,0,0,0,0,0C3.8,18.1,3.8,18.1,3.7,18.1z"/>
	<path class="st0" d="M3.7,18.1L3.7,18.1C3.7,18.1,3.7,18.1,3.7,18.1C3.7,18.1,3.7,18.1,3.7,18.1C3.7,18.1,3.7,18.1,3.7,18.1z"/>
	<path class="st0" d="M17.8,17.9C17.8,17.9,17.8,17.9,17.8,17.9C17.8,17.9,17.8,17.9,17.8,17.9C17.8,17.9,17.8,17.9,17.8,17.9
		C17.8,17.9,17.8,17.9,17.8,17.9L17.8,17.9z"/>
	<path class="st0" d="M17.6,17.9C17.6,17.9,17.6,17.9,17.6,17.9c0,0,0.1,0,0.1,0C17.7,17.9,17.7,17.9,17.6,17.9z"/>
	<path class="st0" d="M17.8,17.9C17.8,17.9,17.8,17.9,17.8,17.9C17.8,17.9,17.8,17.9,17.8,17.9C17.8,17.9,17.8,17.9,17.8,17.9
		c0,0-0.1,0-0.1,0C17.7,17.9,17.7,17.9,17.8,17.9C17.7,17.9,17.8,17.9,17.8,17.9z"/>
	<path class="st0" d="M17.8,17.9C17.8,17.9,17.8,17.9,17.8,17.9C17.8,17.9,17.7,17.9,17.8,17.9c-0.1,0-0.1,0-0.1,0v0
		C17.7,17.9,17.7,17.9,17.8,17.9z"/>
	<path class="st0" d="M17.7,17.9C17.7,17.9,17.8,17.9,17.7,17.9C17.8,17.9,17.8,17.9,17.7,17.9C17.8,17.9,17.7,17.9,17.7,17.9z"/>
	<path class="st0" d="M10.9,6C10.9,6,11,6,10.9,6C11,6,10.9,6,10.9,6C10.9,6,10.9,6,10.9,6C10.9,6,10.9,6,10.9,6z"/>
	<path class="st0" d="M10.9,6C10.9,6,10.9,6,10.9,6C10.9,6,10.9,6,10.9,6C10.9,6,10.9,6,10.9,6z"/>
	<path class="st0" d="M5.3,5.7C5.3,5.8,5.3,5.8,5.3,5.7c0.1,0,0.1,0,0.2,0C5.4,5.7,5.4,5.7,5.3,5.7z"/>
	<path class="st0" d="M5.5,5.8c0,0,0.1,0,0.1,0c0,0,0,0,0,0C5.6,5.8,5.5,5.8,5.5,5.8z"/>
	<path class="st0" d="M5.6,5.8c0,0-0.1,0-0.1,0c0,0-0.1,0-0.1,0C5.5,5.8,5.6,5.8,5.6,5.8C5.7,5.8,5.7,5.8,5.6,5.8
		C5.7,5.8,5.6,5.8,5.6,5.8z"/>
	<path class="st0" d="M5.6,5.8C5.6,5.8,5.6,5.8,5.6,5.8c-0.1,0-0.3,0-0.4,0c0,0,0.1,0,0.1,0c0.1,0,0.1,0,0.2,0
		C5.5,5.8,5.6,5.8,5.6,5.8z"/>
	<path class="st0" d="M5.6,5.8C5.6,5.8,5.7,5.8,5.6,5.8C5.7,5.8,5.7,5.8,5.6,5.8C5.6,5.8,5.6,5.8,5.6,5.8z"/>
	<path class="st0" d="M5.6,5.8C5.6,5.8,5.6,5.8,5.6,5.8C5.6,5.8,5.6,5.8,5.6,5.8C5.6,5.8,5.6,5.8,5.6,5.8C5.6,5.8,5.6,5.8,5.6,5.8z"
		/>
	<path class="st0" d="M5.6,5.8C5.6,5.8,5.6,5.7,5.6,5.8C5.6,5.8,5.6,5.8,5.6,5.8C5.6,5.8,5.6,5.8,5.6,5.8z"/>
	<path class="st0" d="M8.7,3.9c0,0,0.1,0,0.2,0c0,0,0,0,0,0C8.8,3.9,8.7,3.9,8.7,3.9z"/>
	<path class="st0" d="M8.7,3.9c0,0,0.1,0,0.2,0c0,0,0,0,0,0C8.8,3.9,8.7,3.9,8.7,3.9c0,0,0.1,0,0.2,0c0,0,0,0,0,0
		C8.8,3.9,8.7,3.9,8.7,3.9z"/>
	<path class="st0" d="M8.9,3.9C8.9,3.9,8.9,3.9,8.9,3.9C8.9,3.9,8.9,3.9,8.9,3.9c0.1,0,0.1,0,0.2,0c0,0,0,0,0,0C9,3.9,9,3.9,8.9,3.9
		z"/>
	<path class="st0" d="M8.9,3.9C8.9,3.9,8.9,3.9,8.9,3.9C8.9,3.9,8.9,3.9,8.9,3.9c0.1,0,0.2,0,0.2,0c0,0,0,0,0,0C9,3.9,9,3.9,8.9,3.9
		z"/>
	<path class="st0" d="M8.9,3.9C8.9,3.9,8.9,3.9,8.9,3.9c0.1,0,0.2,0,0.2,0c0,0,0,0,0,0c0,0,0,0,0,0C9,3.9,9,3.9,8.9,3.9L8.9,3.9
		L8.9,3.9C8.9,3.9,8.9,3.9,8.9,3.9z"/>
	<path class="st0" d="M9.1,3.9C9.1,3.9,9.1,3.9,9.1,3.9C9.1,3.9,9.1,3.9,9.1,3.9C9.1,3.9,9.1,3.9,9.1,3.9C9.1,3.9,9.1,3.9,9.1,3.9z"
		/>
	<path class="st0" d="M9.1,3.9C9.1,3.9,9.1,3.9,9.1,3.9C9.1,3.9,9.1,3.9,9.1,3.9C9.1,3.9,9.1,3.9,9.1,3.9C9.1,3.9,9.1,3.9,9.1,3.9z"
		/>
	<path class="st0" d="M9.1,3.9C9.1,3.9,9.1,3.9,9.1,3.9C9.1,3.9,9.1,3.9,9.1,3.9C9.1,3.9,9.1,3.9,9.1,3.9z"/>
	<polygon class="st0" points="8.9,3.9 8.9,3.9 8.9,3.9 8.9,3.9 8.9,3.9 	"/>
	<path class="st0" d="M8.9,3.9C8.9,3.9,8.9,3.9,8.9,3.9L8.9,3.9C8.9,3.9,8.9,3.9,8.9,3.9C8.9,3.9,8.9,3.9,8.9,3.9z"/>
	<path class="st0" d="M8.9,3.9C8.9,3.9,8.9,3.9,8.9,3.9C8.9,3.9,8.9,3.9,8.9,3.9C8.9,3.9,8.9,3.9,8.9,3.9C8.9,3.9,8.9,3.9,8.9,3.9
		C8.9,3.9,8.9,3.9,8.9,3.9z"/>
	<path class="st0" d="M6,5.8c0.1,0,0.2,0,0.3,0c0,0,0,0,0,0C6.2,5.8,6.1,5.8,6,5.8z"/>
	<path class="st0" d="M6.1,5.8C6.1,5.8,6.2,5.8,6.1,5.8C6.2,5.8,6.1,5.8,6.1,5.8z"/>
	<path class="st0" d="M6.3,5.8C6.3,5.8,6.2,5.8,6.3,5.8C6.3,5.8,6.3,5.8,6.3,5.8C6.2,5.8,6.2,5.8,6.3,5.8c-0.1,0-0.1,0-0.1,0
		c0,0-0.1,0-0.1,0h0C6.1,5.8,6.2,5.8,6.3,5.8z"/>
	<path class="st0" d="M6.3,5.8C6.3,5.8,6.3,5.8,6.3,5.8C6.3,5.8,6.3,5.8,6.3,5.8C6.3,5.8,6.3,5.8,6.3,5.8z"/>
	<path class="st0" d="M6.2,5.8C6.2,5.8,6.3,5.8,6.2,5.8C6.3,5.8,6.3,5.8,6.2,5.8C6.3,5.8,6.3,5.8,6.2,5.8C6.3,5.8,6.3,5.8,6.2,5.8z"
		/>
	<path class="st0" d="M6.2,4.7C6.1,4.7,6.1,4.7,6.2,4.7C6.2,4.7,6.2,4.7,6.2,4.7C6.2,4.7,6.2,4.7,6.2,4.7C6.2,4.7,6.2,4.7,6.2,4.7z"
		/>
	<path class="st0" d="M6.2,4.7C6.1,4.7,6.1,4.7,6.2,4.7C6.2,4.7,6.2,4.7,6.2,4.7C6.2,4.7,6.2,4.7,6.2,4.7C6.2,4.6,6.2,4.6,6.2,4.7
		C6.2,4.6,6.1,4.6,6.2,4.7C6.1,4.7,6.2,4.7,6.2,4.7C6.2,4.7,6.2,4.7,6.2,4.7C6.2,4.7,6.2,4.7,6.2,4.7z"/>
	<path class="st0" d="M6.2,4.7C6.2,4.7,6.2,4.7,6.2,4.7C6.2,4.7,6.2,4.7,6.2,4.7C6.2,4.7,6.2,4.7,6.2,4.7C6.2,4.7,6.2,4.7,6.2,4.7z"
		/>
	<path class="st0" d="M6.2,4.7C6.2,4.7,6.2,4.7,6.2,4.7C6.2,4.7,6.2,4.7,6.2,4.7C6.2,4.6,6.2,4.6,6.2,4.7C6.2,4.7,6.2,4.7,6.2,4.7z"
		/>
	<path class="st0" d="M6.2,4.7C6.2,4.7,6.2,4.7,6.2,4.7C6.2,4.7,6.2,4.7,6.2,4.7C6.2,4.7,6.2,4.7,6.2,4.7z"/>
	<path class="st0" d="M18.8,17.9C18.8,17.9,18.8,17.9,18.8,17.9C18.9,17.9,18.9,17.9,18.8,17.9C18.8,17.9,18.8,17.9,18.8,17.9
		c-0.2,0-0.4,0-0.7,0c0,0-0.1,0-0.1,0c0,0,0,0,0,0C18.2,17.9,18.5,17.9,18.8,17.9z"/>
	<path class="st0" d="M17.8,17.9C17.8,17.9,17.8,17.9,17.8,17.9L17.8,17.9L17.8,17.9C17.8,17.9,17.8,17.9,17.8,17.9
		C17.8,17.9,17.8,17.9,17.8,17.9C17.8,17.9,17.8,17.9,17.8,17.9C17.8,17.9,17.8,17.9,17.8,17.9z"/>
	<path class="st0" d="M18.8,17.9c-0.3,0-0.6,0-0.8,0c0,0-0.1,0-0.1,0c0,0,0,0,0,0c0,0,0,0,0,0c0,0,0,0,0,0c0,0,0,0,0,0
		C18.1,18,18.5,18,18.8,17.9C18.9,17.9,18.9,17.9,18.8,17.9C18.8,17.9,18.8,17.9,18.8,17.9z"/>
	<path class="st0" d="M18.1,17.9c0.2,0,0.5,0,0.7,0c0,0,0,0,0,0c0,0,0,0,0,0c0,0,0,0,0,0C18.6,17.9,18.3,17.8,18.1,17.9
		c-0.1,0-0.1,0-0.1,0C18,17.9,18.1,17.9,18.1,17.9z"/>
	<path class="st0" d="M17.8,17.9C17.8,17.9,17.8,17.9,17.8,17.9C17.8,17.9,17.8,17.9,17.8,17.9C17.8,17.9,17.8,17.9,17.8,17.9z"/>
	<polygon class="st0" points="17.8,17.9 17.8,17.9 17.8,17.9 	"/>
	<polygon class="st0" points="17.8,17.9 17.8,17.9 17.8,17.9 17.8,17.9 17.8,17.9 17.8,17.9 	"/>
	<path class="st0" d="M17.8,17.9C17.8,17.9,17.8,17.9,17.8,17.9c0.1,0,0.2,0,0.3,0C18,17.9,17.9,17.9,17.8,17.9
		C17.8,17.9,17.8,17.9,17.8,17.9C17.8,17.9,17.8,17.9,17.8,17.9z"/>
	<polygon class="st0" points="17.8,17.9 17.8,17.9 17.8,17.9 17.8,17.9 17.8,17.9 17.8,17.9 	"/>
	<path class="st0" d="M17.8,17.9C17.8,17.9,17.8,17.9,17.8,17.9C17.8,17.9,17.8,17.9,17.8,17.9C17.8,17.9,17.8,17.9,17.8,17.9
		C17.8,17.9,17.8,17.9,17.8,17.9z"/>
	<path class="st0" d="M17.8,17.9c0,0,0.1,0,0.1,0c0,0,0,0,0,0C17.9,17.9,17.9,17.9,17.8,17.9C17.8,17.9,17.8,17.9,17.8,17.9
		C17.8,17.9,17.8,17.9,17.8,17.9C17.8,17.9,17.8,17.9,17.8,17.9z"/>
	<polygon class="st0" points="17.8,17.9 17.8,17.9 17.8,17.9 	"/>
	<path class="st0" d="M17.8,17.9c0.1,0,0.1,0,0.2,0c0,0,0.1,0,0.1,0C18,17.9,17.9,17.9,17.8,17.9C17.8,17.9,17.8,17.9,17.8,17.9z"/>
	<path class="st0" d="M17.9,17.9c0,0-0.1,0-0.1,0C17.9,17.9,17.9,17.9,17.9,17.9z"/>
	<rect x="17.8" y="17.9" class="st0" width="0" height="0"/>
	<path class="st0" d="M15.5,19.8C15.5,19.8,15.5,19.8,15.5,19.8C15.5,19.8,15.5,19.8,15.5,19.8C15.5,19.8,15.5,19.8,15.5,19.8
		c-0.1,0-0.1,0-0.2,0c0,0,0,0,0,0C15.3,19.8,15.4,19.8,15.5,19.8z"/>
	<path class="st0" d="M15.5,19.8c-0.1,0-0.1,0-0.2,0c0,0,0,0,0,0C15.3,19.8,15.4,19.8,15.5,19.8C15.5,19.8,15.5,19.8,15.5,19.8
		C15.5,19.8,15.5,19.8,15.5,19.8z"/>
	<path class="st0" d="M15.5,19.8C15.5,19.8,15.5,19.8,15.5,19.8C15.5,19.8,15.5,19.8,15.5,19.8C15.5,19.8,15.5,19.8,15.5,19.8
		c-0.1,0-0.1,0-0.2,0c0,0,0,0,0,0C15.3,19.8,15.4,19.8,15.5,19.8z"/>
	<path class="st0" d="M18.9,17.9C18.9,17.9,18.9,17.9,18.9,17.9C18.9,17.9,18.9,17.9,18.9,17.9C18.9,17.9,18.9,17.9,18.9,17.9z"/>
	<path class="st0" d="M18.9,17.9C18.9,17.9,18.9,17.9,18.9,17.9C18.9,17.9,18.9,17.9,18.9,17.9C18.9,17.9,18.9,17.9,18.9,17.9
		C18.9,18,19,18,18.9,17.9C19,17.9,18.9,17.9,18.9,17.9C18.9,17.9,18.9,17.9,18.9,17.9C18.9,17.9,18.9,17.9,18.9,17.9
		C18.9,17.9,18.9,17.9,18.9,17.9z"/>
	<path class="st0" d="M18.9,17.9C18.9,17.9,18.9,17.9,18.9,17.9C18.9,17.9,18.9,17.9,18.9,17.9C18.9,17.9,18.9,17.9,18.9,17.9
		C18.9,17.9,18.9,17.9,18.9,17.9z"/>
	<path class="st0" d="M18.9,17.9C18.9,17.9,18.9,17.9,18.9,17.9C18.9,17.9,18.9,17.9,18.9,17.9C18.9,17.9,18.9,17.9,18.9,17.9
		C18.9,17.9,18.9,17.9,18.9,17.9z"/>
	<path class="st0" d="M18.9,17.9C18.9,17.9,18.9,17.9,18.9,17.9C18.9,17.9,18.9,17.9,18.9,17.9C18.9,17.9,18.9,17.9,18.9,17.9z"/>
	<path class="st0" d="M15.3,19.8C15.3,19.8,15.3,19.8,15.3,19.8C15.3,19.8,15.3,19.8,15.3,19.8C15.3,19.8,15.3,19.8,15.3,19.8
		c-0.1,0-0.1,0-0.2,0c0,0,0,0,0,0C15.1,19.8,15.2,19.8,15.3,19.8z"/>
	<path class="st0" d="M15.3,19.8c-0.1,0-0.1,0-0.2,0c0,0,0,0,0,0c0,0,0,0,0,0C15.1,19.8,15.2,19.8,15.3,19.8
		C15.3,19.8,15.3,19.8,15.3,19.8C15.3,19.8,15.3,19.8,15.3,19.8z"/>
	<path class="st0" d="M15.3,19.8C15.3,19.8,15.3,19.8,15.3,19.8C15.3,19.8,15.3,19.8,15.3,19.8C15.3,19.8,15.3,19.8,15.3,19.8
		c-0.1,0-0.1,0-0.2,0c0,0,0,0,0,0C15.1,19.8,15.2,19.8,15.3,19.8z"/>
	<path class="st0" d="M15.1,19.8C15.1,19.8,15.1,19.8,15.1,19.8C15.1,19.8,15.1,19.8,15.1,19.8C15.1,19.8,15.1,19.8,15.1,19.8
		C15.1,19.8,15.1,19.8,15.1,19.8z"/>
	<path class="st0" d="M15.1,19.8C15.1,19.8,15.1,19.8,15.1,19.8C15.1,19.8,15.1,19.8,15.1,19.8C15.1,19.8,15.1,19.8,15.1,19.8
		C15.1,19.8,15.1,19.8,15.1,19.8z"/>
	<path class="st0" d="M15.1,19.8C15.1,19.8,15.1,19.8,15.1,19.8C15.1,19.8,15.1,19.8,15.1,19.8C15.1,19.8,15.1,19.8,15.1,19.8z"/>
	<polygon class="st0" points="15.3,19.8 15.3,19.8 15.3,19.8 15.3,19.8 	"/>
	<path class="st0" d="M15.3,19.8C15.3,19.8,15.3,19.8,15.3,19.8C15.3,19.8,15.3,19.8,15.3,19.8C15.3,19.8,15.3,19.8,15.3,19.8z"/>
	<path class="st0" d="M15.3,19.8C15.3,19.8,15.3,19.8,15.3,19.8C15.3,19.8,15.3,19.8,15.3,19.8C15.3,19.8,15.3,19.8,15.3,19.8
		C15.3,19.8,15.3,19.8,15.3,19.8z"/>
	<path class="st0" d="M15.5,19.8C15.5,19.8,15.5,19.8,15.5,19.8C15.5,19.8,15.6,19.8,15.5,19.8C15.6,19.8,15.6,19.8,15.5,19.8
		C15.6,19.8,15.5,19.8,15.5,19.8z"/>
	<path class="st0" d="M15.5,19.8C15.5,19.8,15.5,19.8,15.5,19.8C15.5,19.8,15.5,19.8,15.5,19.8C15.5,19.8,15.5,19.8,15.5,19.8
		C15.5,19.8,15.6,19.8,15.5,19.8C15.6,19.8,15.5,19.8,15.5,19.8z"/>
	<path class="st0" d="M15.6,19.8C15.6,19.8,15.6,19.8,15.6,19.8C15.6,19.7,15.5,19.8,15.6,19.8C15.5,19.7,15.5,19.8,15.6,19.8
		C15.5,19.8,15.5,19.8,15.6,19.8C15.5,19.8,15.5,19.8,15.6,19.8C15.5,19.8,15.6,19.8,15.6,19.8z"/>
	<path class="st0" d="M15.5,19.8C15.5,19.8,15.5,19.8,15.5,19.8C15.5,19.8,15.5,19.8,15.5,19.8C15.5,19.8,15.5,19.8,15.5,19.8
		C15.5,19.8,15.5,19.8,15.5,19.8z"/>
	<path class="st0" d="M15.5,19.8C15.5,19.8,15.5,19.8,15.5,19.8C15.5,19.8,15.5,19.8,15.5,19.8C15.5,19.8,15.5,19.8,15.5,19.8z"/>
	<path class="st0" d="M15.5,19.8C15.5,19.8,15.5,19.8,15.5,19.8C15.5,19.8,15.5,19.8,15.5,19.8C15.5,19.8,15.5,19.8,15.5,19.8
		C15.5,19.8,15.5,19.8,15.5,19.8z"/>
	<path class="st0" d="M18,19C18,19,18,19,18,19C18,19,18,19,18,19C18,19,18,19,18,19z"/>
	<path class="st0" d="M18,19C18,19,18,19,18,19C18,19,18,19,18,19C18,19,18,19,18,19C18,19,18.1,19,18,19C18.1,19,18,19,18,19
		C18,19,18,19,18,19C18,19,18,19,18,19z"/>
	<path class="st0" d="M18,19C18,19,18,19,18,19C18,19,18,19,18,19C18,19,18,19,18,19z"/>
	<polygon class="st0" points="18,19 18,19 18,19 18,19 	"/>
	<path class="st0" d="M18,19C18,19,18,19,18,19C18,19,18,19,18,19C18,19,18,19,18,19C18,19,18,19,18,19z"/>
</g>
</svg>
