<?xml version="1.0" encoding="utf-8"?>
<!-- Generator: Adobe Illustrator 22.1.0, SVG Export Plug-In . SVG Version: 6.00 Build 0)  -->
<svg version="1.1" id="Layer_1" xmlns="http://www.w3.org/2000/svg" xmlns:xlink="http://www.w3.org/1999/xlink" x="0px" y="0px"
	 viewBox="0 0 489.8 204.2" style="enable-background:new 0 0 489.8 204.2;" xml:space="preserve">
<style type="text/css">
	.st0{fill:#FFFFFF;}
	.st1{fill:#CC0000;}
</style>
<rect x="69.4" y="64.2" class="st0" width="75.6" height="75.6"/>
<path class="st1" d="M155.4,102L155.4,102c0-7.5,0.3-14.1,5.8-25.8c1.6-3.4,5.1-8.4-0.1-14.2c-4.2-4.2-9-3.5-12.3-1.7
	c1.9-3.2,2.6-8.1-1.7-12.3c-5.8-5.2-10.8-1.7-14.2-0.1c-11.7,5.5-18.4,5.9-25.8,5.9h0c-7.5,0-14.1-0.3-25.8-5.9
	c-3.4-1.6-8.4-5.1-14.2,0.1c-4.2,4.2-3.5,9-1.7,12.3c-3.2-1.9-8.1-2.6-12.3,1.7c-5.2,5.8-1.7,10.8-0.1,14.2
	C58.7,87.9,59,94.5,59,102l0,0c0,7.5-0.3,14.1-5.8,25.9c-1.6,3.4-5.1,8.4,0.1,14.2c4.2,4.2,9,3.5,12.3,1.7c-1.9,3.2-2.6,8,1.7,12.3
	c5.8,5.2,10.8,1.7,14.2,0.1c11.7-5.5,18.4-5.8,25.8-5.8l0,0c7.5,0,14.1,0.3,25.8,5.8c3.4,1.6,8.4,5.2,14.2-0.1
	c4.2-4.2,3.5-9,1.7-12.3c3.2,1.8,8.1,2.6,12.3-1.7c5.2-5.8,1.7-10.8,0.1-14.2C155.7,116.1,155.4,109.5,155.4,102z M142.5,137.5
	l-27.5-23c0,0-3.7-3.6-7.9-3.6c-4.2,0-7.9,3.6-7.9,3.6l-27.4,23l-0.1-0.1l23.1-27.5c0,0,3.6-3.7,3.6-7.9c0-4.2-3.6-7.9-3.6-7.9
	L71.7,66.6l0.1-0.1l27.5,23.1c0,0,3.7,3.6,7.9,3.6c4.2,0,7.9-3.6,7.9-3.6l27.4-23l0.1,0.1l-23,27.5c0,0-3.6,3.7-3.6,7.9
	c0,4.2,3.6,7.9,3.6,7.9L142.5,137.5L142.5,137.5z"/>
<path d="M431.8,51.9l1,0l0.4,18l-1.1,0c-1.8-7.3-8.8-14.2-22.9-15c-16.7-0.9-23.9,9.1-24,18.5c-0.1,12.5,9.6,15.1,24.1,18.6
	c6.8,1.7,32,5,30,33.3c-1.4,19.8-18.5,29.2-42.7,28.4c0,0-10-0.3-24.1-4.2c-2.6-0.7-3.3,0.1-4.4,2.1l-1.1,0.1l0-19.4l1.1,0.1
	c0.6,2,0.7,5.6,4.3,8.7c2.6,2.3,8.7,7.9,22.1,8.1c13.1,0.2,24-5.4,25.5-20.1c0.4-4-0.1-13-8.9-17.2c-6.9-3.2-26.1-5.4-35.4-13.5
	c0,0-11-7.7-9.3-22c2.5-20.3,19.4-25.4,34.6-25.7c0,0,13.6-0.1,24.5,2.7c0,0,2.7,0.7,4.9-0.1C431.1,52.8,431.5,52.2,431.8,51.9z
	 M336.7,98.6c24.7,6.1,26.2,24,25.9,29c-1.1,22.3-20.1,24.9-27.7,24.9h-58.3l0.1-1.1c4.2-0.6,7.4-2.9,7.4-10.3l0.4-76.9
	c0.1-8.4-2.1-10.9-6.7-11.4l-0.1-1.1h44.1c8.1,0,32.4-1.6,34.5,20.8C357.8,90.3,338.1,97.8,336.7,98.6z M343.2,127.7
	c0.5-21.7-15.4-27.4-31.9-28.3c-0.3,0-0.2-0.8,0-0.9c5.4-0.2,26.6-2.7,25.7-23c-0.9-19.8-15.9-20.2-21.4-20.3c-4.5,0-5.5,0-7.3,0
	c-3.2,0.1-4,0.4-4,3.8c0,0.4-0.7,35.7-1.1,60.4c-0.2,13.5-0.2,23.8-0.2,23.8c0.1,2.4-0.3,4.9,5.8,5.2c6.3,0.3,14.4,0.6,20-0.6
	C334,146.8,342.9,143,343.2,127.7z M227,51.6c21-0.1,48.7,14.3,48.6,50.3c-0.1,31.3-22.7,50.6-43.6,50.6l-53,0l0.1-1.1
	c3-0.5,6.3-2.4,6.9-4.4c1.8-7.6,1.4-76.6,0.3-87.9c-0.3-3.5-3.1-5.8-6.6-6.4l-0.1-1.1C179.5,51.6,222.3,51.6,227,51.6z M236.6,145.9
	c9.4-3.4,21-19.4,19.1-44.7c-1.9-24.5-11.2-43.7-36-45.5c0,0-4.7-0.3-8.6-0.4c-4.2,0-5.2-0.2-5.4,4.3c-0.6,8.4-0.7,74.2-0.2,83.7
	c0.1,1.3,0.2,4.4,5.7,5C221,149.4,229.2,148.6,236.6,145.9z"/>
</svg>
