<?xml version="1.0" encoding="UTF-8" standalone="no"?>
<!-- Generator: Adobe Illustrator 16.0.4, SVG Export Plug-In . SVG Version: 6.00 Build 0)  -->

<svg
   xmlns:dc="http://purl.org/dc/elements/1.1/"
   xmlns:cc="http://creativecommons.org/ns#"
   xmlns:rdf="http://www.w3.org/1999/02/22-rdf-syntax-ns#"
   xmlns:svg="http://www.w3.org/2000/svg"
   xmlns="http://www.w3.org/2000/svg"
   xmlns:sodipodi="http://sodipodi.sourceforge.net/DTD/sodipodi-0.dtd"
   xmlns:inkscape="http://www.inkscape.org/namespaces/inkscape"
   version="1.1"
   id="Layer_1"
   x="0px"
   y="0px"
   width="592.35901"
   height="70.036003"
   viewBox="0 0 592.35901 70.036003"
   enable-background="new 0 0 648 108"
   xml:space="preserve"
   inkscape:version="0.48.4 r9939"
   sodipodi:docname="Interactive_Brokers_Logo_(2014).svg"><metadata
   id="metadata53"><rdf:RDF><cc:Work
       rdf:about=""><dc:format>image/svg+xml</dc:format><dc:type
         rdf:resource="http://purl.org/dc/dcmitype/StillImage" /></cc:Work></rdf:RDF></metadata><defs
   id="defs51" /><sodipodi:namedview
   pagecolor="#ffffff"
   bordercolor="#666666"
   borderopacity="1"
   objecttolerance="10"
   gridtolerance="10"
   guidetolerance="10"
   inkscape:pageopacity="0"
   inkscape:pageshadow="2"
   inkscape:window-width="1920"
   inkscape:window-height="1058"
   id="namedview49"
   showgrid="false"
   inkscape:zoom="1.248349"
   inkscape:cx="266.42944"
   inkscape:cy="-139.96813"
   inkscape:window-x="-8"
   inkscape:window-y="-8"
   inkscape:window-maximized="1"
   inkscape:current-layer="Layer_1"
   fit-margin-bottom="12"
   fit-margin-left="12"
   fit-margin-top="12"
   fit-margin-right="12" />
<path
   d="m 12,13.861 h 4.901 v 43.43 H 12 v -43.43 z"
   id="path3"
   inkscape:connector-curvature="0"
   style="fill:#231f20" />
<path
   d="m 28.811,25.214 h 4.777 v 5.584 c 2.109,-3.475 5.46,-6.266 10.981,-6.266 7.755,0 12.285,5.211 12.285,12.842 V 57.29 H 52.077 V 38.554 c 0,-5.957 -3.226,-9.68 -8.872,-9.68 -5.522,0 -9.617,4.033 -9.617,10.052 V 57.29 H 28.811 V 25.214 z"
   id="path5"
   inkscape:connector-curvature="0"
   style="fill:#231f20" />
<path
   d="M 68.703,48.791 V 29.433 h -4.467 v -4.219 h 4.467 v -9.678 h 4.777 v 9.678 h 10.175 v 4.219 H 73.48 V 48.17 c 0,3.909 2.171,5.335 5.397,5.335 1.613,0 2.978,-0.31 4.653,-1.116 v 4.095 c -1.675,0.869 -3.474,1.365 -5.77,1.365 -5.149,0 -9.057,-2.544 -9.057,-9.058 z"
   id="path7"
   inkscape:connector-curvature="0"
   style="fill:#231f20" />
<path
   d="m 105.313,53.878 c 4.405,0 7.507,-1.799 10.113,-4.529 l 2.978,2.668 c -3.226,3.598 -7.135,6.018 -13.215,6.018 -8.81,0 -16.007,-6.762 -16.007,-16.751 0,-9.307 6.515,-16.751 15.387,-16.751 9.492,0 14.952,7.568 14.952,16.999 0,0.435 0,0.931 -0.062,1.675 H 94.021 c 0.683,6.763 5.646,10.671 11.292,10.671 z m 9.368,-14.517 c -0.558,-5.832 -3.909,-10.796 -10.237,-10.796 -5.522,0 -9.741,4.591 -10.423,10.796 h 20.66 z"
   id="path9"
   inkscape:connector-curvature="0"
   style="fill:#231f20" />
<path
   d="m 127.895,25.214 h 4.777 v 8.376 c 2.358,-5.335 7.011,-9.183 13.091,-8.935 v 5.15 h -0.372 c -7.011,0 -12.719,5.025 -12.719,14.703 v 12.781 h -4.777 V 25.214 z"
   id="path11"
   inkscape:connector-curvature="0"
   style="fill:#231f20" />
<path
   d="M 149.056,47.984 V 47.86 c 0,-6.886 5.584,-10.485 13.711,-10.485 4.095,0 6.949,0.559 9.803,1.365 v -0.992 c 0,-5.708 -3.475,-8.686 -9.493,-8.686 -3.785,0 -6.763,0.93 -9.741,2.295 l -1.427,-3.908 c 3.536,-1.613 6.949,-2.73 11.664,-2.73 4.529,0 8.065,1.24 10.361,3.537 2.233,2.232 3.35,5.335 3.35,9.43 v 19.605 h -4.715 v -4.778 c -2.234,2.854 -5.894,5.46 -11.54,5.46 -6.017,0 -11.973,-3.413 -11.973,-9.989 z m 23.576,-2.482 v -2.978 c -2.358,-0.684 -5.46,-1.365 -9.369,-1.365 -5.956,0 -9.368,2.605 -9.368,6.452 v 0.124 c 0,4.033 3.723,6.391 8.065,6.391 5.895,0 10.672,-3.537 10.672,-8.624 z"
   id="path13"
   inkscape:connector-curvature="0"
   style="fill:#231f20" />
<path
   d="m 185.411,41.408 v -0.124 c 0,-9.058 7.073,-16.751 16.441,-16.751 6.08,0 9.865,2.543 12.843,5.707 l -3.164,3.351 c -2.544,-2.668 -5.398,-4.839 -9.741,-4.839 -6.515,0 -11.478,5.521 -11.478,12.408 v 0.124 c 0,6.948 5.087,12.47 11.788,12.47 4.095,0 7.259,-2.047 9.803,-4.776 l 3.04,2.854 c -3.226,3.599 -7.073,6.204 -13.091,6.204 -9.368,-0.001 -16.441,-7.632 -16.441,-16.628 z"
   id="path15"
   inkscape:connector-curvature="0"
   style="fill:#231f20" />
<path
   d="M 224.497,48.791 V 29.433 h -4.467 v -4.219 h 4.467 v -9.678 h 4.777 v 9.678 h 10.175 v 4.219 H 229.274 V 48.17 c 0,3.909 2.171,5.335 5.397,5.335 1.613,0 2.978,-0.31 4.653,-1.116 v 4.095 c -1.675,0.869 -3.474,1.365 -5.77,1.365 -5.149,0 -9.057,-2.544 -9.057,-9.058 z"
   id="path17"
   inkscape:connector-curvature="0"
   style="fill:#231f20" />
<path
   d="m 248.009,12.93 h 5.46 v 5.274 h -5.46 V 12.93 z m 0.31,12.284 h 4.777 V 57.29 h -4.777 V 25.214 z"
   id="path19"
   inkscape:connector-curvature="0"
   style="fill:#231f20" />
<path
   d="m 261.037,25.214 h 5.274 l 10.795,26.616 10.857,-26.616 h 5.148 l -13.959,32.324 h -4.219 L 261.037,25.214 z"
   id="path21"
   inkscape:connector-curvature="0"
   style="fill:#231f20" />
<path
   d="m 312.901,53.878 c 4.404,0 7.506,-1.799 10.111,-4.529 l 2.979,2.668 c -3.227,3.598 -7.135,6.018 -13.215,6.018 -8.811,0 -16.008,-6.762 -16.008,-16.751 0,-9.307 6.516,-16.751 15.387,-16.751 9.492,0 14.953,7.568 14.953,16.999 0,0.435 0,0.931 -0.062,1.675 h -25.438 c 0.684,6.763 5.646,10.671 11.293,10.671 z m 9.367,-14.517 c -0.559,-5.832 -3.908,-10.796 -10.236,-10.796 -5.521,0 -9.74,4.591 -10.424,10.796 h 20.66 z"
   id="path23"
   inkscape:connector-curvature="0"
   style="fill:#231f20" />
<path
   d="m 354.901,13.861 h 18.488 c 4.963,0 8.871,1.427 11.354,3.847 1.799,1.861 2.791,4.157 2.791,6.948 v 0.125 c 0,5.646 -3.475,8.562 -6.887,10.051 5.15,1.551 9.307,4.529 9.307,10.484 v 0.125 c 0,7.445 -6.266,11.85 -15.758,11.85 h -19.295 v -43.43 z m 17.682,19.357 c 5.893,0 9.988,-2.668 9.988,-7.756 v -0.123 c 0,-4.281 -3.412,-7.073 -9.617,-7.073 h -13.215 v 14.952 h 12.844 z m 1.736,19.668 c 6.576,0 10.672,-2.916 10.672,-7.756 v -0.124 c 0,-4.716 -3.971,-7.445 -11.541,-7.445 h -13.711 v 15.325 h 14.58 z"
   id="path25"
   inkscape:connector-curvature="0"
   style="fill:#231f20" />
<path
   d="m 398.885,25.214 h 4.777 v 8.376 c 2.357,-5.335 7.012,-9.183 13.092,-8.935 v 5.15 h -0.373 c -7.012,0 -12.719,5.025 -12.719,14.703 v 12.781 h -4.777 V 25.214 z"
   id="path27"
   inkscape:connector-curvature="0"
   style="fill:#231f20" />
<path
   d="m 420.663,41.408 v -0.124 c 0,-9.058 7.072,-16.751 16.752,-16.751 9.615,0 16.689,7.568 16.689,16.627 v 0.124 c 0,9.058 -7.135,16.751 -16.814,16.751 -9.616,0 -16.627,-7.569 -16.627,-16.627 z m 28.539,0 v -0.124 c 0,-6.887 -5.148,-12.532 -11.912,-12.532 -6.947,0 -11.725,5.646 -11.725,12.408 v 0.124 c 0,6.887 5.086,12.47 11.85,12.47 6.949,-10e-4 11.787,-5.584 11.787,-12.346 z"
   id="path29"
   inkscape:connector-curvature="0"
   style="fill:#231f20" />
<path
   d="m 462.725,12 h 4.777 v 31.27 l 17.311,-18.055 h 5.955 l -13.463,13.773 13.898,18.303 h -5.709 l -11.479,-14.952 -6.514,6.577 v 8.375 h -4.777 V 12 z"
   id="path31"
   inkscape:connector-curvature="0"
   style="fill:#231f20" />
<path
   d="m 510.626,53.878 c 4.406,0 7.508,-1.799 10.113,-4.529 l 2.979,2.668 c -3.227,3.598 -7.135,6.018 -13.215,6.018 -8.811,0 -16.008,-6.762 -16.008,-16.751 0,-9.307 6.514,-16.751 15.387,-16.751 9.492,0 14.951,7.568 14.951,16.999 0,0.435 0,0.931 -0.061,1.675 h -25.438 c 0.682,6.763 5.645,10.671 11.292,10.671 z m 9.369,-14.517 c -0.559,-5.832 -3.908,-10.796 -10.238,-10.796 -5.521,0 -9.74,4.591 -10.422,10.796 h 20.66 z"
   id="path33"
   inkscape:connector-curvature="0"
   style="fill:#231f20" />
<path
   d="m 533.208,25.214 h 4.777 v 8.376 c 2.357,-5.335 7.012,-9.183 13.092,-8.935 v 5.15 h -0.373 c -7.012,0 -12.719,5.025 -12.719,14.703 v 12.781 h -4.777 V 25.214 z"
   id="path35"
   inkscape:connector-curvature="0"
   style="fill:#231f20" />
<path
   d="m 555.667,53.196 2.42,-3.413 c 3.473,2.606 7.32,4.096 11.105,4.096 3.846,0 6.637,-1.985 6.637,-5.088 v -0.124 c 0,-3.226 -3.783,-4.467 -8.002,-5.646 -5.025,-1.428 -10.609,-3.164 -10.609,-9.059 v -0.124 c 0,-5.521 4.59,-9.183 10.92,-9.183 3.908,0 8.25,1.365 11.539,3.537 l -2.172,3.598 c -2.979,-1.923 -6.391,-3.102 -9.492,-3.102 -3.785,0 -6.205,1.985 -6.205,4.653 v 0.124 c 0,3.04 3.971,4.219 8.252,5.521 4.965,1.489 10.299,3.412 10.299,9.183 v 0.124 c 0,6.08 -5.025,9.617 -11.414,9.617 -4.593,0.002 -9.681,-1.798 -13.278,-4.714 z"
   id="path37"
   inkscape:connector-curvature="0"
   style="fill:#231f20" />

</svg>