<svg id="Layer_1" data-name="Layer 1" xmlns="http://www.w3.org/2000/svg" viewBox="0 0 342.14 67.33"><defs><style>.cls-1{fill:#00559e;}.cls-2{fill:#fff;}</style></defs><title>julius_bar</title><path class="cls-1" d="M247.77,24.1c1.63.38,3.16.65,4.65,1.09,6.1,1.78,9.31,5.85,9.7,12.21a20.81,20.81,0,0,1-.35,5.4c-1.2,6-5.21,9.27-12,10a48.89,48.89,0,0,1-5.41.28q-11.12,0-22.24,0c-.83,0-1.3-.06-1.27-1.11s.3-1.25,1.23-1.18,1.81-.06,2.7,0c1.05.11,1.22-.33,1.22-1.28q0-23,0-46.06c0-1-.27-1.34-1.27-1.24-.84.08-1.71,0-2.56,0s-1.31-.16-1.34-1.22.6-1,1.34-1c7.65,0,15.3,0,23,0a22.25,22.25,0,0,1,3.82.35c5.73,1,8.78,4.45,9.2,10.29.46,6.46-2.41,10.73-8.57,12.76C249,23.65,248.42,23.87,247.77,24.1Z"/><path class="cls-1" d="M51.39,46.56a13.13,13.13,0,0,1-6.82,6.31,16.17,16.17,0,0,1-11.16.28c-3.69-1.21-5.64-4.23-5.68-8.79q-.09-12,0-23.95c0-1.36-.41-1.76-1.65-1.58-.38.06-.77,0-1.14,0-.82.08-1.27,0-1.27-1.09s.4-1.21,1.32-1.2c3.09.05,6.18.08,9.27,0,1.19,0,1.38.39,1.37,1.45,0,7.94,0,15.87,0,23.81,0,1,0,2.09.07,3.14.25,4.69,3.13,6.82,7.73,5.72a9.19,9.19,0,0,0,6-4.68,14.89,14.89,0,0,0,1.94-7.21c.07-6.32,0-12.64.06-19,0-.87-.31-1-1.07-1s-1.63-.08-2.42,0c-1.31.19-1.48-.44-1.4-1.52,0-.67.3-.77.87-.77,3.66,0,7.32.06,11,0,1.22,0,1,.72,1,1.39,0,10.41,0,20.82,0,31.22,0,1.41.36,1.86,1.71,1.67.7-.1,1.44.07,2.13,0,1.33-.2,1.5.47,1.4,1.54-.05.53-.16.75-.73.75-3.9,0-7.79,0-11.69,0-.71,0-.74-.35-.73-.88C51.4,50.48,51.39,48.74,51.39,46.56Z"/><path class="cls-1" d="M145,47.09a14.65,14.65,0,0,1-6.61,5.7,16.2,16.2,0,0,1-11.29.39c-3.89-1.26-5.75-4.3-5.79-9.47q-.09-11.61,0-23.24c0-1.43-.41-1.85-1.73-1.64-.37.06-.77,0-1.14,0-1,.14-1.17-.29-1.19-1.19s.32-1.11,1.16-1.1c3.14.05,6.28.07,9.41,0,1.1,0,1.42.24,1.41,1.39-.05,8.12,0,16.25,0,24.38a21,21,0,0,0,.15,3.27c.68,4.42,3.36,6.14,7.75,5a9.2,9.2,0,0,0,6-4.87,14.73,14.73,0,0,0,1.81-7c0-6.32,0-12.64.06-19,0-.82-.24-1.09-1-1s-1.63-.07-2.42,0c-1.27.17-1.54-.39-1.44-1.52.06-.66.33-.77.89-.76,3.71,0,7.41,0,11.12,0,1,0,.8.56.8,1.12V29.94c0,6.42.05,12.84,0,19.25,0,1.44.41,1.81,1.73,1.65.84-.11,1.72,0,2.56,0s1,.41,1,1.12.15,1.2-.89,1.18c-3.8-.06-7.6,0-11.4,0-.73,0-.88-.29-.87-.93C145,50.47,145,48.78,145,47.09Z"/><path class="cls-1" d="M292,48.78c-.2.09-.31.1-.36.17-3.84,5.16-9.16,5.64-14.86,4.55A7.27,7.27,0,0,1,271,47.89a17,17,0,0,1-.42-7.06c.57-4.15,3.24-6.57,7.07-7.71S285.48,31,289.42,30c2.83-.76,2.83-.79,2.79-3.63,0-.81,0-1.62-.08-2.42-.24-4.63-2.47-6.5-7.06-5.9A4.32,4.32,0,0,0,280.86,22a8.09,8.09,0,0,0-.15,1.7c.05,3.44-1.73,4.62-5.57,3.86a2.29,2.29,0,0,1-1.87-2.37,7.69,7.69,0,0,1,4.58-7.69c3.63-1.77,7.5-1.91,11.42-1.61a23.18,23.18,0,0,1,3.1.46c5,1.07,7.64,4.15,7.71,9.3.08,6.32,0,12.64,0,19a17.8,17.8,0,0,0,.2,3.26c.38,2.06,1.14,2.79,3.19,3a5.52,5.52,0,0,0,1.28,0c1-.14,1.19.29,1.21,1.19s-.3,1.12-1.15,1.1c-2-.07-3.9,0-5.84,0C295.83,53,293.06,52.27,292,48.78Z"/><path class="cls-1" d="M14.47,29.85c-.13,7.28.3,16.32-.18,25.33C13.9,62.6,8.31,67.57,1,67.32c-.46,0-1.06.1-.92-.66.1-.56-.48-1.37.58-1.63,2.56-.61,3.65-2.53,4.24-4.86a31.73,31.73,0,0,0,.78-7.64c0-16.29,0-32.59,0-48.89,0-1.15-.35-1.51-1.44-1.38-.65.08-1.34-.06-2,0C1,2.48.77,1.9.86.78.91.1,1.18,0,1.73,0c3.94,0,7.89,0,11.83,0,1.13,0,.91.68.91,1.3Z"/><path class="cls-1" d="M164.08,46.87c0-1.24,0-2.47,0-3.71,0-.48-.32-1.33.67-1.18.81.13,2.09-.75,2.3,1a10.85,10.85,0,0,0,1,3.12,9.77,9.77,0,0,0,13.59,4.5c4.06-2.23,4.39-7.09.67-9.81a24.87,24.87,0,0,0-5.9-2.78,45,45,0,0,1-5.49-2.33c-4.55-2.5-6.36-5.9-5.65-10.62a10.6,10.6,0,0,1,8.86-9c4.67-.91,9,.42,13.36,1.88.58.19.53.57.53,1q0,3.21,0,6.41c0,.43.19,1.11-.6,1s-1.67.6-2-.63a13.69,13.69,0,0,0-1.48-3.53,8.44,8.44,0,0,0-10.67-2.95A4.7,4.7,0,0,0,172.6,27a15.75,15.75,0,0,0,5,2.41,53.35,53.35,0,0,1,7.4,2.91,10.77,10.77,0,0,1,6,10.49c-.1,4.46-2.49,7.44-6.32,9.39-4.23,2.16-8.71,2-13.24,1.37a41.78,41.78,0,0,1-6.48-1.62,1,1,0,0,1-.87-1.2C164.13,49.44,164.08,48.15,164.08,46.87Z"/><path class="cls-1" d="M83,25.46c0,8,0,16,0,23.94,0,1.21.33,1.58,1.49,1.44.85-.1,1.72,0,2.57,0s1.17.24,1.2,1.18-.43,1.11-1.26,1.1c-5.08,0-10.16,0-15.24,0-.93,0-1.22-.24-1.21-1.18s.28-1.16,1.15-1.12c1.07.05,2.53.36,3.14-.2s.24-2.14.24-3.26c0-14.53,0-29.07,0-43.6,0-1.18-.27-1.65-1.47-1.47-.56.09-1.14,0-1.71,0-.83.05-1.4,0-1.4-1.14S71.09,0,71.93,0c3.18,0,6.36.07,9.54,0,1.2,0,1.6.2,1.59,1.52C83,9.5,83,17.48,83,25.46Z"/><path class="cls-1" d="M324.06,28.37c1.42-2.28,2.65-4.53,4.21-6.57a22.05,22.05,0,0,1,2.9-3.13c3.15-2.83,6.75-2.55,10.47-1.57.66.17.51.53.4,1-.44,1.55-.89,3.1-1.3,4.66-.15.59-.42.74-1,.59a10.56,10.56,0,0,0-1.69-.22c-7.36-.54-11.78,2.77-13.41,10a26.37,26.37,0,0,0-.58,5.94c0,3.56,0,7.13,0,10.69,0,.77.16,1.13,1,1.06s1.81.05,2.71,0,1.18.23,1.19,1.17-.43,1.12-1.26,1.12c-5,0-10.07,0-15.11,0-.94,0-1.21-.26-1.21-1.19s.38-1.09,1.19-1.07c1.13,0,2.62.38,3.3-.19s.26-2.22.26-3.39c0-9,0-18,0-27.08,0-1-.18-1.48-1.31-1.36s-2,0-3,0-.95-.45-.94-1.13-.09-1.18.9-1.16c3.75,0,7.51,0,11.26,0,.86,0,1,.31,1,1.07,0,3.13,0,6.27,0,9.41Z"/><path class="cls-1" d="M107,33.67c0,5.18.06,10.35,0,15.53,0,1.44.41,1.81,1.73,1.64.84-.1,1.71,0,2.56,0s1,.42,1,1.12.12,1.18-.9,1.17c-5.27-.05-10.54,0-15.81,0-.87,0-.93-.4-.88-1s-.22-1.31.83-1.25c.75,0,1.53-.07,2.27,0,1.19.16,1.37-.37,1.37-1.43q-.06-14.59,0-29.2c0-1.15-.32-1.52-1.42-1.38-.56.08-1.14,0-1.71,0-.83.06-1.4,0-1.39-1.13s.55-1.15,1.39-1.14c3.23,0,6.46.07,9.69,0,1.19,0,1.37.39,1.36,1.44C107,23.22,107,28.45,107,33.67Z"/><path class="cls-1" d="M299.19,5.26a4.67,4.67,0,1,1-9.33,0,4.67,4.67,0,0,1,9.33,0Z"/><path class="cls-1" d="M284.43,5.25a4.63,4.63,0,1,1-4.66-4.6A4.66,4.66,0,0,1,284.43,5.25Z"/><path class="cls-1" d="M98.43,5.24A4.62,4.62,0,1,1,102.94,10,4.66,4.66,0,0,1,98.43,5.24Z"/><path class="cls-2" d="M234.76,38c0-3.75,0-7.5,0-11.25,0-.94.16-1.35,1.22-1.3,2.94.15,5.88-.16,8.82.2a8.18,8.18,0,0,1,7.3,6.26,22.68,22.68,0,0,1,.23,11.82c-1.08,4.48-4.34,6.91-9.29,7.09-2.42.08-4.84,0-7.26.06-.83,0-1-.28-1-1.06C234.78,45.84,234.76,41.9,234.76,38Z"/><path class="cls-2" d="M234.76,12.44c0-3,0-6,0-9,0-.89.18-1.26,1.16-1.21,1.7.09,3.42,0,5.13,0,4.55,0,6.62,1.77,7.52,6.31a22.85,22.85,0,0,1,.12,8.08c-.67,4.14-2.92,6-7.25,6.12-1.85,0-3.71,0-5.56,0-.89,0-1.13-.25-1.12-1.12C234.79,18.61,234.76,15.52,234.76,12.44Z"/><path class="cls-2" d="M292.62,36.3a21.65,21.65,0,0,1-1.42,9.21c-1.18,2.81-2.87,5.14-6.17,5.69-2.25.38-4-.5-4.71-2.67a18.73,18.73,0,0,1-.11-10.92,4.68,4.68,0,0,1,3.22-3.18c2.78-.93,5.59-1.76,8.39-2.65.68-.21.82.07.81.68C292.6,33.6,292.62,34.74,292.62,36.3Z"/></svg>