<svg id="Layer_1" data-name="Layer 1" xmlns="http://www.w3.org/2000/svg" viewBox="0 0 128.43 12.33"><defs><style>.cls-1{fill:#103954;}.cls-2{fill:#8496a3;}.cls-3{fill:#8596a4;}.cls-4{fill:#90a0ac;}.cls-5{fill:#8e9faa;}.cls-6{fill:#8d9da9;}.cls-7{fill:#a2b1ba;}.cls-8{fill:#fff;}.cls-9{fill:#fefefe;}.cls-10{fill:#fafbfb;}.cls-11{fill:#fdfefe;}.cls-12{fill:#fdfdfe;}.cls-13{fill:#a1afb8;}.cls-14{fill:#113954;}</style></defs><title>rothschild</title><path class="cls-1" d="M47,0a3.31,3.31,0,0,0,.88.15,4.87,4.87,0,0,1,3.9,3.92,7.54,7.54,0,0,1-.49,5.1,5.15,5.15,0,0,1-3.87,3A6.78,6.78,0,0,1,44.22,12a4.69,4.69,0,0,1-3.35-3.56,7.53,7.53,0,0,1,.49-5.38A5.05,5.05,0,0,1,45.42.12.87.87,0,0,0,45.89,0h.38a.89.89,0,0,0,.51,0Z"/><path class="cls-1" d="M128.43,6.23c-.12,0-.07.14-.08.22a6.15,6.15,0,0,1-1.62,3.73,5.91,5.91,0,0,1-3.83,1.89c-1.64.16-3.28-.05-4.94,0A11,11,0,0,0,118.31,8c0-2,0-3.92,0-5.88a3.45,3.45,0,0,0-.39-1.84l1.15-.05a31,31,0,0,1,4.31,0A5.58,5.58,0,0,1,127,1.77a4.94,4.94,0,0,1,1.34,2.81,1.63,1.63,0,0,0,.13.69v.32c-.06,0,0,.12,0,.18s0,.1,0,.14Z"/><path class="cls-1" d="M78.43.05l1.8.12c.12,0,.23,0,.23.18,0,.5,0,1,0,1.57a4.26,4.26,0,0,0-1.82-1,2.72,2.72,0,0,0-2,.14,1.86,1.86,0,0,0-.15,3.17c.88.65,1.86,1.13,2.77,1.72a3.73,3.73,0,0,1,1.51,1.71A3.29,3.29,0,0,1,78.52,12a5.38,5.38,0,0,1-1.43.26c-.06,0-.11,0-.13.07h-.19a.24.24,0,0,0-.26,0h-.44c-.49-.11-1-.2-1.46-.33-.31-.07-.6-.19-.91-.28a.21.21,0,0,1-.16-.23V9.84c.12,0,.14.07.17.13a3.52,3.52,0,0,0,3.38,1.53,2.34,2.34,0,0,0,1.73-.87,2.19,2.19,0,0,0-.37-3,16.11,16.11,0,0,0-2-1.29,8.74,8.74,0,0,1-1.64-1.2A2.9,2.9,0,0,1,75.45.56,5.08,5.08,0,0,1,77.14.05,9.26,9.26,0,0,1,78.43.05Z"/><path class="cls-1" d="M89.1,0c.16.13.35.06.53.08.49.05,1,.08,1.46.11.12,0,.17,0,.17.16,0,.61,0,1.22,0,1.9a3.18,3.18,0,0,0-2-1.31,3.79,3.79,0,0,0-3.57.75,4.67,4.67,0,0,0-1.37,2.73,8,8,0,0,0,.24,3.79,4,4,0,0,0,5.59,2.55,6.4,6.4,0,0,0,.78-.41c.24-.15.46-.34.75-.56a3,3,0,0,1-1,1.5,4.7,4.7,0,0,1-4,.88,5.17,5.17,0,0,1-4.37-4.83,7.14,7.14,0,0,1,1.26-5.17A5.1,5.1,0,0,1,87,.13L87.5.06a11.89,11.89,0,0,1,1.19,0A.65.65,0,0,0,89,0Z"/><path class="cls-2" d="M89,0c-.17.14-.37.05-.56.06s-.65,0-1,0a.13.13,0,0,0,0-.06Z"/><path class="cls-3" d="M78.43.05H77.14V0h1.27Z"/><path class="cls-4" d="M46.78,0a.49.49,0,0,1-.51,0Z"/><path class="cls-5" d="M76.51,12.33a.15.15,0,0,1,.26,0Z"/><path class="cls-6" d="M128.37,5.78c0-.07,0-.15.06-.19v.19S128.39,5.81,128.37,5.78Z"/><path class="cls-7" d="M128.37,5.78h.06v.13C128.35,5.89,128.36,5.84,128.37,5.78Z"/><path class="cls-1" d="M19.78.26h5.36c.49,0,.56.07.56.55v10.7c0,.46-.09.56-.55.56H14.41c-.46,0-.58-.12-.58-.58V.82c0-.47.08-.56.55-.56Z"/><path class="cls-1" d="M0,11.76c0-.08,0-.16,0-.25V.69A1.21,1.21,0,0,0,0,.5.32.32,0,0,1,.33.25H11.22c.61,0,.66,0,.66.68V11.43c0,.54-.1.64-.62.64H.59C.34,12.07.09,12.07,0,11.76Z"/><path class="cls-1" d="M64.68,12.05H62.22A6.36,6.36,0,0,0,62.54,11a10.24,10.24,0,0,0,.08-1.36q0-3.69,0-7.4a5.28,5.28,0,0,0-.37-2h2.42c-.63,1.59-.27,3.25-.37,4.87,0,.15.08.17.2.17h5.05c.16,0,.19-.06.19-.21,0-1.24,0-2.49-.08-3.74A3.13,3.13,0,0,0,69.3.27h2.48a8.22,8.22,0,0,0-.38,3.58c0,2,0,4.05,0,6.07a4.63,4.63,0,0,0,.4,2.12H69.33c0-.11.07-.19.11-.3a4.31,4.31,0,0,0,.27-1.42c0-1.31,0-2.63,0-3.94,0-.19,0-.26-.24-.25h-5c-.17,0-.24,0-.24.23,0,1.47,0,2.94,0,4.41A3.89,3.89,0,0,0,64.68,12.05Z"/><path class="cls-1" d="M35.81,6c1.64,2,2.87,4.31,4.78,6.11-.6,0-1.17,0-1.73,0a1.34,1.34,0,0,1-1-.6l-2-2.94c-.33-.48-.67-1-1-1.42a1.67,1.67,0,0,0-1.19-.76c-.18,0-.25,0-.25.2,0,1.47,0,2.94,0,4.41a2.89,2.89,0,0,0,.33,1.11H31.22c.1-.28.22-.56.3-.84a5.63,5.63,0,0,0,.14-1.48q0-3.92,0-7.81a3.23,3.23,0,0,0-.4-1.71c.52,0,1,0,1.43,0A21.4,21.4,0,0,1,36,.13a3.5,3.5,0,0,1,1.76.65A2.31,2.31,0,0,1,38.61,3a3.26,3.26,0,0,1-2.38,2.8Z"/><path class="cls-1" d="M57.8,12.05H55.39a7.79,7.79,0,0,0,.39-3.25c0-2.43,0-4.86,0-7.3,0-.25-.07-.32-.32-.31-.65,0-1.31,0-2,0a2.49,2.49,0,0,0-1.5.35c.12-.43.23-.8.33-1.17.05-.18.2-.13.31-.13h8.73A1.54,1.54,0,0,1,60,1.15a19.45,19.45,0,0,1-2.29,0c-.21,0-.28,0-.28.27,0,3,0,5.89,0,8.83A3.63,3.63,0,0,0,57.8,12.05Z"/><path class="cls-1" d="M100.17.26h2.47a6.65,6.65,0,0,0-.39,3.24q0,2.77,0,5.55a5.85,5.85,0,0,0,.41,3h-2.49a4.48,4.48,0,0,0,.37-1.48c.07-1.39,0-2.78,0-4.16,0-.23-.06-.29-.28-.28h-4.9c-.21,0-.28,0-.28.28,0,1.32,0,2.64,0,4a3.57,3.57,0,0,0,.32,1.47c.05.12.12.22-.1.22H93a7.64,7.64,0,0,0,.43-3.43c0-1.85,0-3.71,0-5.56,0-.5,0-1,0-1.49A3.79,3.79,0,0,0,93.06.24h2.33c.14,0,.13.06.08.16a4.74,4.74,0,0,0-.34,2.2c0,.81,0,1.61,0,2.42,0,.19,0,.27.26.27h5c.13,0,.25,0,.25-.19,0-1.31,0-2.62-.11-3.93A3.5,3.5,0,0,0,100.17.26Z"/><path class="cls-1" d="M116.8,10.26c-.12.58-.23,1.1-.32,1.62,0,.13-.08.19-.23.19h-5.82a6.25,6.25,0,0,0,.42-3.1c0-2,0-4,0-6,0-.43,0-.85,0-1.27a3.22,3.22,0,0,0-.37-1.41h2.45a5.49,5.49,0,0,0-.39,2.62q0,4,0,8c0,.3.09.37.37.35s.83,0,1.24,0A3.61,3.61,0,0,0,116.8,10.26Z"/><path class="cls-1" d="M105.26.26h2.5a4.83,4.83,0,0,0-.42,2.51v7a4.69,4.69,0,0,0,.37,2.27H105.3a5.67,5.67,0,0,0,.38-2.23q0-3.71,0-7.43A4.39,4.39,0,0,0,105.26.26Z"/><path class="cls-8" d="M50.1,6.22a6.89,6.89,0,0,1-.76,3.45,3.26,3.26,0,0,1-3.06,1.8,3.19,3.19,0,0,1-3-1.94,7.14,7.14,0,0,1-.71-2.87A7.42,7.42,0,0,1,43,3.2a3.59,3.59,0,0,1,1.68-2,3.35,3.35,0,0,1,4.62,1.57A8.33,8.33,0,0,1,50.1,6.22Z"/><path class="cls-8" d="M120,5.85c0-1.47,0-2.94,0-4.42,0-.52,0-.55.45-.57a8.08,8.08,0,0,1,3.31.38,3.88,3.88,0,0,1,2.36,2.57,7.41,7.41,0,0,1-.28,5.36,3.79,3.79,0,0,1-3.78,2.27c-.46,0-.93,0-1.39-.07s-.56-.17-.63-.58a3.08,3.08,0,0,1,0-.53C120,8.79,120,7.32,120,5.85Z"/><path class="cls-9" d="M22.05,8.47a1.29,1.29,0,0,1-1.46-.56,8.71,8.71,0,0,0-1.12-1.46,1.31,1.31,0,0,0-.32-.25c-.4-.15-.53-.07-.53.35s0,.76,0,1.14a1.84,1.84,0,0,0,0,.41c.09.39.09.39-.3.39h-.58A6.88,6.88,0,0,0,17.94,6a6.23,6.23,0,0,0-.19-2.46A20.57,20.57,0,0,1,20,3.5a1.23,1.23,0,0,1,1.18.9,1.31,1.31,0,0,1-.67,1.36,1.37,1.37,0,0,1-.6.24C20.63,6.84,21.29,7.68,22.05,8.47Z"/><path class="cls-8" d="M8,10.3l-.9-.8c.09-.1.2,0,.32-.1L6.19,7,6.14,7V9.69c.12,0,.19-.09.33-.08L6,10.89,5.44,9.62c.13-.08.21.1.34.07V7l0,0L4.56,9.42c.1.09.21,0,.34.08l-1,.93L4,9.08c.14,0,.13.15.27.17L5.37,7,5.3,6.89l-2,1.59c.05.13.2.1.25.23L2.2,9.1l.71-1.25L3,8.23l2.5-2c.1-.07.09-.12,0-.19L3.59,4.52a.17.17,0,0,0-.21,0c-.21.13-.36,0-.53-.12l-1-.76c.5,0,.78-.16.57-.77l1.21.93s.07.07.06.1c-.08.35.19.46.39.61l4.78,3.7C9,8.11,8.94,8,9,7.86l.69,1.19L8.43,8.69c0-.14.17-.11.24-.23L6.61,6.89,6.54,7,7.7,9.29,7.93,9A5.26,5.26,0,0,1,8,10C8,10.13,8.13,10.25,8,10.3Z"/><path class="cls-10" d="M5.45,1.43c.49.35.49.35,1,0V2.89a.12.12,0,0,1,0,.08c-.36.16-.26.49-.26.77,0,.57,0,1.15,0,1.82a1.72,1.72,0,0,1-.35-1c0-.41,0-.82,0-1.24,0-.09,0-.2-.08-.25-.27-.11-.24-.34-.24-.56S5.45,1.84,5.45,1.43Z"/><path class="cls-11" d="M6.38,5.66A1.64,1.64,0,0,1,6.6,4.39c.12-.21.22-.45.33-.68s.2-.37,0-.56c0,0,0-.11,0-.17.22-.42.43-.84.66-1.3.1.21.13.42.26.52s.34-.11.56-.08L7.83,3.38c0,.06-.06.12-.13.12-.31,0-.38.23-.49.45C7,4.5,6.68,5,6.38,5.66Z"/><path class="cls-12" d="M6.63,5.83a1.17,1.17,0,0,1,.56-.9c.26-.17.49-.38.73-.56s.32-.22.24-.46,0-.15.11-.2l1.1-.88c0,.23-.06.44,0,.59s.34.11.59.18l-1.2.91a.06.06,0,0,1-.06,0c-.4-.19-.61.15-.86.34C7.44,5.17,7,5.5,6.63,5.83Z"/><path class="cls-11" d="M3.42,2.14c.61.07.61.07.85-.45.24.47.46.9.67,1.34a.17.17,0,0,1,0,.12c-.21.24,0,.44.05.66l.66,1.33a.54.54,0,0,1,.1.33,1.44,1.44,0,0,1-.64-.63c-.14-.31-.3-.6-.44-.91s-.18-.43-.47-.43c-.06,0-.09,0-.12-.09Z"/><path class="cls-13" d="M8,10.3c.12-.06,0-.19.08-.27a.38.38,0,0,1,.05.29C8,10.44,8,10.36,8,10.3Z"/><path class="cls-8" d="M33.32,3.25c0-.63,0-1.4,0-2.17,0-.09,0-.19.12-.22A4.76,4.76,0,0,1,35.7,1,1.62,1.62,0,0,1,36.77,2.4a3,3,0,0,1-.46,2.27,2.24,2.24,0,0,1-1.59.92,5.72,5.72,0,0,1-1.17,0c-.19,0-.23-.07-.23-.24C33.33,4.7,33.32,4.05,33.32,3.25Z"/><path class="cls-14" d="M18.62,4.8c0-.25,0-.49,0-.73s.07-.26.26-.25.4,0,.6,0a.92.92,0,0,1,1,.82,1,1,0,0,1-.81,1.07c-.25,0-.5,0-.75.06s-.26-.06-.25-.25S18.62,5,18.62,4.8Z"/></svg>