<svg width="76" height="74" viewBox="0 0 76 74" fill="none" xmlns="http://www.w3.org/2000/svg">
<path d="M42.949 13.1732C39.2816 9.54839 34.4653 7.55914 29.3397 7.55914C24.2141 7.55914 19.3537 9.54839 15.7304 13.1732C8.21877 20.6882 8.21877 32.8889 15.7304 40.4038C19.3537 44.0287 24.2141 46.0179 29.3397 46.0179C34.4653 46.0179 39.3257 44.0287 42.949 40.4038C46.5723 36.779 48.5606 31.9164 48.5606 26.7885C48.5606 21.6607 46.5723 16.7981 42.949 13.1732ZM17.2769 14.7204C20.5025 11.4934 24.7885 9.72521 29.3397 9.72521C33.8909 9.72521 38.1769 11.4934 41.4025 14.7204C43.9211 17.2401 45.6002 20.4671 46.1746 23.9594L40.1653 29.7945C39.5909 29.4851 38.9281 29.3083 38.2653 29.3083C36.8955 29.3083 35.7025 30.0155 35.0397 31.0323L26.2467 28.2915C26.2467 28.2473 26.2467 28.2473 26.2467 28.2031C26.2467 26.037 24.4792 24.313 22.3583 24.313C20.1932 24.313 18.4699 26.0812 18.4699 28.2031C18.4699 28.9104 18.6467 29.5735 19.0002 30.1482L14.3606 34.8781C10.8699 28.4241 11.842 20.1577 17.2769 14.7204ZM39.9885 33.1983C39.9885 34.1266 39.2374 34.9223 38.2653 34.9223C37.3374 34.9223 36.542 34.1709 36.542 33.1983C36.542 32.27 37.2932 31.4743 38.2653 31.4743C39.1932 31.4743 39.9885 32.2258 39.9885 33.1983ZM24.0374 28.2031C24.0374 29.1314 23.2862 29.9271 22.3141 29.9271C21.3862 29.9271 20.5909 29.1756 20.5909 28.2031C20.5909 27.2748 21.342 26.4791 22.3141 26.4791C23.2862 26.4791 24.0374 27.2306 24.0374 28.2031ZM41.4025 38.8566C38.1769 42.0836 33.8909 43.8519 29.3397 43.8519C24.7885 43.8519 20.5025 42.0836 17.2769 38.8566C16.6583 38.2378 16.0397 37.5305 15.5537 36.8232L20.5467 31.6511C21.0769 31.9164 21.6955 32.0932 22.3583 32.0932C23.7281 32.0932 24.9211 31.3859 25.5839 30.3692L34.3769 33.1099C34.3769 33.1541 34.3769 33.1541 34.3769 33.1983C34.3769 35.3644 36.1444 37.0884 38.2653 37.0884C40.4304 37.0884 42.1537 35.3202 42.1537 33.1983C42.1537 32.5353 41.9769 31.9164 41.7118 31.3417L46.3955 26.7885C46.3955 31.3417 44.5839 35.6296 41.4025 38.8566Z" fill="#FF4F1A"/>
<path d="M19.6187 15.6045L21.0768 17.2401C24.4791 14.2784 29.2512 13.3943 33.4931 14.853L34.2 12.7754C29.207 11.0514 23.6396 12.1123 19.6187 15.6045Z" fill="#FF4F1A"/>
<path d="M37.0277 14.1458L35.8789 16.0024C36.4533 16.356 37.0277 16.7539 37.5138 17.1959L38.9277 15.5161C38.3533 15.0299 37.7347 14.5436 37.0277 14.1458Z" fill="#FF4F1A"/>
<path d="M31.9466 39.1219C29.4722 39.6081 26.9536 39.4313 24.6118 38.4588L23.8164 40.4922C25.5838 41.1995 27.4397 41.5532 29.3397 41.5532C30.3559 41.5532 31.4164 41.4648 32.4327 41.2437L31.9466 39.1219Z" fill="#FF4F1A"/>
<path d="M56.7791 44.3823L55.1884 45.9737L51.2558 41.7742C55.9395 34.9223 57.0442 26.3907 54.614 18.7431L57.7512 15.6929C58.2814 16.0024 58.9442 16.1792 59.607 16.1792C61.7721 16.1792 63.4953 14.411 63.4953 12.2891C63.4953 11.6702 63.3628 11.0514 63.0535 10.5209L69.7698 3.93429V7.33811H71.9791V0.176819H64.8651V2.38709H68.1791L61.5512 8.8853C60.9767 8.53166 60.314 8.35484 59.5628 8.35484C57.3977 8.35484 55.6744 10.1231 55.6744 12.2449C55.6744 12.9522 55.8512 13.5711 56.1605 14.1458L53.7744 16.4886C52.493 13.3943 50.593 10.5209 48.0744 8.0454C37.7349 -2.29869 20.9 -2.29869 10.5605 8.0454C1.36977 17.2401 0.353489 31.6069 7.55581 41.951L5.7 43.8519C5.16977 43.5866 4.55116 43.4098 3.88837 43.4098C1.72326 43.4098 0 45.178 0 47.2999C0 49.466 1.76744 51.19 3.88837 51.19C6.05349 51.19 7.77674 49.4217 7.77674 47.2999C7.77674 46.5926 7.6 45.9295 7.24651 45.3548L8.83721 43.675C9.36744 44.2939 9.89767 44.9128 10.5163 45.5317C15.686 50.7037 22.4907 53.3118 29.2954 53.3118C34.5093 53.3118 39.7233 51.7646 44.186 48.7587L48.1628 53.0024L46.5279 54.638L65.6605 73.7348L75.8674 63.5233L56.7791 44.3823ZM59.607 10.5209C60.5349 10.5209 61.3302 11.2724 61.3302 12.2449C61.3302 13.2174 60.5791 13.9689 59.607 13.9689C58.6349 13.9689 57.8837 13.2174 57.8837 12.2449C57.8837 11.2724 58.6349 10.5209 59.607 10.5209ZM3.88837 49.0239C2.96047 49.0239 2.16512 48.2724 2.16512 47.2999C2.16512 46.3274 2.91628 45.5759 3.88837 45.5759C4.81628 45.5759 5.61163 46.3274 5.61163 47.2999C5.61163 48.2724 4.86047 49.0239 3.88837 49.0239ZM12.107 43.9845C2.65116 34.4803 2.65116 19.0526 12.107 9.54839C16.8791 4.8184 23.1093 2.4313 29.3395 2.4313C35.5698 2.4313 41.8 4.8184 46.5279 9.54839C56.0279 19.0526 56.0279 34.4803 46.5279 43.9845C37.0721 53.4887 21.607 53.4887 12.107 43.9845ZM45.9977 47.4325C46.7047 46.8578 47.4116 46.2389 48.0744 45.5759C48.7372 44.9128 49.3116 44.2497 49.886 43.5866L53.5977 47.5651L49.7093 51.4552L45.9977 47.4325ZM65.7047 70.5962L49.6651 54.5938L56.7791 47.4767L72.8186 63.4791L65.7047 70.5962Z" fill="#FF4F1A"/>
<path d="M56.7793 50.6595L53.6421 53.7981L55.1886 55.3453L56.7793 53.7539L62.8328 59.81L64.3793 58.2629L56.7793 50.6595Z" fill="#FF4F1A"/>
<path d="M64.6885 61.6667L66.235 60.1195L67.8699 61.7551L66.3234 63.3023L64.6885 61.6667Z" fill="#FF4F1A"/>
<path d="M14.0955 54.417H11.8862V56.8041H14.0955V54.417Z" fill="#FF4F1A"/>
<path d="M14.0955 67.8112H11.8862V70.1983H14.0955V67.8112Z" fill="#FF4F1A"/>
<path d="M32.1234 59.0143H29.9141V61.4014H32.1234V59.0143Z" fill="#FF4F1A"/>
<path d="M63.4954 39.3429H61.2861V41.73H63.4954V39.3429Z" fill="#FF4F1A"/>
<path d="M66.014 20.2903H63.8047V22.6774H66.014V20.2903Z" fill="#FF4F1A"/>
<path d="M73.2606 30.3692H71.0513V32.7563H73.2606V30.3692Z" fill="#FF4F1A"/>
</svg>
