<svg width="74" height="65" viewBox="0 0 74 65" fill="none" xmlns="http://www.w3.org/2000/svg">
<path d="M74 12.6962C74 10.6344 72.2984 8.93434 70.2348 8.93434H38.1947V7.30662C39.6791 6.80022 40.7652 5.38954 40.7652 3.76183C40.7652 1.70006 39.0636 0 37 0C34.9364 0 33.2348 1.70006 33.2348 3.76183C33.2348 5.42571 34.3209 6.80022 35.8053 7.30662V8.93434H3.76517C1.70157 8.93434 0 10.6344 0 12.6962C0 14.36 1.08611 15.7346 2.57045 16.241V61.2382C2.57045 63.2999 4.27202 65 6.33562 65H67.7006C69.7642 65 71.4658 63.2999 71.4658 61.2382V16.241C72.9139 15.7346 74 14.36 74 12.6962ZM37 2.38731C37.7603 2.38731 38.3757 3.00223 38.3757 3.76183C38.3757 4.52142 37.7603 5.13634 37 5.13634C36.2397 5.13634 35.6243 4.52142 35.6243 3.76183C35.6243 3.00223 36.2397 2.38731 37 2.38731ZM67.7006 62.6127H6.29941C5.53914 62.6127 4.92368 61.9978 4.92368 61.2382V16.458H69.0039V61.2382C69.0401 61.9978 68.4247 62.6127 67.7006 62.6127ZM70.2348 14.0707H3.76517C3.00489 14.0707 2.38943 13.4558 2.38943 12.6962C2.38943 11.9366 3.00489 11.3216 3.76517 11.3216H70.2348C70.9951 11.3216 71.6106 11.9366 71.6106 12.6962C71.6106 13.4558 70.9951 14.0707 70.2348 14.0707Z" fill="#FF4F1A"/>
<path d="M27.6234 50.6038L51.1557 27.0924V30.601C51.1557 31.2521 51.6987 31.7947 52.3504 31.7947C53.002 31.7947 53.5451 31.2521 53.5451 30.601V24.1987C53.5451 23.5476 53.002 23.005 52.3504 23.005H45.9424C45.2907 23.005 44.7476 23.5476 44.7476 24.1987C44.7476 24.8498 45.2907 25.3923 45.9424 25.3923H49.4541L25.9218 48.9037L25.8856 48.9399C25.3788 48.6867 24.7995 48.542 24.2202 48.542C22.1566 48.542 20.4551 50.2421 20.4551 52.3038C20.4551 54.3656 22.1566 56.0657 24.2202 56.0657C26.2838 56.0657 27.9854 54.3656 27.9854 52.3038C27.9854 51.6889 27.8406 51.1464 27.5872 50.64C27.5872 50.6038 27.6234 50.6038 27.6234 50.6038ZM24.2202 53.6422C23.46 53.6422 22.8445 53.0273 22.8445 52.2677C22.8445 51.5081 23.46 50.8932 24.2202 50.8932C24.9805 50.8932 25.596 51.5081 25.596 52.2677C25.5598 53.0273 24.9805 53.6422 24.2202 53.6422Z" fill="#FF4F1A"/>
<path d="M20.817 30.1669C21.0342 30.384 21.36 30.5287 21.6497 30.5287C21.9393 30.5287 22.2651 30.4201 22.4824 30.1669L24.1839 28.4669L25.8855 30.1669C26.1027 30.384 26.4285 30.5287 26.7182 30.5287C27.0078 30.5287 27.3336 30.4201 27.5509 30.1669C28.0215 29.6967 28.0215 28.9371 27.5509 28.4669L25.8493 26.7668L27.5509 25.0668C28.0215 24.5966 28.0215 23.837 27.5509 23.3667C27.0802 22.8965 26.3199 22.8965 25.8493 23.3667L24.1477 25.0668L22.4462 23.3667C21.9755 22.8965 21.2152 22.8965 20.7446 23.3667C20.2739 23.837 20.2739 24.5966 20.7446 25.0668L22.4462 26.7668L20.7446 28.4669C20.3463 28.9371 20.3463 29.6967 20.817 30.1669Z" fill="#FF4F1A"/>
<path d="M33.5968 30.1669C33.814 30.384 34.1398 30.5287 34.4295 30.5287C34.7191 30.5287 35.0449 30.4201 35.2621 30.1669L36.9637 28.4669L38.6653 30.1669C38.8825 30.384 39.2083 30.5287 39.498 30.5287C39.7876 30.5287 40.1134 30.4201 40.3306 30.1669C40.8013 29.6967 40.8013 28.9371 40.3306 28.4669L38.6291 26.7668L40.3306 25.0668C40.8013 24.5966 40.8013 23.837 40.3306 23.3667C39.86 22.8965 39.0997 22.8965 38.6291 23.3667L36.9275 25.0668L35.2259 23.3667C34.7553 22.8965 33.995 22.8965 33.5244 23.3667C33.0537 23.837 33.0537 24.5966 33.5244 25.0668L35.2259 26.7668L33.5244 28.4669C33.1261 28.9371 33.1261 29.6967 33.5968 30.1669Z" fill="#FF4F1A"/>
<path d="M20.817 42.9354C21.0342 43.1525 21.36 43.2972 21.6497 43.2972C21.9393 43.2972 22.2651 43.1886 22.4824 42.9354L24.1839 41.2354L25.8855 42.9354C26.1027 43.1525 26.4285 43.2972 26.7182 43.2972C27.0078 43.2972 27.3336 43.1886 27.5509 42.9354C28.0215 42.4652 28.0215 41.7056 27.5509 41.2354L25.8493 39.5353L27.5509 37.8353C28.0215 37.365 28.0215 36.6054 27.5509 36.1352C27.0802 35.665 26.3199 35.665 25.8493 36.1352L24.1477 37.8353L22.4462 36.1352C21.9755 35.665 21.2152 35.665 20.7446 36.1352C20.2739 36.6054 20.2739 37.365 20.7446 37.8353L22.4462 39.5353L20.7446 41.2354C20.3463 41.7056 20.3463 42.4652 20.817 42.9354Z" fill="#FF4F1A"/>
<path d="M53.1827 48.9037C52.712 48.4335 51.9518 48.4335 51.4811 48.9037L49.7796 50.6038L48.078 48.9037C47.6073 48.4335 46.8471 48.4335 46.3764 48.9037C45.9058 49.374 45.9058 50.1336 46.3764 50.6038L48.078 52.3038L46.3764 54.0039C45.9058 54.4741 45.9058 55.2337 46.3764 55.7039C46.5936 55.921 46.9195 56.0657 47.2091 56.0657C47.4987 56.0657 47.8246 55.9571 48.0418 55.7039L49.7433 54.0039L51.4449 55.7039C51.6621 55.921 51.988 56.0657 52.2776 56.0657C52.5672 56.0657 52.8931 55.9571 53.1103 55.7039C53.5809 55.2337 53.5809 54.4741 53.1103 54.0039L51.4087 52.3038L53.1103 50.6038C53.6533 50.1336 53.6533 49.374 53.1827 48.9037Z" fill="#FF4F1A"/>
<path d="M40.4034 48.9037C39.9327 48.4335 39.1725 48.4335 38.7018 48.9037L37.0003 50.6038L35.2987 48.9037C34.828 48.4335 34.0678 48.4335 33.5971 48.9037C33.1265 49.374 33.1265 50.1336 33.5971 50.6038L35.2987 52.3038L33.5971 54.0039C33.1265 54.4741 33.1265 55.2337 33.5971 55.7039C33.8143 55.921 34.1402 56.0657 34.4298 56.0657C34.7194 56.0657 35.0453 55.9571 35.2625 55.7039L36.9641 54.0039L38.6656 55.7039C38.8828 55.921 39.2087 56.0657 39.4983 56.0657C39.7879 56.0657 40.1138 55.9571 40.331 55.7039C40.8016 55.2337 40.8016 54.4741 40.331 54.0039L38.6294 52.3038L40.331 50.6038C40.874 50.1336 40.874 49.374 40.4034 48.9037Z" fill="#FF4F1A"/>
<path d="M53.1827 36.1352C52.712 35.665 51.9518 35.665 51.4811 36.1352L49.7796 37.8353L48.078 36.1352C47.6073 35.665 46.8471 35.665 46.3764 36.1352C45.9058 36.6054 45.9058 37.365 46.3764 37.8353L48.078 39.5353L46.3764 41.2354C45.9058 41.7056 45.9058 42.4652 46.3764 42.9354C46.5936 43.1525 46.9195 43.2972 47.2091 43.2972C47.4987 43.2972 47.8246 43.1886 48.0418 42.9354L49.7433 41.2354L51.4449 42.9354C51.6621 43.1525 51.988 43.2972 52.2776 43.2972C52.5672 43.2972 52.8931 43.1886 53.1103 42.9354C53.5809 42.4652 53.5809 41.7056 53.1103 41.2354L51.4087 39.5353L53.1103 37.8353C53.6533 37.3289 53.6533 36.6054 53.1827 36.1352Z" fill="#FF4F1A"/>
</svg>
