<svg width="182" height="65" viewBox="0 0 182 65" fill="none" xmlns="http://www.w3.org/2000/svg">
<g clip-path="url(#clip0)">
<path d="M57.8501 17.1354C58.6818 17.1354 59.4469 17.2028 60.1455 17.3715C60.8441 17.5064 61.4096 17.7763 61.9086 18.1136C62.4076 18.4509 62.7736 18.8894 63.0397 19.4628C63.3058 20.0363 63.4389 20.7109 63.4389 21.5542C63.4389 22.4649 63.2393 23.207 62.8401 23.7804C62.4409 24.3876 61.8421 24.8598 61.077 25.2646C62.1415 25.5682 62.9731 26.1416 63.5054 26.9174C64.0377 27.6932 64.3038 28.6714 64.3038 29.7508C64.3038 30.6616 64.1375 31.4374 63.8048 32.0783C63.4721 32.7192 63.0064 33.2589 62.4076 33.6974C61.8421 34.1022 61.1768 34.4057 60.4116 34.6081C59.6798 34.8105 58.9147 34.9117 58.1163 34.9117H49.6333V17.1354H57.8501ZM57.3511 24.3538C58.0497 24.3538 58.6153 24.1852 59.0477 23.8479C59.4802 23.5106 59.713 22.9709 59.713 22.2288C59.713 21.824 59.6465 21.4867 59.4802 21.2168C59.3471 20.947 59.1475 20.7446 58.8814 20.6097C58.6485 20.4748 58.3491 20.3736 58.0497 20.3061C57.7171 20.2386 57.3844 20.2049 57.0517 20.2049H53.459V24.3538H57.3511ZM57.584 31.8759C57.9499 31.8759 58.3159 31.8422 58.6818 31.7747C59.0145 31.7072 59.3139 31.5723 59.58 31.4037C59.8461 31.235 60.0457 30.9989 60.212 30.6953C60.3784 30.3917 60.4449 30.0207 60.4449 29.5485C60.4449 28.6377 60.1788 27.9968 59.6798 27.592C59.1808 27.1873 58.5155 27.0186 57.6505 27.0186H53.459V31.9096H57.584V31.8759Z" fill="#333333"/>
<path d="M70.0921 17.1354V34.9117H66.5992V17.1354H70.0921Z" fill="#333333"/>
<path d="M72.6869 26.0066C72.7202 25.1634 72.953 24.4887 73.2857 23.949C73.6516 23.4093 74.1174 22.9708 74.6496 22.6335C75.2151 22.2962 75.8472 22.0601 76.5125 21.9252C77.2111 21.7902 77.9097 21.7228 78.6083 21.7228C79.2404 21.7228 79.9057 21.7565 80.5378 21.8577C81.2031 21.9589 81.8019 22.1276 82.3341 22.3974C82.8664 22.6673 83.2989 23.0383 83.6648 23.5105C83.9974 23.9828 84.1638 24.6237 84.1638 25.3995V32.0445C84.1638 32.618 84.197 33.1914 84.2636 33.6973C84.3301 34.237 84.4299 34.6418 84.5962 34.8779H81.07C81.0035 34.6756 80.9369 34.4732 80.9037 34.2708C80.8704 34.0684 80.8371 33.866 80.8039 33.6299C80.2384 34.2033 79.6063 34.6081 78.8412 34.8442C78.076 35.0803 77.3109 35.1815 76.5458 35.1815C75.947 35.1815 75.3815 35.1141 74.8492 34.9454C74.317 34.8105 73.8512 34.5744 73.4853 34.237C73.0861 33.9335 72.7867 33.5287 72.5538 33.0565C72.321 32.5842 72.2212 32.0108 72.2212 31.3362C72.2212 30.5941 72.3542 29.9869 72.5871 29.5147C72.8532 29.0424 73.1526 28.6714 73.5851 28.3678C73.9843 28.098 74.45 27.8619 74.949 27.7269C75.448 27.592 75.9803 27.4908 76.5125 27.3896C77.0448 27.3222 77.5438 27.2547 78.0428 27.1872C78.5418 27.1535 79.0075 27.0523 79.4067 26.9511C79.8059 26.8499 80.1053 26.715 80.3382 26.5126C80.571 26.3102 80.6708 26.0404 80.6708 25.6693C80.6708 25.2983 80.6043 24.9947 80.4712 24.7586C80.3382 24.5225 80.1718 24.3538 79.9722 24.2526C79.7726 24.1177 79.5398 24.0502 79.2736 24.0165C79.0075 23.9828 78.7081 23.949 78.4087 23.949C77.7101 23.949 77.1779 24.084 76.7787 24.3875C76.3795 24.6911 76.1466 25.1971 76.0801 25.8717H72.6869V26.0066ZM80.7373 28.6039C80.571 28.7389 80.4047 28.8401 80.1718 28.9075C79.939 28.975 79.7061 29.0424 79.4732 29.1099C79.2071 29.1436 78.941 29.2111 78.6748 29.2448C78.4087 29.2786 78.1093 29.3123 77.8432 29.3798C77.5771 29.4135 77.3109 29.4809 77.0781 29.5821C76.8119 29.6496 76.6123 29.7845 76.4127 29.9195C76.2131 30.0544 76.0801 30.223 75.947 30.4592C75.8472 30.6615 75.7807 30.9651 75.7807 31.2687C75.7807 31.5723 75.8472 31.8421 75.947 32.0783C76.0801 32.2806 76.2131 32.4493 76.4127 32.5842C76.6123 32.7191 76.8452 32.7866 77.1113 32.8541C77.3775 32.8878 77.6436 32.9215 77.9097 32.9215C78.6083 32.9215 79.1406 32.8203 79.5065 32.5842C79.8724 32.3481 80.1718 32.0783 80.3382 31.7409C80.5045 31.4036 80.6376 31.1 80.6708 30.7627C80.7041 30.4254 80.7373 30.1556 80.7373 29.9532V28.6039Z" fill="#333333"/>
<path d="M93.0126 24.3538C92.4471 24.3538 91.9814 24.4888 91.6154 24.7249C91.2495 24.9947 90.9501 25.2983 90.684 25.7368C90.4511 26.1416 90.2848 26.5801 90.185 27.0861C90.0852 27.592 90.0519 28.0643 90.0519 28.5365C90.0519 29.0088 90.0852 29.481 90.185 29.9532C90.2848 30.4255 90.4511 30.864 90.6507 31.2687C90.8836 31.6735 91.183 31.9771 91.5489 32.2132C91.9148 32.4493 92.3805 32.5843 92.9128 32.5843C93.7445 32.5843 94.3765 32.3481 94.8423 31.8759C95.308 31.4037 95.5741 30.7628 95.6739 29.987H99.0338C98.801 31.7073 98.1356 32.989 97.0711 33.8998C95.9733 34.8105 94.6094 35.249 92.9128 35.249C91.9814 35.249 91.0832 35.0804 90.2848 34.7768C89.4864 34.4732 88.8211 34.001 88.2555 33.4275C87.69 32.8541 87.2575 32.1458 86.9581 31.3362C86.6587 30.5267 86.4924 29.6496 86.4924 28.6714C86.4924 27.6595 86.6255 26.7488 86.9249 25.9055C87.2243 25.0622 87.6235 24.3201 88.189 23.6792C88.7545 23.0721 89.4199 22.5661 90.2182 22.2288C91.0166 21.8915 91.9481 21.6891 92.9793 21.6891C93.7445 21.6891 94.4431 21.7903 95.1417 21.9927C95.8403 22.1951 96.4723 22.4986 97.0046 22.9034C97.5368 23.3082 98.0026 23.8142 98.3352 24.4213C98.6679 25.0285 98.8675 25.7368 98.934 26.5801H95.5076C95.3413 25.0959 94.4763 24.3538 93.0126 24.3538Z" fill="#333333"/>
<path d="M104.822 17.1354V26.6813L109.213 22.0601H113.338L108.548 26.7825L113.871 34.9117H109.646L106.153 29.1774L104.789 30.4929V34.9117H101.296V17.1354H104.822Z" fill="#333333"/>
<path d="M118.062 31.7073C118.228 31.9771 118.428 32.2132 118.661 32.3819C118.894 32.5505 119.193 32.6855 119.493 32.7529C119.825 32.8204 120.158 32.8878 120.491 32.8878C120.723 32.8878 120.99 32.8541 121.256 32.7866C121.522 32.7192 121.755 32.6517 121.988 32.5168C122.22 32.3819 122.387 32.2132 122.553 32.0108C122.719 31.8084 122.786 31.5386 122.786 31.235C122.786 30.6953 122.453 30.2905 121.755 30.0544C121.056 29.7846 120.091 29.5147 118.827 29.2449C118.328 29.1437 117.829 29.0088 117.33 28.8401C116.865 28.6714 116.432 28.4691 116.033 28.2329C115.667 27.9631 115.368 27.6595 115.135 27.2547C114.902 26.85 114.802 26.3777 114.802 25.838C114.802 24.9947 114.968 24.3201 115.268 23.7804C115.6 23.2407 116 22.8359 116.532 22.5324C117.064 22.2288 117.63 21.9927 118.295 21.8915C118.96 21.7565 119.626 21.6891 120.324 21.6891C121.023 21.6891 121.688 21.7565 122.32 21.8915C122.952 22.0264 123.551 22.2625 124.05 22.5661C124.549 22.8697 124.982 23.3082 125.314 23.8142C125.647 24.3538 125.846 24.9947 125.913 25.8043H122.586C122.553 25.1297 122.287 24.6574 121.821 24.4213C121.356 24.1852 120.823 24.0503 120.191 24.0503C119.992 24.0503 119.792 24.0503 119.559 24.084C119.326 24.1177 119.127 24.1515 118.927 24.2527C118.727 24.3201 118.594 24.455 118.461 24.6237C118.328 24.7924 118.262 24.9947 118.262 25.2646C118.262 25.5682 118.362 25.838 118.594 26.0404C118.827 26.2428 119.127 26.4115 119.493 26.5126C119.859 26.6476 120.291 26.7488 120.757 26.85C121.222 26.9512 121.721 27.0523 122.187 27.1873C122.686 27.2885 123.185 27.4571 123.684 27.6258C124.183 27.7944 124.582 27.9968 124.982 28.3004C125.347 28.5703 125.647 28.9076 125.88 29.3123C126.113 29.7171 126.212 30.2231 126.212 30.8302C126.212 31.6735 126.046 32.3819 125.713 32.9553C125.381 33.5287 124.948 34.001 124.416 34.3383C123.884 34.6756 123.252 34.9454 122.553 35.0804C121.855 35.2153 121.156 35.2828 120.424 35.2828C119.692 35.2828 118.96 35.2153 118.262 35.0466C117.563 34.9117 116.931 34.6419 116.399 34.3046C115.867 33.9672 115.401 33.495 115.035 32.9216C114.669 32.3481 114.503 31.6398 114.469 30.7628H117.796C117.829 31.1338 117.896 31.4374 118.062 31.7073Z" fill="#333333"/>
<path d="M131.801 17.1354V23.8479H131.868C132.3 23.1058 132.866 22.5661 133.564 22.2288C134.263 21.8915 134.928 21.7228 135.593 21.7228C136.525 21.7228 137.29 21.8577 137.889 22.0939C138.488 22.3637 138.953 22.701 139.286 23.1733C139.619 23.6455 139.885 24.1852 140.018 24.8261C140.151 25.467 140.218 26.2091 140.218 27.0186V34.9454H136.725V27.6595C136.725 26.6138 136.558 25.8043 136.226 25.2983C135.893 24.7586 135.327 24.5225 134.496 24.5225C133.531 24.5225 132.866 24.7924 132.433 25.3658C132.001 25.9392 131.801 26.8837 131.801 28.1992V34.9454H128.308V17.1354H131.801Z" fill="#333333"/>
<path d="M142.945 20.07V17.1691H146.438V20.07H142.945ZM146.438 22.0601V34.9454H142.945V22.0601H146.438Z" fill="#333333"/>
<path d="M152.925 31.8421C153.458 32.3481 154.189 32.618 155.187 32.618C155.886 32.618 156.485 32.4493 157.017 32.0783C157.516 31.7072 157.849 31.3362 157.948 30.9314H161.009C160.51 32.483 159.778 33.5624 158.747 34.2371C157.716 34.9117 156.518 35.249 155.054 35.249C154.056 35.249 153.158 35.0803 152.36 34.7767C151.561 34.4394 150.863 34.0009 150.33 33.3938C149.765 32.7866 149.332 32.0783 149.033 31.2687C148.734 30.4254 148.567 29.5147 148.567 28.5365C148.567 27.5583 148.734 26.6813 149.033 25.838C149.332 24.9947 149.798 24.2863 150.364 23.6792C150.929 23.072 151.628 22.5998 152.426 22.2625C153.225 21.9252 154.09 21.7228 155.054 21.7228C156.152 21.7228 157.084 21.9252 157.882 22.3637C158.68 22.8022 159.346 23.3419 159.845 24.084C160.344 24.7923 160.743 25.6019 160.976 26.5126C161.209 27.4233 161.275 28.3678 161.209 29.3798H152.06C152.127 30.4929 152.393 31.3024 152.925 31.8421ZM156.884 25.0622C156.451 24.5899 155.819 24.3538 154.988 24.3538C154.422 24.3538 153.957 24.455 153.591 24.6574C153.225 24.8598 152.925 25.0959 152.692 25.3657C152.46 25.6356 152.326 25.9392 152.227 26.2765C152.127 26.5801 152.094 26.8837 152.06 27.1198H157.749C157.583 26.209 157.283 25.5344 156.884 25.0622Z" fill="#333333"/>
<path d="M166.864 17.1354V34.9117H163.371V17.1354H166.864Z" fill="#333333"/>
<path d="M178.64 33.2589C178.241 33.9672 177.709 34.4732 177.043 34.7768C176.378 35.0804 175.646 35.249 174.781 35.249C173.85 35.249 172.985 35.0466 172.286 34.6756C171.554 34.3046 170.989 33.7986 170.523 33.1577C170.057 32.5168 169.691 31.7747 169.459 30.9652C169.226 30.1219 169.093 29.2786 169.093 28.3679C169.093 27.4909 169.226 26.6813 169.459 25.8718C169.691 25.0622 170.057 24.3539 170.523 23.7467C170.989 23.1395 171.588 22.6336 172.286 22.2625C172.985 21.8915 173.816 21.6891 174.748 21.6891C175.513 21.6891 176.212 21.8577 176.91 22.1613C177.576 22.4986 178.141 22.9709 178.507 23.578H178.54V17.1354H182.033V34.9117H178.707V33.2589H178.64ZM178.474 26.9174C178.374 26.4115 178.208 26.0067 177.975 25.6356C177.742 25.2646 177.443 24.961 177.043 24.7249C176.677 24.4888 176.178 24.3876 175.613 24.3876C175.047 24.3876 174.548 24.4888 174.149 24.7249C173.75 24.961 173.451 25.2646 173.218 25.6356C172.985 26.0067 172.818 26.4452 172.719 26.9512C172.619 27.4234 172.552 27.9631 172.552 28.4691C172.552 28.975 172.619 29.481 172.719 29.9532C172.852 30.4592 173.018 30.8977 173.284 31.2687C173.55 31.6735 173.85 31.9771 174.249 32.2132C174.648 32.4493 175.081 32.5843 175.646 32.5843C176.212 32.5843 176.711 32.4831 177.077 32.247C177.443 32.0108 177.775 31.7073 178.008 31.3025C178.241 30.8977 178.407 30.4592 178.507 29.987C178.607 29.481 178.64 28.975 178.64 28.4353C178.64 27.8956 178.574 27.3897 178.474 26.9174Z" fill="#333333"/>
<path d="M0.033268 11.7384V64.8313H0.498996C21.2904 64.8313 38.3228 47.5609 38.3228 26.3103V17.6076C38.2895 17.6076 31.104 17.7088 22.9538 17.6414C12.9073 17.5402 1.39719 16.3933 0.033268 11.7384Z" fill="#C4C2C2"/>
<path d="M1.16432 10.0519C2.62804 12.2444 6.75306 14.6731 17.6644 15.0104C17.6644 12.2444 17.6644 6.67878 17.6644 0.472237V0H17.1987C8.05045 0 2.06251 2.1588 0.498995 5.86923C0.332663 6.44266 -0.0665324 8.23041 1.16432 10.0519Z" fill="#C4C2C2"/>
<path d="M32.7673 17.7089V26.2429C32.7673 45.8407 18.4628 62.1329 0 64.9326V65.0338H0.465728C21.2904 65.0338 38.3561 47.7297 38.3561 26.4453V17.6752C38.3228 17.6752 36.094 17.6752 32.7673 17.7089Z" fill="#295CAA"/>
<path d="M52.6606 46.7515H54.956L59.6798 59.1645H57.3844L56.2201 55.8589H51.3299L50.1656 59.1645H47.9368L52.6606 46.7515ZM51.9287 54.2398H55.6546L53.8249 48.9103H53.7584L51.9287 54.2398Z" fill="#333333"/>
<path d="M68.9278 59.1645H67.0649V57.9502H67.0316C66.7655 58.4562 66.3996 58.861 65.8673 59.0633C65.3683 59.2995 64.836 59.4007 64.2705 59.4007C63.5719 59.4007 62.9731 59.2657 62.4409 59.0296C61.9086 58.7935 61.4761 58.4562 61.1435 58.0177C60.8108 57.5792 60.5447 57.0732 60.3784 56.4998C60.212 55.9263 60.1122 55.2855 60.1122 54.6108C60.1122 53.8013 60.212 53.0929 60.4449 52.5195C60.6778 51.9123 60.9439 51.4401 61.3098 51.0691C61.6757 50.698 62.0749 50.3944 62.5407 50.2258C63.0064 50.0571 63.4721 49.9559 63.9711 49.9559C64.2373 49.9559 64.5367 49.9897 64.8028 50.0234C65.1022 50.0909 65.3683 50.1583 65.6344 50.2595C65.9006 50.3607 66.1334 50.5294 66.3663 50.698C66.5992 50.8667 66.7655 51.1028 66.9318 51.3389H66.9651V46.7515H68.9278V59.1645ZM62.1082 54.7795C62.1082 55.1505 62.1415 55.5553 62.2413 55.9263C62.3411 56.2974 62.4741 56.6347 62.6737 56.9046C62.8733 57.2081 63.1395 57.4105 63.4389 57.6129C63.7383 57.7816 64.1042 57.8828 64.5367 57.8828C64.9691 57.8828 65.335 57.7816 65.6677 57.6129C65.9671 57.4443 66.2332 57.1744 66.4328 56.8708C66.6324 56.5672 66.7988 56.2299 66.8653 55.8589C66.9651 55.4878 66.9984 55.0831 66.9984 54.712C66.9984 53.7001 66.7655 52.9243 66.333 52.3846C65.9006 51.8111 65.3018 51.5413 64.5367 51.5413C64.0709 51.5413 63.705 51.6425 63.3723 51.8449C63.0729 52.0473 62.8068 52.2834 62.6072 52.587C62.4076 52.8905 62.2745 53.2279 62.1747 53.6326C62.1415 53.9699 62.1082 54.3747 62.1082 54.7795Z" fill="#333333"/>
<path d="M70.1919 50.192H72.321L74.5831 57.1069H74.6163L76.7787 50.192H78.8079L75.6476 59.1982H73.452L70.1919 50.192Z" fill="#333333"/>
<path d="M80.0055 46.7515H81.9682V48.6404H80.0055V46.7515ZM80.0055 50.192H81.9682V59.1983H80.0055V50.192Z" fill="#333333"/>
<path d="M85.561 56.2975C85.6275 56.8709 85.8271 57.2757 86.2263 57.5118C86.5922 57.7479 87.0579 57.8491 87.5902 57.8491C87.7565 57.8491 87.9894 57.8491 88.2223 57.8154C88.4551 57.7816 88.688 57.7479 88.8876 57.6467C89.0872 57.5793 89.2535 57.4443 89.3866 57.2757C89.5197 57.107 89.5862 56.9046 89.5529 56.6685C89.5529 56.3987 89.4531 56.1963 89.2868 56.0276C89.1205 55.859 88.8876 55.724 88.6215 55.6229C88.3553 55.5217 88.0559 55.4542 87.69 55.3867C87.3573 55.3193 86.9914 55.2518 86.6588 55.1506C86.2928 55.0832 85.9269 54.982 85.5942 54.847C85.2616 54.7458 84.9622 54.5772 84.696 54.3748C84.4299 54.1724 84.197 53.9363 84.064 53.6327C83.8976 53.3291 83.8311 52.9581 83.8311 52.4859C83.8311 52.0136 83.9642 51.5751 84.197 51.2715C84.4299 50.9342 84.7293 50.6644 85.0952 50.462C85.4612 50.2596 85.8604 50.1247 86.2928 50.0235C86.7253 49.956 87.1578 49.8885 87.5569 49.8885C88.0227 49.8885 88.4551 49.9223 88.8543 50.0235C89.2868 50.1247 89.6527 50.2933 89.9854 50.4957C90.318 50.7318 90.6174 51.0017 90.817 51.3727C91.0499 51.7438 91.183 52.1485 91.2495 52.6545H89.2203C89.1205 52.1823 88.9209 51.845 88.5882 51.71C88.2555 51.5414 87.8563 51.4739 87.4239 51.4739C87.2908 51.4739 87.1245 51.4739 86.9249 51.5076C86.7253 51.5414 86.559 51.5751 86.3926 51.6426C86.2263 51.71 86.0932 51.8112 85.9602 51.9124C85.8604 52.0473 85.7938 52.1823 85.7938 52.3847C85.7938 52.6208 85.8604 52.8232 86.0267 52.9918C86.193 53.1267 86.4259 53.2617 86.692 53.3629C86.9582 53.4641 87.2575 53.5315 87.6235 53.599C87.9894 53.6664 88.3221 53.7339 88.688 53.8351C89.0539 53.9026 89.3866 54.0038 89.7193 54.1387C90.0519 54.2399 90.3846 54.4085 90.6507 54.6109C90.9168 54.8133 91.1497 55.0494 91.316 55.353C91.4824 55.6566 91.5489 56.0276 91.5489 56.4661C91.5489 57.0058 91.4158 57.4443 91.183 57.8154C90.9501 58.1864 90.6174 58.49 90.2515 58.7261C89.8523 58.9622 89.4531 59.1309 88.9874 59.2321C88.5217 59.3333 88.0559 59.4007 87.5902 59.4007C87.0247 59.4007 86.5257 59.3333 86.0267 59.1984C85.561 59.0634 85.1285 58.861 84.7958 58.6249C84.4299 58.3551 84.1638 58.0515 83.9642 57.6467C83.7646 57.2419 83.6648 56.8034 83.6315 56.2637H85.561V56.2975Z" fill="#333333"/>
<path d="M94.5429 55.1842C94.5429 55.5215 94.5761 55.8588 94.6759 56.1961C94.7757 56.5334 94.9088 56.8033 95.1084 57.0394C95.308 57.2755 95.5409 57.4779 95.8402 57.6128C96.1396 57.7478 96.5056 57.8152 96.9048 57.8152C97.4703 57.8152 97.936 57.6803 98.302 57.4442C98.6346 57.2081 98.9007 56.837 99.0671 56.331H100.93C100.83 56.8033 100.631 57.2418 100.398 57.6466C100.132 58.0176 99.8322 58.3549 99.4995 58.6248C99.1336 58.8946 98.7344 59.097 98.302 59.1982C97.8695 59.3331 97.4038 59.4006 96.9048 59.4006C96.2062 59.4006 95.6074 59.2994 95.0419 59.0633C94.5096 58.8272 94.0439 58.4898 93.6779 58.0851C93.312 57.6803 93.0126 57.1743 92.8463 56.6009C92.6467 56.0275 92.5469 55.3866 92.5469 54.6782C92.5469 54.0373 92.6467 53.4302 92.8463 52.8567C93.0459 52.2833 93.3453 51.7773 93.7112 51.3388C94.0771 50.9003 94.5429 50.563 95.0419 50.2932C95.5741 50.0233 96.1729 49.9221 96.8382 49.9221C97.5368 49.9221 98.1689 50.057 98.7344 50.3606C99.2999 50.6642 99.7657 51.0352 100.132 51.5412C100.498 52.0135 100.764 52.5869 100.93 53.2278C101.096 53.8687 101.13 54.5096 101.063 55.1842H94.5429ZM99.1003 53.9024C99.0671 53.5988 99.0005 53.2952 98.9007 52.9917C98.8009 52.6881 98.6346 52.452 98.4683 52.2496C98.2687 52.0472 98.0358 51.8448 97.7697 51.7436C97.5036 51.6087 97.2042 51.5412 96.8715 51.5412C96.5388 51.5412 96.2062 51.6087 95.94 51.7099C95.6739 51.8448 95.4078 52.0135 95.2082 52.2158C95.0086 52.4182 94.8423 52.6881 94.7425 52.9579C94.6094 53.2615 94.5429 53.5651 94.5429 53.9024H99.1003Z" fill="#333333"/>
<path d="M102.56 50.192H104.39V51.9461H104.423C104.489 51.71 104.589 51.4738 104.756 51.2377C104.922 51.0016 105.122 50.7992 105.354 50.5968C105.587 50.3944 105.853 50.2595 106.153 50.1246C106.452 50.0234 106.718 49.9559 107.018 49.9559C107.251 49.9559 107.417 49.9559 107.483 49.9559C107.583 49.9559 107.65 49.9897 107.75 49.9897V51.9123C107.617 51.8786 107.483 51.8786 107.317 51.8449C107.184 51.8449 107.018 51.8111 106.885 51.8111C106.552 51.8111 106.253 51.8786 105.953 52.0135C105.654 52.1485 105.421 52.3508 105.188 52.6207C104.955 52.8905 104.789 53.1941 104.656 53.5989C104.523 53.9699 104.456 54.4084 104.456 54.9144V59.1983H102.494V50.192H102.56Z" fill="#333333"/>
<path d="M110.045 56.2975C110.111 56.8709 110.311 57.2757 110.71 57.5118C111.109 57.7479 111.542 57.8491 112.074 57.8491C112.241 57.8491 112.473 57.8491 112.706 57.8154C112.939 57.7816 113.172 57.7479 113.372 57.6467C113.571 57.5793 113.738 57.4443 113.871 57.2757C114.004 57.107 114.07 56.9046 114.037 56.6685C114.037 56.3987 113.937 56.1963 113.771 56.0276C113.604 55.859 113.372 55.724 113.105 55.6229C112.839 55.5217 112.54 55.4542 112.174 55.3867C111.841 55.3193 111.475 55.2518 111.143 55.1506C110.777 55.0832 110.411 54.982 110.078 54.847C109.746 54.7458 109.446 54.5772 109.18 54.3748C108.914 54.1724 108.681 53.9363 108.548 53.6327C108.382 53.3291 108.315 52.9581 108.315 52.4859C108.315 52.0136 108.448 51.5751 108.681 51.2715C108.914 50.9342 109.213 50.6644 109.579 50.462C109.945 50.2596 110.344 50.1247 110.777 50.0235C111.209 49.956 111.642 49.8885 112.041 49.8885C112.507 49.8885 112.939 49.9223 113.338 50.0235C113.771 50.1247 114.137 50.2933 114.469 50.4957C114.802 50.7318 115.101 51.0017 115.301 51.3727C115.534 51.7438 115.667 52.1485 115.734 52.6545H113.704C113.604 52.1823 113.405 51.845 113.072 51.71C112.74 51.5414 112.34 51.4739 111.908 51.4739C111.775 51.4739 111.608 51.4739 111.409 51.5076C111.209 51.5414 111.043 51.5751 110.877 51.6426C110.71 51.71 110.577 51.8112 110.444 51.9124C110.344 52.0473 110.278 52.1823 110.278 52.3847C110.278 52.6208 110.378 52.8232 110.544 52.9918C110.71 53.1267 110.943 53.2617 111.209 53.3629C111.475 53.4641 111.775 53.5315 112.141 53.599C112.473 53.6664 112.839 53.7339 113.205 53.8351C113.571 53.9026 113.904 54.0038 114.237 54.1387C114.569 54.2399 114.902 54.4085 115.168 54.6109C115.434 54.8133 115.667 55.0494 115.833 55.353C116 55.6566 116.066 56.0276 116.066 56.4661C116.066 57.0058 115.933 57.4443 115.7 57.8154C115.467 58.1864 115.135 58.49 114.769 58.7261C114.37 58.9622 113.97 59.1309 113.505 59.2321C113.039 59.3333 112.573 59.4007 112.107 59.4007C111.542 59.4007 111.043 59.3333 110.544 59.1984C110.078 59.0634 109.646 58.861 109.313 58.6249C108.947 58.3551 108.681 58.0515 108.481 57.6467C108.282 57.2419 108.182 56.8034 108.182 56.2637H110.045V56.2975Z" fill="#333333"/>
</g>
<defs>
<clipPath id="clip0">
<rect width="182" height="65" fill="white"/>
</clipPath>
</defs>
</svg>
