<svg width="185" height="65" viewBox="0 0 185 65" fill="none" xmlns="http://www.w3.org/2000/svg">
<g clip-path="url(#clip0)">
<path d="M58.8037 17.1354C59.6491 17.1354 60.4268 17.2028 61.1369 17.3715C61.847 17.5064 62.4219 17.7763 62.9291 18.1136C63.4363 18.4509 63.8083 18.8894 64.0788 19.4628C64.3493 20.0363 64.4846 20.7109 64.4846 21.5542C64.4846 22.4649 64.2817 23.207 63.8759 23.7804C63.4701 24.3876 62.8615 24.8598 62.0837 25.2646C63.1658 25.5682 64.0112 26.1416 64.5522 26.9174C65.0932 27.6932 65.3637 28.6714 65.3637 29.7508C65.3637 30.6616 65.1947 31.4374 64.8565 32.0783C64.5184 32.7192 64.045 33.2589 63.4363 33.6974C62.8615 34.1022 62.1852 34.4057 61.4074 34.6081C60.6635 34.8105 59.8858 34.9117 59.0742 34.9117H50.4515V17.1354H58.8037ZM58.2965 24.3539C59.0066 24.3539 59.5814 24.1852 60.021 23.8479C60.4606 23.5106 60.6973 22.9709 60.6973 22.2288C60.6973 21.824 60.6297 21.4867 60.4606 21.2169C60.3254 20.947 60.1225 20.7446 59.852 20.6097C59.6152 20.4748 59.3109 20.3736 59.0066 20.3061C58.6684 20.2386 58.3303 20.2049 57.9921 20.2049H54.3402V24.3539H58.2965ZM58.5332 31.8759C58.9051 31.8759 59.2771 31.8422 59.6491 31.7747C59.9872 31.7073 60.2915 31.5723 60.5621 31.4037C60.8326 31.235 61.0355 30.9989 61.2045 30.6953C61.3736 30.3917 61.4412 30.0207 61.4412 29.5485C61.4412 28.6377 61.1707 27.9968 60.6635 27.592C60.1563 27.1873 59.48 27.0186 58.6008 27.0186H54.3402V31.9096H58.5332V31.8759Z" fill="#333333"/>
<path d="M71.2475 17.1354V34.9117H67.697V17.1354H71.2475Z" fill="#333333"/>
<path d="M73.885 26.0066C73.9189 25.1634 74.1556 24.4887 74.4937 23.949C74.8657 23.4093 75.3391 22.9708 75.8801 22.6335C76.455 22.2962 77.0974 22.0601 77.7737 21.9252C78.4838 21.7902 79.1939 21.7228 79.904 21.7228C80.5465 21.7228 81.2228 21.7565 81.8653 21.8577C82.5416 21.9589 83.1503 22.1276 83.6913 22.3974C84.2323 22.6673 84.6719 23.0383 85.0439 23.5105C85.382 23.9828 85.5511 24.6237 85.5511 25.3995V32.0445C85.5511 32.618 85.5849 33.1914 85.6525 33.6974C85.7202 34.2371 85.8216 34.6418 85.9907 34.8779H82.4063C82.3387 34.6756 82.2711 34.4732 82.2373 34.2708C82.2034 34.0684 82.1696 33.866 82.1358 33.6299C81.561 34.2033 80.9185 34.6081 80.1407 34.8442C79.363 35.0803 78.5853 35.1815 77.8075 35.1815C77.1989 35.1815 76.624 35.1141 76.083 34.9454C75.542 34.8105 75.0685 34.5744 74.6966 34.2371C74.2908 33.9335 73.9865 33.5287 73.7498 33.0565C73.5131 32.5842 73.4116 32.0108 73.4116 31.3362C73.4116 30.5941 73.5469 29.9869 73.7836 29.5147C74.0541 29.0424 74.3584 28.6714 74.798 28.3678C75.2038 28.098 75.6772 27.8619 76.1844 27.7269C76.6917 27.592 77.2327 27.4908 77.7737 27.3896C78.3148 27.3222 78.822 27.2547 79.3292 27.1872C79.8364 27.1535 80.3098 27.0523 80.7156 26.9511C81.1214 26.8499 81.4257 26.715 81.6624 26.5126C81.8991 26.3102 82.0006 26.0404 82.0006 25.6693C82.0006 25.2983 81.9329 24.9947 81.7977 24.7586C81.6624 24.5225 81.4933 24.3538 81.2904 24.2526C81.0876 24.1177 80.8509 24.0502 80.5803 24.0165C80.3098 23.9828 80.0055 23.949 79.7012 23.949C78.9911 23.949 78.45 24.084 78.0442 24.3875C77.6385 24.6911 77.4018 25.1971 77.3341 25.8717H73.885V26.0066ZM82.0682 28.6039C81.8991 28.7389 81.73 28.8401 81.4933 28.9075C81.2566 28.975 81.0199 29.0424 80.7832 29.1099C80.5127 29.1436 80.2422 29.2111 79.9717 29.2448C79.7012 29.2786 79.3968 29.3123 79.1263 29.3798C78.8558 29.4135 78.5853 29.481 78.3486 29.5821C78.0781 29.6496 77.8752 29.7845 77.6723 29.9195C77.4694 30.0544 77.3341 30.223 77.1989 30.4592C77.0974 30.6615 77.0298 30.9651 77.0298 31.2687C77.0298 31.5723 77.0974 31.8421 77.1989 32.0783C77.3341 32.2806 77.4694 32.4493 77.6723 32.5842C77.8752 32.7191 78.1119 32.7866 78.3824 32.8541C78.6529 32.8878 78.9234 32.9215 79.1939 32.9215C79.904 32.9215 80.4451 32.8203 80.817 32.5842C81.189 32.3481 81.4933 32.0783 81.6624 31.7409C81.8315 31.4036 81.9667 31.1 82.0006 30.7627C82.0344 30.4254 82.0682 30.1556 82.0682 29.9532V28.6039Z" fill="#333333"/>
<path d="M94.5458 24.3538C93.9709 24.3538 93.4975 24.4888 93.1256 24.7249C92.7536 24.9947 92.4493 25.2983 92.1788 25.7368C91.9421 26.1416 91.773 26.5801 91.6716 27.0861C91.5701 27.592 91.5363 28.0643 91.5363 28.5365C91.5363 29.0088 91.5701 29.481 91.6716 29.9532C91.773 30.4255 91.9421 30.864 92.145 31.2687C92.3817 31.6735 92.686 31.9771 93.058 32.2132C93.4299 32.4493 93.9033 32.5843 94.4443 32.5843C95.2897 32.5843 95.9322 32.3481 96.4056 31.8759C96.879 31.4037 97.1495 30.7628 97.251 29.987H100.666C100.43 31.7072 99.7532 32.989 98.6712 33.8998C97.5553 34.8105 96.1689 35.249 94.4443 35.249C93.4975 35.249 92.5845 35.0804 91.773 34.7768C90.9614 34.4732 90.2851 34.001 89.7103 33.4275C89.1354 32.8541 88.6959 32.1458 88.3915 31.3362C88.0872 30.5267 87.9181 29.6496 87.9181 28.6714C87.9181 27.6595 88.0534 26.7488 88.3577 25.9055C88.662 25.0622 89.0678 24.3201 89.6427 23.6792C90.2175 23.0721 90.8938 22.5661 91.7054 22.2288C92.5169 21.8915 93.4637 21.6891 94.512 21.6891C95.2897 21.6891 95.9998 21.7903 96.7099 21.9927C97.42 22.1951 98.0625 22.4986 98.6036 22.9034C99.1446 23.3082 99.618 23.8142 99.9561 24.4213C100.294 25.0285 100.497 25.7368 100.565 26.5801H97.0819C96.9128 25.0959 96.0336 24.3538 94.5458 24.3538Z" fill="#333333"/>
<path d="M106.55 17.1354V26.6813L111.014 22.0601H115.207L110.337 26.7825L115.748 34.9117H111.453L107.903 29.1774L106.516 30.4929V34.9117H102.966V17.1354H106.55Z" fill="#333333"/>
<path d="M120.008 31.7073C120.177 31.9771 120.38 32.2132 120.617 32.3819C120.854 32.5505 121.158 32.6855 121.462 32.7529C121.8 32.8204 122.139 32.8878 122.477 32.8878C122.713 32.8878 122.984 32.8541 123.254 32.7866C123.525 32.7192 123.762 32.6517 123.998 32.5168C124.235 32.3819 124.404 32.2132 124.573 32.0108C124.742 31.8084 124.81 31.5386 124.81 31.235C124.81 30.6953 124.472 30.2905 123.762 30.0544C123.052 29.7846 122.071 29.5147 120.786 29.2449C120.279 29.1437 119.772 29.0088 119.264 28.8401C118.791 28.6714 118.351 28.4691 117.946 28.2329C117.574 27.9631 117.269 27.6595 117.033 27.2547C116.796 26.85 116.694 26.3777 116.694 25.838C116.694 24.9947 116.863 24.3201 117.168 23.7804C117.506 23.2407 117.912 22.8359 118.453 22.5324C118.994 22.2288 119.569 21.9927 120.245 21.8915C120.921 21.7565 121.598 21.6891 122.308 21.6891C123.018 21.6891 123.694 21.7565 124.337 21.8915C124.979 22.0264 125.588 22.2625 126.095 22.5661C126.602 22.8697 127.042 23.3082 127.38 23.8142C127.718 24.3538 127.921 24.9947 127.988 25.8043H124.607C124.573 25.1297 124.303 24.6574 123.829 24.4213C123.356 24.1852 122.815 24.0503 122.172 24.0503C121.969 24.0503 121.767 24.0503 121.53 24.084C121.293 24.1177 121.09 24.1515 120.887 24.2527C120.685 24.3201 120.549 24.455 120.414 24.6237C120.279 24.7924 120.211 24.9947 120.211 25.2646C120.211 25.5682 120.313 25.838 120.549 26.0404C120.786 26.2428 121.09 26.4115 121.462 26.5126C121.834 26.6476 122.274 26.7488 122.747 26.85C123.221 26.9512 123.728 27.0523 124.201 27.1873C124.708 27.2885 125.216 27.4571 125.723 27.6258C126.23 27.7944 126.636 27.9968 127.042 28.3004C127.414 28.5703 127.718 28.9076 127.955 29.3123C128.191 29.7171 128.293 30.2231 128.293 30.8302C128.293 31.6735 128.124 32.3819 127.786 32.9553C127.447 33.5287 127.008 34.001 126.467 34.3383C125.926 34.6756 125.283 34.9454 124.573 35.0804C123.863 35.2153 123.153 35.2828 122.409 35.2828C121.665 35.2828 120.921 35.2153 120.211 35.0466C119.501 34.9117 118.859 34.6419 118.317 34.3046C117.776 33.9672 117.303 33.495 116.931 32.9216C116.559 32.3481 116.39 31.6398 116.356 30.7628H119.738C119.772 31.1338 119.839 31.4374 120.008 31.7073Z" fill="#333333"/>
<path d="M133.974 17.1354V23.8479H134.041C134.481 23.1058 135.056 22.5661 135.766 22.2288C136.476 21.8915 137.152 21.7228 137.829 21.7228C138.775 21.7228 139.553 21.8577 140.162 22.0939C140.77 22.3637 141.244 22.701 141.582 23.1733C141.92 23.6455 142.191 24.1852 142.326 24.8261C142.461 25.467 142.529 26.2091 142.529 27.0186V34.9454H138.978V27.6595C138.978 26.6138 138.809 25.8043 138.471 25.2983C138.133 24.7586 137.558 24.5225 136.713 24.5225C135.732 24.5225 135.056 24.7924 134.616 25.3658C134.177 25.9392 133.974 26.8837 133.974 28.1992V34.9454H130.423V17.1354H133.974Z" fill="#333333"/>
<path d="M145.302 20.0699V17.1691H148.852V20.0699H145.302ZM148.852 22.0601V34.9454H145.302V22.0601H148.852Z" fill="#333333"/>
<path d="M155.446 31.8421C155.987 32.3481 156.731 32.618 157.745 32.618C158.456 32.618 159.064 32.4493 159.605 32.0783C160.112 31.7072 160.451 31.3362 160.552 30.9314H163.663C163.156 32.483 162.412 33.5624 161.364 34.237C160.315 34.9117 159.098 35.249 157.61 35.249C156.596 35.249 155.683 35.0803 154.871 34.7767C154.06 34.4394 153.349 34.0009 152.808 33.3938C152.234 32.7866 151.794 32.0783 151.49 31.2687C151.185 30.4254 151.016 29.5147 151.016 28.5365C151.016 27.5583 151.185 26.6813 151.49 25.838C151.794 24.9947 152.267 24.2863 152.842 23.6792C153.417 23.072 154.127 22.5998 154.939 22.2625C155.75 21.9252 156.63 21.7228 157.61 21.7228C158.726 21.7228 159.673 21.9252 160.484 22.3637C161.296 22.8022 161.972 23.3419 162.479 24.084C162.987 24.7923 163.392 25.6019 163.629 26.5126C163.866 27.4233 163.933 28.3678 163.866 29.3798H154.567C154.634 30.4929 154.905 31.3024 155.446 31.8421ZM159.47 25.0622C159.03 24.5899 158.388 24.3538 157.543 24.3538C156.968 24.3538 156.494 24.455 156.122 24.6574C155.75 24.8598 155.446 25.0959 155.209 25.3657C154.973 25.6356 154.837 25.9392 154.736 26.2765C154.634 26.5801 154.601 26.8836 154.567 27.1198H160.349C160.18 26.209 159.876 25.5344 159.47 25.0622Z" fill="#333333"/>
<path d="M169.614 17.1354V34.9117H166.064V17.1354H169.614Z" fill="#333333"/>
<path d="M181.585 33.2589C181.179 33.9672 180.638 34.4732 179.962 34.7768C179.285 35.0804 178.541 35.249 177.662 35.249C176.715 35.249 175.836 35.0466 175.126 34.6756C174.382 34.3046 173.807 33.7986 173.334 33.1577C172.861 32.5168 172.489 31.7747 172.252 30.9652C172.015 30.1219 171.88 29.2786 171.88 28.3679C171.88 27.4909 172.015 26.6813 172.252 25.8718C172.489 25.0622 172.861 24.3539 173.334 23.7467C173.807 23.1395 174.416 22.6336 175.126 22.2625C175.836 21.8915 176.682 21.6891 177.628 21.6891C178.406 21.6891 179.116 21.8577 179.826 22.1613C180.503 22.4986 181.077 22.9709 181.449 23.578H181.483V17.1354H185.034V34.9117H181.652V33.2589H181.585ZM181.416 26.9174C181.314 26.4115 181.145 26.0067 180.908 25.6356C180.672 25.2646 180.367 24.961 179.962 24.7249C179.59 24.4888 179.082 24.3876 178.508 24.3876C177.933 24.3876 177.426 24.4888 177.02 24.7249C176.614 24.961 176.31 25.2646 176.073 25.6356C175.836 26.0067 175.667 26.4452 175.566 26.9512C175.464 27.4234 175.397 27.9631 175.397 28.4691C175.397 28.975 175.464 29.481 175.566 29.9532C175.701 30.4592 175.87 30.8977 176.141 31.2687C176.411 31.6735 176.715 31.9771 177.121 32.2132C177.527 32.4493 177.967 32.5843 178.541 32.5843C179.116 32.5843 179.623 32.4831 179.995 32.2469C180.367 32.0108 180.706 31.7073 180.942 31.3025C181.179 30.8977 181.348 30.4592 181.449 29.987C181.551 29.481 181.585 28.975 181.585 28.4353C181.585 27.8956 181.517 27.3897 181.416 26.9174Z" fill="#333333"/>
<path d="M0.0338135 11.7384V64.8313H0.507219C21.6414 64.8313 38.9545 47.5609 38.9545 26.3103V17.6076C38.9207 17.6076 31.6167 17.7088 23.3321 17.6414C13.1201 17.5402 1.42021 16.3933 0.0338135 11.7384Z" fill="#C4C2C2"/>
<path d="M1.18351 10.0519C2.67135 12.2444 6.86437 14.6731 17.9556 15.0104C17.9556 12.2444 17.9556 6.67878 17.9556 0.472237V0H17.4822C8.18314 0 2.0965 2.1588 0.507216 5.86923C0.338143 6.44266 -0.0676335 8.23041 1.18351 10.0519Z" fill="#C4C2C2"/>
<path d="M33.3074 17.7089V26.2429C33.3074 45.8407 18.7671 62.1329 0 64.9326V65.0338H0.473405C21.6414 65.0338 38.9883 47.7297 38.9883 26.4453V17.6752C38.9545 17.6752 36.6889 17.6752 33.3074 17.7089Z" fill="url(#paint0_radial)"/>
<path d="M57.7892 50.9678C57.6878 50.5968 57.5525 50.2932 57.4173 49.9896C57.2482 49.686 57.0453 49.4162 56.8086 49.2138C56.5381 48.9777 56.2676 48.809 55.9294 48.7078C55.5913 48.5729 55.1855 48.5392 54.7459 48.5392C54.1035 48.5392 53.5286 48.6741 53.0214 48.944C52.548 49.2138 52.1422 49.5511 51.8379 50.0234C51.5335 50.4619 51.3307 50.9678 51.1616 51.5413C51.0263 52.1147 50.9587 52.6881 50.9587 53.2615C50.9587 53.835 51.0263 54.4421 51.1616 54.9818C51.2968 55.5553 51.5335 56.0612 51.8379 56.4997C52.1422 56.9382 52.5142 57.3093 53.0214 57.5791C53.4948 57.849 54.0696 57.9839 54.7459 57.9839C55.2193 57.9839 55.6589 57.9165 56.0309 57.7478C56.4028 57.5791 56.7072 57.343 56.9777 57.0394C57.2482 56.7359 57.4511 56.3985 57.5864 55.9938C57.7216 55.589 57.8231 55.1842 57.8907 54.7457H60.021C59.9872 55.4878 59.8181 56.1624 59.5476 56.7696C59.2771 57.3768 58.9051 57.9165 58.4317 58.355C57.9583 58.7935 57.4173 59.1308 56.8086 59.4006C56.2 59.6367 55.4899 59.7717 54.7459 59.7717C53.8329 59.7717 52.9876 59.603 52.2436 59.2657C51.4997 58.9284 50.8911 58.4562 50.3838 57.8827C49.8766 57.3093 49.4708 56.6009 49.2003 55.8251C48.9298 55.0493 48.7946 54.206 48.7946 53.329C48.7946 52.452 48.9298 51.6087 49.2003 50.8329C49.4708 50.0571 49.8766 49.3487 50.3838 48.7753C50.8911 48.2019 51.4997 47.7296 52.2436 47.3923C52.9876 47.055 53.7991 46.8864 54.7459 46.8864C55.456 46.8864 56.0985 46.9875 56.7072 47.1562C57.3158 47.3586 57.8569 47.6284 58.3303 47.9995C58.8037 48.3705 59.1756 48.809 59.48 49.315C59.7843 49.821 59.9534 50.4281 60.021 51.1028H57.7892V50.9678Z" fill="#333333"/>
<path d="M69.1848 57.4104C69.1848 57.6465 69.2186 57.8152 69.2862 57.9164C69.3539 58.0176 69.4891 58.085 69.6582 58.085C69.7258 58.085 69.7935 58.085 69.8611 58.085C69.9287 58.085 70.0302 58.085 70.1316 58.0513V59.4343C70.064 59.468 69.9625 59.468 69.8611 59.5017C69.7596 59.5355 69.6244 59.5692 69.5229 59.5692C69.4215 59.6029 69.2862 59.6029 69.1848 59.6367C69.0834 59.6367 68.9819 59.6704 68.8805 59.6704C68.4747 59.6704 68.1365 59.6029 67.866 59.4343C67.5955 59.2656 67.4264 58.9958 67.3588 58.591C66.953 58.962 66.4796 59.2319 65.9048 59.4343C65.3299 59.6029 64.7889 59.7041 64.2479 59.7041C63.8421 59.7041 63.4701 59.6367 63.0982 59.5355C62.7262 59.4343 62.388 59.2656 62.1175 59.0632C61.847 58.8609 61.6103 58.591 61.4412 58.2537C61.2722 57.9164 61.2045 57.5453 61.2045 57.1068C61.2045 56.5671 61.306 56.0949 61.5089 55.7576C61.7117 55.4203 61.9823 55.1504 62.3204 54.948C62.6586 54.7456 63.0305 54.6107 63.4363 54.5095C63.8421 54.4083 64.2479 54.3409 64.6874 54.3071C65.0594 54.2397 65.3976 54.206 65.7019 54.1722C66.04 54.1385 66.3105 54.1048 66.5473 54.0373C66.784 53.9698 66.9868 53.8686 67.1221 53.7337C67.2574 53.5988 67.325 53.3627 67.325 53.0928C67.325 52.8567 67.2574 52.6206 67.1559 52.4857C67.0207 52.317 66.8854 52.2158 66.7163 52.1146C66.5473 52.0134 66.3444 51.9797 66.1077 51.946C65.871 51.9122 65.6681 51.9122 65.499 51.9122C64.958 51.9122 64.4846 52.0134 64.1126 52.2495C63.7406 52.4857 63.5377 52.823 63.5039 53.3289H61.5427C61.5765 52.7555 61.7117 52.2833 61.9485 51.8785C62.1852 51.5075 62.4895 51.2039 62.8614 50.9678C63.2334 50.7316 63.673 50.563 64.1464 50.4955C64.6198 50.3943 65.0932 50.3606 65.6004 50.3606C66.04 50.3606 66.4796 50.3943 66.8854 50.4955C67.325 50.5967 67.6969 50.7316 68.0351 50.934C68.3732 51.1364 68.6438 51.4063 68.8467 51.7436C69.0495 52.0809 69.151 52.4857 69.151 52.9579V57.4104H69.1848ZM67.1897 54.9143C66.8854 55.1167 66.5134 55.2179 66.0738 55.2853C65.6343 55.3191 65.1947 55.3865 64.7551 55.454C64.5522 55.4877 64.3493 55.5215 64.1464 55.5889C63.9435 55.6564 63.7744 55.7239 63.6392 55.8588C63.5039 55.96 63.3687 56.1286 63.301 56.2973C63.1996 56.4659 63.1658 56.7021 63.1658 56.9382C63.1658 57.1743 63.2334 57.3429 63.3687 57.4779C63.5039 57.6128 63.6392 57.7477 63.8421 57.8152C64.0111 57.9164 64.214 57.9501 64.4169 57.9838C64.6198 58.0176 64.8227 58.0513 64.9918 58.0513C65.2285 58.0513 65.4652 58.0176 65.7019 57.9501C65.9386 57.8827 66.2091 57.7815 66.412 57.6465C66.6487 57.5116 66.8178 57.343 66.9868 57.1068C67.1221 56.9044 67.2235 56.6346 67.2235 56.331V54.9143H67.1897Z" fill="#333333"/>
<path d="M71.3489 50.4618H73.2087V51.6761H73.2426C73.5131 51.1702 73.9189 50.7991 74.3923 50.563C74.8995 50.3269 75.4405 50.2257 76.0154 50.2257C76.7255 50.2257 77.3341 50.3606 77.8752 50.5968C78.4162 50.8329 78.822 51.1702 79.1939 51.6087C79.5321 52.0472 79.8026 52.5532 79.9717 53.1266C80.1407 53.7 80.2422 54.3072 80.2422 54.9818C80.2422 55.589 80.1746 56.1624 80.0055 56.7358C79.8364 57.3093 79.5997 57.8152 79.2954 58.22C78.9911 58.6585 78.5853 58.9958 78.0781 59.2657C77.6046 59.5355 77.0298 59.6704 76.3535 59.6704C76.0492 59.6704 75.7787 59.6367 75.4743 59.603C75.17 59.5355 74.8995 59.4681 74.629 59.3669C74.3584 59.2657 74.1217 59.097 73.885 58.9284C73.6483 58.7597 73.4793 58.5236 73.3102 58.2875H73.2764V62.74H71.3489V50.4618ZM78.2471 54.9481C78.2471 54.5433 78.1795 54.1385 78.0781 53.7675C77.9766 53.3964 77.8075 53.0591 77.6047 52.7555C77.4018 52.452 77.1312 52.2159 76.8269 52.0472C76.5226 51.8785 76.1506 51.7773 75.7448 51.7773C74.8995 51.7773 74.2908 52.0809 73.8512 52.6544C73.4454 53.2278 73.2087 54.0036 73.2087 54.9481C73.2087 55.3866 73.2764 55.8251 73.3778 56.1961C73.4793 56.5672 73.6483 56.9045 73.885 57.1743C74.0879 57.4442 74.3584 57.6803 74.6628 57.8152C74.9671 57.9839 75.3391 58.0513 75.7448 58.0513C76.1844 58.0513 76.5902 57.9501 76.8945 57.7815C77.1989 57.6128 77.4694 57.343 77.6723 57.0731C77.8752 56.7696 78.0104 56.4322 78.1119 56.0612C78.2133 55.7239 78.2471 55.3191 78.2471 54.9481Z" fill="#333333"/>
<path d="M81.9329 47.0549H83.8942V48.9101H81.9329V47.0549ZM81.9329 50.4618H83.8942V59.4006H81.9329V50.4618Z" fill="#333333"/>
<path d="M85.1791 50.4618H86.667V47.797H88.6282V50.4618H90.4204V51.9459H88.6282V56.7358C88.6282 56.9382 88.6282 57.1068 88.662 57.2755C88.6959 57.4104 88.7297 57.5453 88.7973 57.6465C88.8649 57.7477 88.9664 57.8152 89.0678 57.8826C89.2031 57.9501 89.3721 57.9501 89.575 57.9501C89.7103 57.9501 89.8456 57.9501 89.9808 57.9501C90.1161 57.9501 90.2513 57.9164 90.3866 57.8826V59.4005C90.1837 59.4343 89.947 59.4343 89.7441 59.468C89.5412 59.5017 89.3383 59.5017 89.1016 59.5017C88.5944 59.5017 88.1548 59.468 87.8505 59.3668C87.5462 59.2656 87.2756 59.1307 87.1066 58.9283C86.9375 58.7259 86.8022 58.4898 86.7346 58.2199C86.667 57.9164 86.6332 57.6128 86.6332 57.2417V51.9797H85.1453V50.4618H85.1791Z" fill="#333333"/>
<path d="M99.3475 57.4104C99.3475 57.6465 99.3813 57.8152 99.4489 57.9164C99.5165 58.0176 99.6518 58.085 99.8209 58.085C99.8885 58.085 99.9561 58.085 100.024 58.085C100.091 58.085 100.193 58.085 100.294 58.0513V59.4343C100.227 59.468 100.125 59.468 100.024 59.5017C99.9223 59.5355 99.7871 59.5692 99.6856 59.5692C99.5842 59.6029 99.4489 59.6029 99.3475 59.6367C99.246 59.6704 99.1446 59.6704 99.0431 59.6704C98.6374 59.6704 98.2992 59.6029 98.0287 59.4343C97.7582 59.2656 97.5891 58.9958 97.5215 58.591C97.1157 58.962 96.6423 59.2319 96.0675 59.4343C95.4926 59.6029 94.9516 59.7041 94.4105 59.7041C94.0048 59.7041 93.6328 59.6367 93.2608 59.5355C92.8889 59.4343 92.5507 59.2656 92.2802 59.0632C92.0097 58.8609 91.773 58.591 91.6039 58.2537C91.4348 57.9164 91.3672 57.5453 91.3672 57.1068C91.3672 56.5671 91.4687 56.0949 91.6715 55.7576C91.8744 55.4203 92.145 55.1504 92.4831 54.948C92.8212 54.7456 93.1932 54.6107 93.599 54.5095C94.0048 54.4083 94.4105 54.3409 94.8501 54.3071C95.2221 54.2397 95.5602 54.206 95.8646 54.1722C96.2027 54.1385 96.4732 54.1048 96.7099 54.0373C96.9466 53.9698 97.1495 53.8686 97.2848 53.7337C97.42 53.5988 97.4877 53.3627 97.4877 53.0928C97.4877 52.8567 97.42 52.6206 97.3186 52.4857C97.1833 52.317 97.0481 52.2158 96.879 52.1146C96.7099 52.0134 96.507 51.9797 96.2703 51.946C96.0336 51.9122 95.8307 51.9122 95.6617 51.9122C95.1206 51.9122 94.6472 52.0134 94.2753 52.2495C93.9033 52.4857 93.7004 52.823 93.6666 53.3289H91.7054C91.7392 52.7555 91.8744 52.2833 92.1111 51.8785C92.3478 51.5075 92.6522 51.2039 93.0241 50.9678C93.3961 50.7316 93.8357 50.563 94.3091 50.4955C94.7825 50.3943 95.2559 50.3606 95.7631 50.3606C96.2027 50.3606 96.6423 50.3943 97.0481 50.4955C97.4877 50.5967 97.8596 50.7316 98.1978 50.934C98.5359 51.1364 98.8064 51.4063 99.0093 51.7436C99.2122 52.0809 99.3137 52.4857 99.3137 52.9579V57.4104H99.3475ZM97.3862 54.9143C97.0819 55.1167 96.7099 55.2179 96.2703 55.2853C95.8308 55.3191 95.3912 55.3865 94.9516 55.454C94.7487 55.4877 94.5458 55.5215 94.3429 55.5889C94.14 55.6564 93.9709 55.7239 93.8357 55.8588C93.7004 55.96 93.5652 56.1286 93.4975 56.2973C93.3961 56.4659 93.3623 56.7021 93.3623 56.9382C93.3623 57.1743 93.4299 57.3429 93.5652 57.4779C93.7004 57.6128 93.8357 57.7477 94.0386 57.8152C94.2076 57.9164 94.4105 57.9501 94.6134 57.9838C94.8163 58.0176 95.0192 58.0513 95.1883 58.0513C95.425 58.0513 95.6617 58.0176 95.8984 57.9501C96.1351 57.8827 96.4056 57.7815 96.6085 57.6465C96.8452 57.5116 97.0143 57.343 97.1833 57.1068C97.3186 56.9044 97.42 56.6346 97.42 56.331V54.9143H97.3862Z" fill="#333333"/>
<path d="M101.545 47.0549H103.507V59.4006H101.545V47.0549Z" fill="#333333"/>
<path d="M114.091 47.0549H116.39L121.158 59.4006H118.825L117.675 56.1286H112.738L111.588 59.4006H109.357L114.091 47.0549ZM113.313 54.4758H117.1L115.24 49.18H115.173L113.313 54.4758Z" fill="#333333"/>
<path d="M133.128 59.4006H131.742L131.404 57.9501C130.829 58.6248 130.254 59.0633 129.679 59.3331C129.104 59.603 128.428 59.7042 127.684 59.7042C126.771 59.7042 125.926 59.5355 125.182 59.1982C124.438 58.8609 123.829 58.3886 123.322 57.8152C122.815 57.2418 122.409 56.5334 122.139 55.7576C121.868 54.9818 121.733 54.1385 121.733 53.2615C121.733 52.3845 121.868 51.5412 122.139 50.7654C122.409 49.9896 122.815 49.2812 123.322 48.7078C123.829 48.1344 124.438 47.6621 125.182 47.3248C125.926 46.9875 126.737 46.8188 127.684 46.8188C128.36 46.8188 129.003 46.92 129.612 47.0887C130.22 47.2574 130.761 47.5272 131.235 47.8982C131.708 48.2356 132.114 48.7078 132.418 49.2138C132.723 49.7535 132.925 50.3606 132.993 51.0352H130.863C130.795 50.6305 130.694 50.2932 130.491 49.9558C130.288 49.6523 130.051 49.3824 129.781 49.18C129.476 48.9776 129.172 48.809 128.8 48.7078C128.428 48.6066 128.056 48.5391 127.684 48.5391C127.042 48.5391 126.467 48.6741 125.993 48.9439C125.52 49.2138 125.114 49.5511 124.81 50.0233C124.506 50.4618 124.303 50.9678 124.134 51.5412C123.998 52.1146 123.931 52.6881 123.931 53.2615C123.931 53.8349 123.998 54.4421 124.134 54.9818C124.269 55.5552 124.506 56.0612 124.81 56.4997C125.114 56.9382 125.486 57.3092 125.993 57.5791C126.467 57.8489 127.042 57.9839 127.684 57.9839C128.225 57.9839 128.732 57.9164 129.172 57.7815C129.612 57.6128 129.95 57.4104 130.254 57.1069C130.558 56.8033 130.761 56.466 130.93 56.0275C131.066 55.589 131.167 55.1167 131.167 54.6108H127.887V52.9579H133.162V59.4006H133.128Z" fill="#333333"/>
</g>
<defs>
<radialGradient id="paint0_radial" cx="0" cy="0" r="1" gradientUnits="userSpaceOnUse" gradientTransform="translate(19.4881 41.3325) scale(21.7133 21.6597)">
<stop offset="0.3776" stop-color="#C55527"/>
<stop offset="1" stop-color="#E66A24"/>
</radialGradient>
<clipPath id="clip0">
<rect width="185" height="65" fill="white"/>
</clipPath>
</defs>
</svg>
