<svg width="182" height="64" viewBox="0 0 182 64" fill="none" xmlns="http://www.w3.org/2000/svg">
<g clip-path="url(#clip0)">
<path d="M57.8412 16.8777C58.6077 16.8704 59.3727 16.945 60.1233 17.1002C60.7542 17.2243 61.3552 17.469 61.8931 17.8209C62.3849 18.1546 62.7788 18.6131 63.0342 19.1493C63.3244 19.7948 63.4632 20.4979 63.44 21.205C63.4681 21.9851 63.2581 22.7552 62.8379 23.4135C62.3838 24.0444 61.7694 24.5431 61.0581 24.8582C62.0326 25.0979 62.8899 25.6759 63.4766 26.4888C63.9438 27.2484 64.2143 28.1121 64.2637 29.002C64.313 29.892 64.1397 30.7802 63.7594 31.5866C63.4288 32.2157 62.9533 32.7575 62.3722 33.1674C61.7676 33.5883 61.0912 33.8955 60.3761 34.0741C59.6285 34.2729 58.8578 34.3723 58.0841 34.3697H49.591V16.8777H57.8412ZM57.3488 23.9615C57.9525 23.9868 58.548 23.8155 59.0455 23.4733C59.4846 23.1412 59.7108 22.6131 59.7108 21.8792C59.7217 21.5336 59.6451 21.1909 59.4879 20.8829C59.3467 20.6237 59.1373 20.4079 58.8825 20.2585C58.6218 20.1061 58.3354 20.0026 58.0375 19.953C57.7082 19.8934 57.3741 19.8645 57.0395 19.8666H53.4466V23.9615H57.3488ZM57.5717 31.3907C57.9351 31.3908 58.2975 31.353 58.6529 31.2778C58.9751 31.2111 59.2827 31.0874 59.5611 30.9125C59.8243 30.7382 60.0394 30.5007 60.1865 30.2217C60.3551 29.871 60.435 29.4845 60.4194 29.0958C60.4194 28.1969 60.1655 27.556 59.6576 27.1729C59.0693 26.7632 58.3614 26.56 57.6449 26.5951H53.4466V31.3907H57.5717Z" fill="#333333"/>
<path d="M70.0934 16.8777V34.3796H66.6037V16.8777H70.0934Z" fill="#333333"/>
<path d="M72.6949 25.6053C72.7165 24.888 72.9277 24.1891 73.307 23.5794C73.6621 23.0496 74.1315 22.6059 74.6809 22.2809C75.2646 21.9466 75.8997 21.7109 76.5605 21.5835C77.2527 21.4445 77.9569 21.3745 78.663 21.3743C79.3107 21.3756 79.9576 21.4211 80.5991 21.5104C81.2219 21.5894 81.8283 21.7665 82.3955 22.0352C82.9218 22.2854 83.3787 22.6606 83.7262 23.1278C84.0929 23.673 84.2738 24.3217 84.2418 24.9776V31.55C84.2387 32.105 84.271 32.6596 84.3383 33.2105C84.3657 33.6213 84.479 34.0218 84.671 34.3861H81.1413C81.0749 34.1895 81.0216 33.9887 80.9817 33.785C80.9408 33.5788 80.9119 33.3703 80.8952 33.1607C80.355 33.7228 79.6791 34.1368 78.9324 34.3629C78.1836 34.5872 77.4055 34.6991 76.6237 34.695C76.0516 34.7001 75.4817 34.6252 74.9304 34.4725C74.4309 34.3392 73.9636 34.1065 73.5565 33.7884C73.1594 33.4737 72.8425 33.0697 72.6317 32.6094C72.3986 32.0769 72.2851 31.4999 72.299 30.919C72.2758 30.3045 72.4061 29.6939 72.6782 29.1422C72.9172 28.6963 73.2594 28.3137 73.6762 28.0263C74.0948 27.7408 74.5596 27.5295 75.0502 27.402C75.5635 27.2617 76.0844 27.1508 76.6104 27.0699C77.1327 26.9868 77.6483 26.9204 78.154 26.8706C78.6092 26.8329 79.0608 26.7596 79.5046 26.6514C79.839 26.5805 80.1544 26.439 80.4294 26.2363C80.5474 26.1368 80.6394 26.0101 80.6973 25.8672C80.7553 25.7243 80.7775 25.5694 80.7621 25.416C80.7776 25.1061 80.7135 24.7975 80.5758 24.5193C80.4607 24.308 80.2921 24.1305 80.0868 24.0045C79.8678 23.8776 79.6259 23.7953 79.3749 23.7621C79.0865 23.7182 78.795 23.6971 78.5033 23.699C77.9285 23.6671 77.3589 23.8221 76.8799 24.1407C76.667 24.3223 76.4949 24.5465 76.3745 24.7988C76.2541 25.0511 76.1883 25.3259 76.1812 25.6053H72.6949ZM80.7488 28.1758C80.5878 28.3153 80.3999 28.4204 80.1966 28.4846C79.9627 28.5619 79.7237 28.6229 79.4813 28.6673C79.2285 28.7171 78.9657 28.757 78.6829 28.7902C78.4002 28.8234 78.1274 28.8666 77.8512 28.913C77.59 28.9615 77.3322 29.027 77.0794 29.109C76.8411 29.1831 76.6165 29.2952 76.4141 29.4411C76.2251 29.5801 76.0694 29.7594 75.9584 29.9658C75.8371 30.2183 75.7789 30.4963 75.7887 30.7762C75.7803 31.0473 75.8385 31.3164 75.9584 31.5599C76.0664 31.7663 76.2285 31.9396 76.4274 32.0614C76.6377 32.192 76.8717 32.28 77.116 32.3204C77.3826 32.3703 77.6533 32.3948 77.9244 32.3935C78.4769 32.4282 79.0286 32.3135 79.5212 32.0614C79.8687 31.858 80.1566 31.5671 80.3562 31.2179C80.5282 30.9188 80.6412 30.5896 80.6889 30.2481C80.7223 29.9881 80.7423 29.7265 80.7488 29.4643V28.1758Z" fill="#333333"/>
<path d="M92.9976 23.9879C92.5033 23.971 92.0153 24.1029 91.5971 24.3665C91.2228 24.6219 90.9093 24.9564 90.6789 25.3462C90.4383 25.7582 90.2675 26.2071 90.1733 26.6746C90.0774 27.1458 90.0284 27.6252 90.0269 28.106C90.0287 28.5758 90.0778 29.0442 90.1733 29.5042C90.2647 29.956 90.4263 30.3908 90.6523 30.7927C90.8734 31.1732 91.1811 31.4963 91.5505 31.7359C91.9638 31.9903 92.4425 32.1184 92.9278 32.1046C93.2795 32.1274 93.632 32.0769 93.9631 31.9563C94.2941 31.8356 94.5964 31.6475 94.8506 31.4038C95.3263 30.8858 95.6235 30.2294 95.6989 29.5307H99.0622C98.836 31.2112 98.1806 32.4964 97.0995 33.3765C96.0183 34.2566 94.6377 34.7049 92.9511 34.7049C92.0557 34.7145 91.1669 34.5521 90.333 34.2267C89.5718 33.9307 88.8815 33.4781 88.307 32.8983C87.7407 32.3095 87.2994 31.6125 87.0096 30.8492C86.6878 30.0135 86.5286 29.1242 86.5405 28.2289C86.5322 27.2994 86.6772 26.3748 86.9697 25.4923C87.2356 24.686 87.6673 23.9439 88.2371 23.3137C88.8017 22.6917 89.4969 22.2018 90.2731 21.879C91.1453 21.5216 92.0816 21.3464 93.0243 21.3643C93.7587 21.3607 94.4899 21.4602 95.1966 21.6599C95.868 21.8416 96.5005 22.1443 97.0629 22.5532C97.6394 22.9685 98.1131 23.5101 98.4475 24.1364C98.782 24.7627 98.9683 25.4572 98.9924 26.1665H95.5792C95.3463 24.7163 94.4858 23.9901 92.9976 23.9879Z" fill="#333333"/>
<path d="M104.834 16.8777V26.2663L109.229 21.7065H113.35L108.563 26.356L113.886 34.3697H109.671L106.181 28.7239L104.834 30.0224V34.3863H101.344V16.8777H104.834Z" fill="#333333"/>
<path d="M118.054 31.2179C118.203 31.4816 118.408 31.7086 118.656 31.8821C118.913 32.0589 119.199 32.1872 119.501 32.2607C119.827 32.3441 120.163 32.3854 120.499 32.3836C120.76 32.3814 121.02 32.3524 121.275 32.2973C121.532 32.2449 121.78 32.1542 122.01 32.0283C122.226 31.9113 122.413 31.748 122.559 31.55C122.714 31.3225 122.791 31.0511 122.778 30.7762C122.778 30.2548 122.429 29.8629 121.737 29.6006C120.787 29.2686 119.814 29.0056 118.826 28.8135C118.32 28.7006 117.828 28.5644 117.339 28.4116C116.884 28.2698 116.451 28.0629 116.055 27.7973C115.683 27.5518 115.372 27.226 115.143 26.8441C114.906 26.4125 114.791 25.9246 114.811 25.4327C114.785 24.7372 114.951 24.048 115.29 23.44C115.598 22.9267 116.032 22.5003 116.551 22.2013C117.1 21.8902 117.699 21.6746 118.32 21.5636C118.984 21.4421 119.658 21.3809 120.333 21.381C121.003 21.3805 121.672 21.4461 122.329 21.5769C122.94 21.6956 123.526 21.9204 124.059 22.2411C124.568 22.5543 125 22.9777 125.323 23.4799C125.683 24.0697 125.89 24.7397 125.925 25.4293H122.599C122.607 25.1553 122.54 24.8841 122.407 24.6445C122.273 24.4048 122.078 24.2056 121.84 24.0677C121.336 23.8211 120.781 23.6992 120.22 23.7124C120.007 23.7138 119.793 23.726 119.581 23.7489C119.366 23.772 119.156 23.8257 118.956 23.9083C118.775 23.9824 118.613 24.0972 118.483 24.2437C118.334 24.4525 118.266 24.7087 118.293 24.9639C118.32 25.2191 118.44 25.4555 118.63 25.6286C118.895 25.8439 119.198 26.0062 119.525 26.1068C119.941 26.2414 120.364 26.3523 120.792 26.4389C121.265 26.5353 121.75 26.6415 122.239 26.771C122.741 26.8832 123.236 27.0218 123.723 27.1862C124.184 27.3423 124.619 27.5662 125.014 27.8504C125.385 28.1134 125.695 28.4533 125.922 28.8467C126.159 29.3046 126.274 29.816 126.255 30.3312C126.276 31.0559 126.101 31.7728 125.749 32.4069C125.422 32.9601 124.965 33.4261 124.418 33.7652C123.852 34.1216 123.223 34.3673 122.565 34.4892C121.867 34.6289 121.156 34.699 120.443 34.6984C119.716 34.7002 118.991 34.6257 118.281 34.4759C117.627 34.3398 117.002 34.0915 116.434 33.7419C115.84 33.3766 115.351 32.8641 115.014 32.2542C114.677 31.6444 114.504 30.9579 114.511 30.2615H117.838C117.825 30.5937 117.9 30.9234 118.054 31.2179Z" fill="#333333"/>
<path d="M131.794 16.8777V23.4733H131.867C132.26 22.7823 132.849 22.2229 133.56 21.8659C134.184 21.5459 134.874 21.3743 135.576 21.3644C136.358 21.3375 137.137 21.4674 137.868 21.7463C138.424 21.9677 138.911 22.3307 139.282 22.7991C139.642 23.2853 139.889 23.8459 140.004 24.4397C140.15 25.1454 140.22 25.8646 140.213 26.5851V34.3796H136.727V27.2327C136.727 26.1855 136.563 25.4106 136.235 24.908C135.902 24.3932 135.327 24.1375 134.495 24.1375C133.543 24.1375 132.855 24.4165 132.432 24.9811C132.01 25.5456 131.794 26.4722 131.794 27.7641V34.4062H128.307V16.8777H131.794Z" fill="#333333"/>
<path d="M142.961 19.7471V16.8777H146.451V19.7471H142.961ZM146.451 21.7065V34.3796H142.961V21.7065H146.451Z" fill="#333333"/>
<path d="M152.931 31.3408C153.454 31.8456 154.209 32.1013 155.19 32.1013C155.841 32.1217 156.481 31.937 157.02 31.5732C157.449 31.318 157.777 30.9243 157.951 30.4574H161.012C160.52 31.9762 159.767 33.0633 158.753 33.7186C157.649 34.4025 156.369 34.7489 155.07 34.715C154.144 34.7203 153.224 34.5478 152.362 34.2068C151.592 33.9082 150.896 33.4433 150.327 32.8452C149.758 32.2429 149.319 31.5309 149.036 30.7529C148.726 29.8881 148.572 28.9749 148.583 28.0563C148.573 27.1495 148.731 26.2487 149.049 25.3994C149.343 24.6099 149.796 23.8888 150.38 23.2806C150.961 22.6778 151.658 22.1978 152.429 21.8691C153.264 21.5167 154.164 21.3414 155.07 21.3544C156.049 21.332 157.018 21.5462 157.895 21.9787C158.675 22.379 159.351 22.9541 159.871 23.6592C160.394 24.381 160.773 25.196 160.989 26.0603C161.218 26.9815 161.3 27.9331 161.231 28.8799H152.07C152.121 30.0112 152.408 30.8315 152.931 31.3408ZM156.87 24.6721C156.454 24.2171 155.819 23.988 154.971 23.988C154.492 23.97 154.017 24.0668 153.583 24.2703C153.241 24.4366 152.938 24.6744 152.695 24.9677C152.484 25.2294 152.326 25.5294 152.229 25.8511C152.147 26.1225 152.093 26.4019 152.07 26.6847H157.745C157.645 25.9461 157.342 25.2496 156.87 24.6721Z" fill="#333333"/>
<path d="M166.877 16.8777V34.3796H163.387V16.8777H166.877Z" fill="#333333"/>
<path d="M178.643 32.7623C178.274 33.4111 177.711 33.9288 177.033 34.2435C176.327 34.5561 175.56 34.7113 174.788 34.6985C173.921 34.7176 173.061 34.5285 172.283 34.1472C171.582 33.7937 170.974 33.282 170.506 32.6527C170.026 31.9989 169.668 31.2644 169.448 30.484C169.21 29.6548 169.091 28.7961 169.092 27.9335C169.091 27.0992 169.211 26.2691 169.448 25.4692C169.668 24.7112 170.026 24.0006 170.506 23.3737C170.976 22.7679 171.572 22.2715 172.253 21.919C173.014 21.5378 173.857 21.3485 174.708 21.3677C175.451 21.3654 176.185 21.5288 176.857 21.846C177.518 22.1474 178.076 22.6344 178.464 23.2475H178.514V16.8777H182V34.3796H178.673V32.7623H178.643ZM178.497 26.4988C178.405 26.0505 178.228 25.6235 177.978 25.2401C177.746 24.8731 177.43 24.5659 177.057 24.3434C176.622 24.103 176.129 23.988 175.633 24.0113C175.129 23.9912 174.63 24.1058 174.186 24.3434C173.805 24.5622 173.483 24.8699 173.247 25.2401C172.999 25.6351 172.825 26.0716 172.732 26.5287C172.624 27.0229 172.571 27.5273 172.572 28.0331C172.573 28.5284 172.629 29.0219 172.742 29.5043C172.846 29.9763 173.033 30.4261 173.294 30.8327C173.541 31.209 173.868 31.5264 174.252 31.7626C174.676 32.0055 175.161 32.123 175.649 32.1014C176.15 32.1234 176.647 32.0085 177.086 31.7693C177.467 31.5457 177.784 31.2291 178.008 30.8494C178.245 30.4443 178.412 30.0018 178.5 29.5409C178.598 29.0398 178.647 28.5304 178.647 28.0198C178.645 27.5089 178.593 26.9993 178.49 26.4988H178.497Z" fill="#333333"/>
<path d="M49.2051 46.0265H57.6782V47.8796H51.3575V51.0878H56.9064V52.838H51.3541V58.2779H49.2051V46.0265Z" fill="#333333"/>
<path d="M66.9197 58.2778H64.9969V57.0423H64.9636C64.7142 57.4941 64.3416 57.866 63.8891 58.115C63.4475 58.3723 62.9466 58.5108 62.4354 58.5169C61.2666 58.5169 60.4227 58.2279 59.9038 57.6501C59.3848 57.0722 59.1242 56.1999 59.122 55.0331V49.4072H61.0781V54.8438C61.0781 55.6253 61.2267 56.1789 61.5239 56.5043C61.6867 56.6697 61.8833 56.7983 62.1002 56.8814C62.3171 56.9645 62.5494 57.0001 62.7813 56.9859C63.1336 56.9972 63.4842 56.9326 63.8093 56.7966C64.0678 56.683 64.2958 56.51 64.4746 56.2918C64.6534 56.0675 64.7806 55.8067 64.8472 55.5279C64.9206 55.2133 64.9575 54.8912 64.957 54.5681V49.4205H66.9131L66.9197 58.2778Z" fill="#333333"/>
<path d="M68.9856 49.4072H70.8585V50.709L70.8918 50.7456C71.175 50.2657 71.5771 49.8665 72.0595 49.5865C72.5453 49.3053 73.098 49.1596 73.6596 49.1647C74.495 49.1192 75.317 49.3895 75.9617 49.9219C76.5228 50.4245 76.8033 51.1784 76.8033 52.1836V58.2777H74.8439V52.7017C74.8692 52.1592 74.7123 51.6239 74.3981 51.1806C74.2311 51.0128 74.0293 50.8836 73.8069 50.8021C73.5844 50.7207 73.3468 50.6889 73.1107 50.709C72.8021 50.7058 72.4961 50.7669 72.2125 50.8884C71.956 51.0039 71.7287 51.1752 71.5472 51.3899C71.3566 51.6079 71.2098 51.8604 71.1147 52.1338C71.0098 52.4257 70.9568 52.7336 70.9583 53.0437V58.2777H69.0022L68.9856 49.4072Z" fill="#333333"/>
<path d="M87.2192 58.2779H85.3629V57.0756H85.3296C85.0886 57.5682 84.6809 57.9599 84.1786 58.1815C83.6745 58.4032 83.1293 58.5164 82.5785 58.5137C81.9487 58.5278 81.3237 58.4019 80.7488 58.145C80.2465 57.915 79.8029 57.5743 79.4514 57.1487C79.0971 56.7055 78.8347 56.1964 78.6796 55.6509C78.5027 55.0458 78.4153 54.4181 78.4201 53.7878C78.4058 53.0816 78.5185 52.3786 78.7528 51.7121C78.9416 51.1788 79.2357 50.6886 79.6177 50.2708C79.9638 49.904 80.3878 49.6192 80.8586 49.4372C81.3107 49.2629 81.791 49.1728 82.2757 49.1715C82.558 49.1727 82.8396 49.1982 83.1174 49.2479C83.4018 49.3005 83.6795 49.3841 83.9457 49.497C84.2058 49.6126 84.4505 49.7598 84.6743 49.9354C84.8944 50.111 85.0824 50.3234 85.2298 50.563H85.2664V46.0265H87.2258L87.2192 58.2779ZM80.3795 53.9372C80.3784 54.313 80.4276 54.6871 80.5259 55.0498C80.613 55.4061 80.764 55.7436 80.9717 56.0461C81.1776 56.3479 81.4568 56.5926 81.7832 56.7576C82.1095 56.9225 82.4724 57.0022 82.8379 56.9893C83.2308 57.0008 83.6195 56.9055 83.9624 56.7136C84.2715 56.5356 84.5356 56.2891 84.7342 55.993C84.9393 55.6887 85.0912 55.3518 85.1833 54.9967C85.2806 54.6236 85.3298 54.2397 85.3296 53.8542C85.3767 53.0348 85.142 52.224 84.6643 51.556C84.4504 51.287 84.1759 51.0723 83.8632 50.9291C83.5505 50.786 83.2083 50.7186 82.8645 50.7324C82.4597 50.72 82.0593 50.8188 81.7069 51.018C81.3954 51.2002 81.1311 51.4527 80.9351 51.7553C80.7275 52.068 80.5819 52.4175 80.5059 52.7848C80.4203 53.163 80.3778 53.5496 80.3795 53.9372Z" fill="#333333"/>
<path d="M0.0432434 11.5739V63.8572H0.499C21.2875 63.8572 38.3168 46.8501 38.3168 25.944V17.3326C38.2769 17.3326 31.1012 17.4222 22.9608 17.3558C12.9142 17.2695 1.40386 16.1569 0.0432434 11.5739Z" fill="#C4C2C2"/>
<path d="M1.17433 9.90006C2.63475 12.0455 6.7665 14.4532 17.6914 14.782C17.6914 12.0753 17.6914 6.57568 17.6914 0.454984V0H17.2423C8.04728 0 2.04592 2.13212 0.505665 5.78859C0.303645 6.48039 0.258841 7.20849 0.37452 7.91977C0.4902 8.63106 0.763446 9.3076 1.17433 9.90006Z" fill="#C4C2C2"/>
<path d="M32.7579 17.4323V25.8312C32.7579 45.1332 18.4532 61.1572 0 63.9071V64.0001H0.455757C21.2842 64.0001 38.3435 46.9631 38.3435 26.0172V17.3824C38.3235 17.3924 36.1079 17.419 32.7579 17.4323Z" fill="#F05336"/>
</g>
<defs>
<clipPath id="clip0">
<rect width="182" height="64" fill="white"/>
</clipPath>
</defs>
</svg>
