<svg width="62" height="62" viewBox="0 0 62 62" fill="none" xmlns="http://www.w3.org/2000/svg">
<path d="M35.4 0.4C34 0.2 32.5 0.6 31.4 1.5C30.8 2 30.4 2.6 30.1 3.2C28.7 1.2 26.3 0 23.7 0C20.8 0 18.2 1.6 16.9 4H16.8C12.5 4 9 7.4 8.9 11.7C7.5 12.5 6.5 13.8 6.1 15.4C3.1 16.5 1 19.5 1 22.8C1 24 1.3 25.2 1.8 26.3C0.6 27.8 0 29.7 0 31.6C0 33.9 0.9 36.1 2.4 37.7C2.1 38.6 2 39.6 2 40.5C2 44.9 5.2 48.6 9.5 49.3C10.3 51.1 11.9 52.5 13.9 53.1C14.3 57.7 18.1 61.3 22.8 61.3C25.7 61.3 28.4 59.9 30 57.6C30.3 58.4 30.8 59.2 31.5 59.8C32.4 60.6 33.6 61 34.7 61C35 61 35.2 61 35.5 60.9C50.5 58.6 61.4 45.8 61.4 30.6C61.4 15.4 50.4 2.7 35.4 0.4ZM22.7 59.3C18.9 59.3 15.8 56.2 15.8 52.4C15.8 48.6 18.9 45.5 22.7 45.5V43.5C18.3 43.5 14.6 46.8 13.9 51C12.1 50.3 10.8 48.5 10.8 46.4C10.8 43.7 13 41.5 15.7 41.5V39.5C11.9 39.5 8.8 42.6 8.8 46.4C8.8 46.6 8.8 46.9 8.8 47.1C5.9 46.3 3.8 43.6 3.8 40.5C3.8 36.7 6.9 33.6 10.7 33.6V31.6C7.5 31.6 4.8 33.3 3.2 35.7C2.5 34.6 2 33.1 2 31.6C2 29.9 2.6 28.3 3.8 27L4.3 26.4L3.9 25.8C3.3 24.9 3 23.8 3 22.7C3 20.5 4.2 18.6 6 17.6C6.4 20.5 8.9 22.7 11.9 22.7V20.7C9.7 20.7 7.9 18.9 7.9 16.7C7.9 14.5 9.7 12.7 11.9 12.7C14.1 12.7 15.9 14.5 15.9 16.7H17.9C17.9 13.4 15.2 10.8 12 10.8C11.7 10.8 11.4 10.8 11.1 10.9C11.5 8.3 13.6 6.3 16.2 5.9C16 6.5 16 7.2 16 7.8C16 12.2 19.5 15.7 23.9 15.7V13.7C20.6 13.7 18 11 18 7.8C18 4.5 20.7 1.9 23.9 1.9C27.2 1.9 29.8 4.6 29.8 7.8V52.3C29.7 56.2 26.6 59.3 22.7 59.3ZM35.1 59C34.2 59.1 33.4 58.9 32.7 58.3C32 57.7 31.7 56.9 31.7 56V5.3C31.7 4.4 32.1 3.6 32.7 3C33.2 2.5 33.9 2.3 34.6 2.3C34.8 2.3 34.9 2.3 35.1 2.3C48.9 4.4 59.3 16.6 59.3 30.6C59.3 44.7 48.9 56.8 35.1 59Z" fill="#F15E3E"/>
<path d="M40.5 23.7001V17.8C40.5 17.3 40.1 16.8 39.5 16.8C39 16.8 38.5 17.2 38.5 17.8V22.7001C38.5 23.8001 37.6 24.7001 36.5 24.7001H34.5C34 24.7001 33.5 25.1001 33.5 25.7001C33.5 26.2001 33.9 26.7001 34.5 26.7001H37.5C39.2 26.7001 40.5 25.4001 40.5 23.7001Z" fill="#F15E3E"/>
<path d="M39.5 14.8C41.1 14.8 42.5 13.5 42.5 11.8C42.5 10.2 41.2 8.80005 39.5 8.80005C37.9 8.80005 36.5 10.1 36.5 11.8C36.6 13.5 37.9 14.8 39.5 14.8ZM39.5 10.9C40 10.9 40.5 11.3 40.5 11.9C40.5 12.4 40.1 12.9 39.5 12.9C38.9 12.9 38.5 12.5 38.5 11.9C38.6 11.3 39 10.9 39.5 10.9Z" fill="#F15E3E"/>
<path d="M38.6 37.6V43.5C38.6 44 39 44.5 39.6 44.5C40.1 44.5 40.6 44.1 40.6 43.5V38.6C40.6 36.4 38.8 34.6 36.6 34.6H34.6C34.1 34.6 33.6 35 33.6 35.6C33.6 36.1 34 36.6 34.6 36.6H37.6C38.1 36.6 38.6 37 38.6 37.6Z" fill="#F15E3E"/>
<path d="M39.5 46.5C37.9 46.5 36.5 47.8 36.5 49.5C36.5 51.1 37.8 52.5 39.5 52.5C41.1 52.5 42.5 51.2 42.5 49.5C42.5 47.8 41.2 46.5 39.5 46.5ZM39.5 50.4C39 50.4 38.5 50 38.5 49.4C38.5 48.9 38.9 48.4 39.5 48.4C40.1 48.4 40.5 48.8 40.5 49.4C40.5 50 40.1 50.4 39.5 50.4Z" fill="#F15E3E"/>
<path d="M46.5 25.7001C46.5 27.9001 44.7 29.7001 42.5 29.7001H34.6C34.1 29.7001 33.6 30.1001 33.6 30.7001C33.6 31.2001 34 31.7001 34.6 31.7001H42.5C45.8 31.7001 48.4 29 48.4 25.8V24.8C48.4 24.3 48 23.8 47.4 23.8C46.9 23.8 46.4 24.2 46.4 24.8V25.7001H46.5Z" fill="#F15E3E"/>
<path d="M47.5 15.8C45.9 15.8 44.5 17.1 44.5 18.8C44.5 20.4 45.8 21.8 47.5 21.8C49.1 21.8 50.5 20.5 50.5 18.8C50.4 17.1 49.1 15.8 47.5 15.8ZM47.5 19.8C47 19.8 46.5 19.4 46.5 18.8C46.5 18.3 46.9 17.8 47.5 17.8C48.1 17.8 48.5 18.2 48.5 18.8C48.4 19.3 48 19.8 47.5 19.8Z" fill="#F15E3E"/>
<path d="M47.5 44.5C48 44.5 48.5 44.1 48.5 43.5V35.6C48.5 35.1 48.1 34.6 47.5 34.6C47 34.6 46.5 35 46.5 35.6V43.5C46.5 44 46.9 44.5 47.5 44.5Z" fill="#F15E3E"/>
<path d="M52.4 36.5999C52.9 36.5999 53.4 36.1999 53.4 35.5999V21.7C53.4 21.2 53 20.7 52.4 20.7C51.9 20.7 51.4 21.1 51.4 21.7V35.5C51.4 36.1 51.8 36.5999 52.4 36.5999Z" fill="#F15E3E"/>
<path d="M52.4 40.5C52.9 40.5 53.4 40.1 53.4 39.5C53.4 39 53 38.5 52.4 38.5C51.9 38.5 51.4 38.9 51.4 39.5C51.4 40.1 51.8 40.5 52.4 40.5Z" fill="#F15E3E"/>
<path d="M24.7 8.90002C25.2 8.90002 25.7 8.50002 25.7 7.90002C25.7 7.40002 25.3 6.90002 24.7 6.90002C24.2 6.90002 23.7 7.30002 23.7 7.90002C23.7 8.50002 24.2 8.90002 24.7 8.90002Z" fill="#F15E3E"/>
<path d="M19.8 31.6C20.3 31.6 20.8 31.2 20.8 30.6C20.8 30.1 20.4 29.6 19.8 29.6C19.3 29.6 18.8 30 18.8 30.6C18.8 31.2 19.2 31.6 19.8 31.6Z" fill="#F15E3E"/>
<path d="M25.7 53.4C26.2 53.4 26.7 53 26.7 52.4C26.7 51.9 26.3 51.4 25.7 51.4C25.2 51.4 24.7 51.8 24.7 52.4C24.7 52.9 25.2 53.4 25.7 53.4Z" fill="#F15E3E"/>
<path d="M8.89999 38.6C9.39999 38.6 9.89999 38.2 9.89999 37.6C9.89999 37.1 9.49999 36.6 8.89999 36.6C8.39999 36.6 7.89999 37 7.89999 37.6C7.89999 38.1 8.39999 38.6 8.89999 38.6Z" fill="#F15E3E"/>
<path d="M26.7 24.7C27.2 24.7 27.7 24.3 27.7 23.7C27.7 23.2 27.3 22.7 26.7 22.7C26.2 22.7 25.7 23.1 25.7 23.7C25.7 24.3 26.1 24.7 26.7 24.7Z" fill="#F15E3E"/>
<path d="M7.89999 26.7C8.39999 26.7 8.89999 26.3 8.89999 25.7C8.89999 25.2 8.49999 24.7 7.89999 24.7C7.39999 24.7 6.89999 25.1 6.89999 25.7C6.89999 26.2 7.39999 26.7 7.89999 26.7Z" fill="#F15E3E"/>
</svg>
