<svg width="12" height="12" viewBox="0 0 12 12" fill="none" xmlns="http://www.w3.org/2000/svg">
<path d="M8.99954 0.0024968L7.44342 0C5.69518 0 4.56539 1.15914 4.56539 2.95322V4.31485H3.00079C2.86559 4.31485 2.7561 4.42446 2.7561 4.55966V6.53251C2.7561 6.66771 2.86571 6.77719 3.00079 6.77719H4.56539V11.7553C4.56539 11.8905 4.67488 12 4.81008 12H6.85144C6.98664 12 7.09612 11.8904 7.09612 11.7553V6.77719H8.92551C9.06071 6.77719 9.17019 6.66771 9.17019 6.53251L9.17094 4.55966C9.17094 4.49474 9.1451 4.43257 9.09929 4.38663C9.05347 4.34069 8.99105 4.31485 8.92614 4.31485H7.09612V3.16058C7.09612 2.60579 7.22833 2.32415 7.95102 2.32415L8.99929 2.32377C9.13437 2.32377 9.24385 2.21416 9.24385 2.07909V0.247183C9.24385 0.112231 9.13449 0.00274648 8.99954 0.0024968Z" fill="black"/>
</svg>
