<svg width="28" height="28" viewBox="0 0 28 28" fill="none" xmlns="http://www.w3.org/2000/svg">
<path d="M16.9995 8.0025L15.4434 8C13.6952 8 12.5654 9.15914 12.5654 10.9532V12.3148H11.0008C10.8656 12.3148 10.7561 12.4245 10.7561 12.5597V14.5325C10.7561 14.6677 10.8657 14.7772 11.0008 14.7772H12.5654V19.7553C12.5654 19.8905 12.6749 20 12.8101 20H14.8514C14.9866 20 15.0961 19.8904 15.0961 19.7553V14.7772H16.9255C17.0607 14.7772 17.1702 14.6677 17.1702 14.5325L17.1709 12.5597C17.1709 12.4947 17.1451 12.4326 17.0993 12.3866C17.0535 12.3407 16.9911 12.3148 16.9261 12.3148H15.0961V11.1606C15.0961 10.6058 15.2283 10.3241 15.951 10.3241L16.9993 10.3238C17.1344 10.3238 17.2438 10.2142 17.2438 10.0791V8.24718C17.2438 8.11223 17.1345 8.00275 16.9995 8.0025Z" fill="black"/>
<circle cx="14" cy="14" r="13.5" stroke="black"/>
</svg>
