<svg width="58" height="59" viewBox="0 0 58 59" fill="none" xmlns="http://www.w3.org/2000/svg">
<path d="M5.66406 52.0859C5.04102 52.0859 4.53125 52.6045 4.53125 53.2383C4.53125 53.8721 5.04102 54.3906 5.66406 54.3906C6.28711 54.3906 6.79688 53.8721 6.79688 53.2383C6.79688 52.6045 6.28711 52.0859 5.66406 52.0859Z" fill="#F15C42"/>
<path d="M56.8673 0H47.8048C47.1817 0 46.672 0.518555 46.672 1.15234V2.35078L45.1653 2.33926C45.1653 2.33926 45.1653 2.33926 45.154 2.33926C44.5309 2.33926 44.0212 2.84629 44.0212 3.48008C44.0212 4.11387 44.5196 4.63242 45.1427 4.64395L46.672 4.65547V16.6168C43.704 18.5182 41.0306 17.4234 38.1985 16.2596C36.3407 15.499 34.4149 14.7039 32.4891 14.9574C31.8774 15.0381 30.2462 15.2801 28.513 15.5336C26.8704 15.7756 25.1712 16.0291 24.5934 16.0982C24.2989 16.1328 24.0044 16.0521 23.7552 15.8563C23.5059 15.6604 23.3473 15.3838 23.3134 15.0727C23.2907 14.8652 23.2227 14.3236 24.6388 13.6553C27.6407 12.2379 30.8466 11.0279 33.4294 10.325C34.0298 10.1637 34.3923 9.52988 34.2337 8.91914C34.0751 8.3084 33.452 7.93965 32.8516 8.10098C30.1556 8.82695 26.8138 10.0945 23.6985 11.5695C22.611 12.0766 21.9427 12.6758 21.5575 13.275L10.1954 16.4324C9.00594 16.7436 8.38289 16.2596 8.21297 15.6949C8.04305 15.1533 8.24696 14.4389 9.10789 14.1047C9.99149 13.759 12.1212 12.8141 14.8059 11.6041C18.363 10.0139 22.7923 8.03184 26.3266 6.56836C30.518 4.83984 31.7981 4.5748 36.1028 4.58633C36.7259 4.58633 37.2356 4.06777 37.2356 3.43398C37.2356 2.8002 36.7372 2.28164 36.1028 2.28164C31.5149 2.27012 29.929 2.59277 25.477 4.425C21.92 5.9 17.4681 7.88203 13.8997 9.48379C11.3395 10.6246 9.13055 11.6156 8.3036 11.9383H8.29227C6.17391 12.7795 5.57352 14.8191 6.07196 16.3863C6.55907 17.9305 8.24696 19.3018 10.7731 18.6449C10.7845 18.6449 10.7845 18.6449 10.7958 18.6449L21.161 15.7641C21.3423 16.5131 21.7727 17.1814 22.3845 17.6654C23.0981 18.2301 23.993 18.4836 24.888 18.3684C25.4884 18.2877 27.1309 18.0457 28.8528 17.7922C30.4954 17.5502 32.1946 17.2967 32.7837 17.2275C34.1204 17.0547 35.695 17.7 37.3602 18.3799C39.1274 19.1059 41.1438 19.924 43.3188 19.924C44.395 19.924 45.5278 19.7166 46.672 19.198V19.5668C46.672 20.2006 47.1817 20.7191 47.8048 20.7191H56.8673C57.4903 20.7191 58.0001 20.2006 58.0001 19.5668V1.15234C58.0001 0.518555 57.4903 0 56.8673 0ZM55.7345 18.4375H48.9376V3.52617V2.30469H55.7345V18.4375Z" fill="#F15C42"/>
<path d="M52.3359 6.91406C52.959 6.91406 53.4688 6.39551 53.4688 5.76172C53.4688 5.12793 52.959 4.60938 52.3359 4.60938C51.7129 4.60938 51.2031 5.12793 51.2031 5.76172C51.2031 6.39551 51.7129 6.91406 52.3359 6.91406Z" fill="#F15C42"/>
<path d="M21.0703 37.5664C23.7551 37.5664 26.134 36.1951 27.5727 34.1094H31.7527C32.0586 34.1094 32.3418 33.9826 32.557 33.7752L34.4941 31.8047H35.8195L37.7566 33.7752C37.9719 33.9941 38.2551 34.1094 38.5609 34.1094H40.3281C40.634 34.1094 40.9172 33.9826 41.1324 33.7752L44.5309 30.3182C44.7461 30.0992 44.8594 29.8111 44.8594 29.5V26.043C44.8594 25.4092 44.3496 24.8906 43.7266 24.8906H27.5727C26.134 22.8049 23.7551 21.4336 21.0703 21.4336C16.6977 21.4336 13.1406 25.052 13.1406 29.5C13.1406 33.948 16.6977 37.5664 21.0703 37.5664ZM42.5938 27.1953V29.0275L39.8637 31.8047H39.0254L37.0883 29.8342C36.873 29.6152 36.5898 29.5 36.284 29.5H34.0184C33.7125 29.5 33.4293 29.6268 33.2141 29.8342L31.2883 31.8047H28.6715C28.8867 31.0787 29 30.2951 29 29.5C29 28.7049 28.8867 27.9213 28.6715 27.1953H42.5938ZM21.0703 23.7383C24.1969 23.7383 26.7344 26.3195 26.7344 29.5C26.7344 32.6805 24.1969 35.2617 21.0703 35.2617C17.9437 35.2617 15.4062 32.6805 15.4062 29.5C15.4062 26.3195 17.9437 23.7383 21.0703 23.7383Z" fill="#F15C42"/>
<path d="M18.8047 30.6523C19.4277 30.6523 19.9375 30.1338 19.9375 29.5C19.9375 28.8662 19.4277 28.3477 18.8047 28.3477C18.1816 28.3477 17.6719 28.8662 17.6719 29.5C17.6719 30.1338 18.1816 30.6523 18.8047 30.6523Z" fill="#F15C42"/>
<path d="M40.6226 4.62089C41.2456 4.62089 41.7554 4.10234 41.7554 3.46855C41.7554 2.83476 41.2456 2.31621 40.6226 2.31621C39.9995 2.31621 39.4897 2.83476 39.4897 3.46855C39.4897 4.10234 39.9995 4.62089 40.6226 4.62089Z" fill="#F15C42"/>
<path d="M47.2383 40.3436C47.2269 40.3436 47.2269 40.3436 47.2156 40.3436L36.8504 43.2244C36.6691 42.4754 36.2387 41.807 35.6269 41.323C34.9133 40.7584 34.0184 40.5049 33.1234 40.6201C32.523 40.7008 30.8918 40.9428 29.1586 41.1963C27.516 41.4383 25.8168 41.6918 25.2277 41.7609C23.891 41.9338 22.3164 41.2885 20.6512 40.6086C18.0117 39.5254 14.8059 38.2117 11.3395 39.7789V39.4102C11.3395 38.7764 10.8297 38.2578 10.2066 38.2578H1.13281C0.509766 38.2578 0 38.7764 0 39.4102V57.8477C0 58.4814 0.509766 59 1.13281 59H10.1953C10.8184 59 11.3281 58.4814 11.3281 57.8477V56.6492L12.8348 56.6607H12.8461C13.4691 56.6607 13.9789 56.1537 13.9789 55.5199C13.9789 54.8861 13.4805 54.3676 12.8574 54.3561L11.3281 54.3445V42.3832C14.2961 40.4818 16.9695 41.5766 19.8016 42.7289C21.6594 43.4895 23.5852 44.2846 25.5109 44.0311C26.1227 43.9504 27.7539 43.7084 29.4871 43.4549C31.1297 43.2129 32.8289 42.9594 33.4066 42.8902C33.7012 42.8557 33.9957 42.9363 34.2449 43.1322C34.4941 43.3281 34.6527 43.6047 34.6867 43.9158C34.7094 44.1232 34.7773 44.6648 33.3613 45.3332C30.3594 46.7506 27.1535 47.9605 24.5707 48.6635C23.9703 48.8248 23.6078 49.4586 23.7664 50.0693C23.925 50.6801 24.548 51.0488 25.1484 50.8875C27.8445 50.1615 31.1863 48.8939 34.3016 47.4189C35.3891 46.9119 36.0574 46.3127 36.4426 45.7135L47.8047 42.5676C48.9941 42.2564 49.6172 42.7404 49.7871 43.3051C49.957 43.8467 49.7531 44.5611 48.8922 44.8953C48.0086 45.241 45.8789 46.1859 43.1941 47.3959C39.6371 48.9861 35.2078 50.9682 31.6734 52.4316C27.482 54.1602 26.1906 54.4252 21.8973 54.4137C21.2742 54.4137 20.7645 54.9322 20.7645 55.566C20.7645 56.1998 21.2742 56.7184 21.8973 56.7184C21.9879 56.7184 22.0785 56.7184 22.1691 56.7184C26.5418 56.7184 28.1617 56.3727 32.523 54.575C36.0801 53.1 40.532 51.118 44.1004 49.5162C46.6605 48.3754 48.8695 47.3844 49.6965 47.0617H49.7078C51.8262 46.2205 52.4266 44.1809 51.9281 42.6137C51.4523 41.058 49.7758 39.6867 47.2383 40.3436ZM2.26562 56.6953V40.5625H9.0625V56.6953H2.26562Z" fill="#F15C42"/>
<path d="M17.3774 54.3791C16.7544 54.3791 16.2446 54.8976 16.2446 55.5314C16.2446 56.1652 16.7544 56.6838 17.3774 56.6838C18.0005 56.6838 18.5103 56.1652 18.5103 55.5314C18.5103 54.8976 18.0005 54.3791 17.3774 54.3791Z" fill="#F15C42"/>
</svg>
