<svg width="60" height="60" viewBox="0 0 60 60" fill="none" xmlns="http://www.w3.org/2000/svg">
<g clip-path="url(#clip0)">
<path d="M48.7949 57.6562C48.4902 57.6562 48.1854 57.7852 47.9627 57.9961C47.74 58.2187 47.6228 58.5117 47.6228 58.8281C47.6228 59.1328 47.7517 59.4375 47.9627 59.6602C48.1854 59.8828 48.4784 60 48.7949 60C49.1114 60 49.4044 59.8711 49.6271 59.6602C49.8498 59.4375 49.967 59.1445 49.967 58.8281C49.967 58.5234 49.8381 58.2187 49.6271 57.9961C49.4161 57.7852 49.1114 57.6562 48.7949 57.6562Z" fill="#F15C42"/>
<path d="M59.1913 19.6758C58.4881 18.6445 57.4215 17.9531 56.179 17.7422C54.1865 17.3906 52.229 18.3867 51.3148 20.0977V7.72266C51.3148 5.21484 49.2753 3.17578 46.767 3.17578C45.9466 3.17578 45.173 3.39844 44.5166 3.77344C44.1532 1.64062 42.2779 0 40.0274 0C37.777 0 35.9134 1.64062 35.55 3.78516C34.8819 3.39844 34.12 3.1875 33.2996 3.1875C30.9436 3.1875 28.9979 4.99219 28.7752 7.28906C28.1189 6.92578 27.3687 6.71484 26.56 6.71484C24.0517 6.71484 22.0122 8.75391 22.0122 11.2617C22.0122 11.9062 22.5397 12.4336 23.1843 12.4336C23.829 12.4336 24.3564 11.9062 24.3564 11.2617C24.3564 10.043 25.341 9.05859 26.56 9.05859C27.6969 9.05859 28.6346 9.92578 28.7518 11.0273V14.1562C28.7518 14.8008 29.2793 15.3281 29.9239 15.3281C30.5686 15.3281 31.096 14.8008 31.096 14.1562V7.72266C31.096 6.50391 32.0806 5.51953 33.2996 5.51953C34.4365 5.51953 35.3742 6.38672 35.4914 7.48828V16.6055C35.4914 16.6641 35.5031 17.0508 35.5031 17.0508C35.5031 17.6953 36.0306 18.2227 36.6752 18.2227C37.3199 18.2227 37.8473 17.6953 37.8473 17.0508V7.72266C37.8473 7.61719 37.8473 7.51172 37.8356 7.40625V4.54688C37.8356 3.32812 38.8202 2.34375 40.0392 2.34375C41.2582 2.34375 42.2427 3.32812 42.2427 4.54688V7.41797C42.231 7.52344 42.231 7.62891 42.231 7.73438V24.2109C42.231 24.8555 42.7584 25.3828 43.4031 25.3828C44.0478 25.3828 44.5752 24.8555 44.5752 24.2109V7.5C44.6924 6.39844 45.6301 5.53125 46.767 5.53125C47.986 5.53125 48.9706 6.51562 48.9706 7.73438V25.0664C48.9706 25.9219 49.5918 26.625 50.4357 26.7188C51.2914 26.8242 52.0532 26.2969 52.2525 25.4648L53.1667 21.7383C53.448 20.5781 54.5967 19.8281 55.7688 20.0391C56.3783 20.1445 56.9057 20.4844 57.2457 20.9883C57.5973 21.4922 57.7145 22.1133 57.5973 22.7109L55.8274 31.6641C55.2296 34.6641 53.7762 37.4062 51.6078 39.5625L47.9626 43.1953C47.7399 43.418 47.6227 43.7109 47.6227 44.0273V54.4922C47.6227 55.1367 48.1501 55.6641 48.7948 55.6641C49.4394 55.6641 49.9669 55.1367 49.9669 54.4922V44.5312L53.2722 41.2383C55.7688 38.7422 57.4566 35.6016 58.1365 32.1328L59.9063 23.1797C60.1525 21.9492 59.8946 20.707 59.1913 19.6758Z" fill="#F15C42"/>
<path d="M34.753 36.2109C34.1084 36.2109 33.5809 36.7383 33.5809 37.3828V40.8164C33.5809 44.6719 32.0806 48.293 29.3496 51.0117L27.1343 53.2266C26.9116 53.4492 26.7944 53.7422 26.7944 54.0586V58.8281C26.7944 59.4727 27.3219 60 27.9665 60C28.6112 60 29.1386 59.4727 29.1386 58.8281V54.5508L31.014 52.6758C34.1904 49.5117 35.9368 45.3047 35.9368 40.8164V37.3828C35.9251 36.7383 35.3977 36.2109 34.753 36.2109Z" fill="#F15C42"/>
<path d="M34.7529 32.0508C34.4482 32.0508 34.1434 32.1797 33.9207 32.3906C33.698 32.6133 33.5808 32.9062 33.5808 33.2227C33.5808 33.5273 33.7097 33.832 33.9207 34.0547C34.1434 34.2773 34.4364 34.3945 34.7529 34.3945C35.0577 34.3945 35.3624 34.2656 35.5851 34.0547C35.8078 33.832 35.925 33.5391 35.925 33.2227C35.925 32.918 35.7961 32.6133 35.5851 32.3906C35.3624 32.1797 35.0694 32.0508 34.7529 32.0508Z" fill="#F15C42"/>
<path d="M27.228 28.2187C27.228 28.8633 27.7554 29.3906 28.4001 29.3906C29.0447 29.3906 29.5722 28.8633 29.5722 28.2187V22.957C29.6777 21.9492 30.5333 21.1641 31.5648 21.1641C32.6665 21.1641 33.5691 22.0664 33.5691 23.168V28.6406C33.5691 29.2852 34.0965 29.8125 34.7412 29.8125C35.3858 29.8125 35.9133 29.2852 35.9133 28.6406V23.168C35.9133 20.7656 33.9559 18.8203 31.5648 18.8203C30.8381 18.8203 30.1465 19.0078 29.537 19.3242C29.2792 17.168 27.439 15.5039 25.2237 15.5039C24.4735 15.5039 23.7703 15.6914 23.1491 16.0313C22.7623 14.0273 20.9924 12.5039 18.8826 12.5039C16.7728 12.5039 14.9912 14.0273 14.6161 16.0313C13.9949 15.6914 13.2917 15.5039 12.5415 15.5039C10.1387 15.5039 8.19302 17.4609 8.19302 19.8516V31.2539C7.26706 29.7539 5.48546 28.8984 3.65698 29.2148C2.47315 29.4141 1.45342 30.0703 0.773603 31.0547C0.0937829 32.0391 -0.152359 33.2344 0.0820619 34.4062L1.74645 42.8437C2.39111 46.125 3.98517 49.1016 6.35282 51.457L9.44717 54.5391V58.8281C9.44717 59.4726 9.97462 60 10.6193 60C11.2639 60 11.7914 59.4726 11.7914 58.8281V54.0586C11.7914 53.7422 11.6624 53.4492 11.4515 53.2266L8.00548 49.8047C5.96602 47.7773 4.59466 45.2109 4.04377 42.3984L2.37938 33.9609C2.2739 33.4102 2.39111 32.8477 2.70757 32.3906C3.02404 31.9219 3.5046 31.6172 4.05549 31.5234C5.13383 31.3359 6.177 32.0156 6.43486 33.0703L7.2905 36.5742C7.48976 37.3945 8.2399 37.9102 9.08382 37.8164C9.91601 37.7109 10.5255 37.0312 10.5255 36.1875V19.8398C10.5255 18.7383 11.428 17.8359 12.5298 17.8359C13.5613 17.8359 14.4169 18.6211 14.5224 19.6289V28.2187C14.5224 28.8633 15.0498 29.3906 15.6945 29.3906C16.3391 29.3906 16.8666 28.8633 16.8666 28.2187V19.8398C16.8666 19.7344 16.8666 19.6406 16.8549 19.5469V16.8398C16.8549 15.7383 17.7574 14.8359 18.8592 14.8359C19.9609 14.8359 20.8635 15.7383 20.8635 16.8398V19.5469C20.8517 19.6406 20.8517 19.7461 20.8517 19.8398V28.2187C20.8517 28.8633 21.3792 29.3906 22.0238 29.3906C22.6685 29.3906 23.1959 28.8633 23.1959 28.2187V19.6289C23.3014 18.6211 24.1571 17.8359 25.1885 17.8359C26.2903 17.8359 27.1928 18.7383 27.1928 19.8398L27.228 28.2187Z" fill="#F15C42"/>
<path d="M15.7884 8.17969C16.0228 8.41406 16.3158 8.51953 16.6206 8.51953C16.9253 8.51953 17.2184 8.40234 17.4528 8.17969C17.9099 7.72266 17.9099 6.98438 17.4528 6.52734L11.2641 0.351563C10.8069 -0.117188 10.0568 -0.117188 9.59968 0.351563C9.14256 0.808594 9.14256 1.54688 9.59968 2.00391L15.7884 8.17969Z" fill="#F15C42"/>
<path d="M10.4319 9.66797C9.78721 9.66797 9.25977 10.1953 9.25977 10.8398C9.25977 11.4844 9.78721 12.0117 10.4319 12.0117H13.2918C13.9365 12.0117 14.4639 11.4844 14.4639 10.8398C14.4639 10.1953 13.9365 9.66797 13.2918 9.66797H10.4319Z" fill="#F15C42"/>
<path d="M20.0432 5.29688C20.6879 5.29688 21.2153 4.76953 21.2153 4.125V1.17188C21.2153 0.527344 20.6879 0 20.0432 0C19.3985 0 18.8711 0.527344 18.8711 1.17188V4.125C18.8711 4.76953 19.3985 5.29688 20.0432 5.29688Z" fill="#F15C42"/>
</g>
<defs>
<clipPath id="clip0">
<rect width="60" height="60" fill="white"/>
</clipPath>
</defs>
</svg>
