<svg width="28" height="28" viewBox="0 0 28 28" fill="none" xmlns="http://www.w3.org/2000/svg">
<circle cx="14" cy="14" r="13.5" stroke="black"/>
<path d="M16.6884 8H11.3115C9.48554 8 8 9.48561 8 11.3116V16.6884C8 18.5145 9.48554 20 11.3115 20H16.6884C18.5145 20 20 18.5144 20 16.6884V11.3116C20.0001 9.48561 18.5145 8 16.6884 8Z" fill="black"/>
<path d="M13.9998 10.908C12.2947 10.908 10.9077 12.295 10.9077 14.0001C10.9077 15.705 12.2947 17.092 13.9998 17.092C15.7048 17.092 17.0918 15.705 17.0918 14.0001C17.0918 12.295 15.7048 10.908 13.9998 10.908ZM13.9998 16.0272C12.8819 16.0272 11.9724 15.1178 11.9724 14C11.9724 12.8821 12.8818 11.9726 13.9998 11.9726C15.1177 11.9726 16.0271 12.8821 16.0271 14C16.0271 15.1178 15.1176 16.0272 13.9998 16.0272Z" fill="white"/>
<path d="M17.2215 10.0054C17.0164 10.0054 16.8149 10.0884 16.67 10.2339C16.5244 10.3787 16.4407 10.5803 16.4407 10.7861C16.4407 10.9914 16.5245 11.1929 16.67 11.3384C16.8148 11.4832 17.0164 11.5669 17.2215 11.5669C17.4274 11.5669 17.6282 11.4832 17.7737 11.3384C17.9192 11.1929 18.0023 10.9913 18.0023 10.7861C18.0023 10.5803 17.9192 10.3787 17.7737 10.2339C17.6289 10.0884 17.4274 10.0054 17.2215 10.0054Z" fill="white"/>
</svg>
