<svg width="28" height="28" viewBox="0 0 28 28" fill="none" xmlns="http://www.w3.org/2000/svg">
<circle cx="14" cy="14" r="13.5" stroke="black"/>
<path d="M16.6884 8H11.3115C9.48554 8 8 9.48561 8 11.3116V16.6884C8 18.5145 9.48554 20 11.3115 20H16.6884C18.5145 20 20 18.5144 20 16.6884V11.3116C20.0001 9.48561 18.5145 8 16.6884 8ZM18.9354 16.6884C18.9354 17.9274 17.9274 18.9353 16.6884 18.9353H11.3115C10.0726 18.9354 9.0647 17.9274 9.0647 16.6884V11.3116C9.0647 10.0727 10.0726 9.0647 11.3115 9.0647H16.6884C17.9273 9.0647 18.9353 10.0727 18.9353 11.3116V16.6884H18.9354Z" fill="black"/>
<path d="M13.9998 10.908C12.2947 10.908 10.9077 12.2951 10.9077 14.0001C10.9077 15.7051 12.2947 17.0921 13.9998 17.0921C15.7048 17.0921 17.0918 15.7051 17.0918 14.0001C17.0918 12.2951 15.7048 10.908 13.9998 10.908ZM13.9998 16.0273C12.8819 16.0273 11.9724 15.1179 11.9724 14.0001C11.9724 12.8821 12.8818 11.9727 13.9998 11.9727C15.1177 11.9727 16.0271 12.8821 16.0271 14.0001C16.0271 15.1179 15.1176 16.0273 13.9998 16.0273Z" fill="black"/>
<path d="M17.2215 10.0052C17.0164 10.0052 16.8149 10.0883 16.67 10.2338C16.5244 10.3786 16.4407 10.5802 16.4407 10.786C16.4407 10.9912 16.5245 11.1927 16.67 11.3383C16.8148 11.483 17.0164 11.5668 17.2215 11.5668C17.4274 11.5668 17.6282 11.483 17.7737 11.3383C17.9192 11.1927 18.0023 10.9912 18.0023 10.786C18.0023 10.5802 17.9192 10.3786 17.7737 10.2338C17.6289 10.0883 17.4274 10.0052 17.2215 10.0052Z" fill="black"/>
</svg>
