<svg width="28" height="28" viewBox="0 0 28 28" fill="none" xmlns="http://www.w3.org/2000/svg">
<circle cx="14" cy="14" r="13.5" stroke="black"/>
<path d="M20 15.2969V19.7334H17.428V15.594C17.428 14.5542 17.056 13.8445 16.125 13.8445C15.4143 13.8445 14.9914 14.3228 14.8054 14.7854C14.7375 14.9508 14.72 15.181 14.72 15.4125V19.7334H12.1472C12.1472 19.7334 12.1818 12.7227 12.1472 11.9963H14.7198V13.093C14.7146 13.1012 14.7078 13.1101 14.7029 13.118H14.7198V13.093C15.0616 12.5666 15.672 11.8145 17.0383 11.8145C18.731 11.8145 20 12.9204 20 15.2969ZM9.45587 8.26666C8.5757 8.26666 8 8.84398 8 9.60318C8 10.3458 8.55905 10.9407 9.42172 10.9407H9.43891C10.3361 10.9407 10.8941 10.3459 10.8941 9.60318C10.8772 8.84398 10.3361 8.26666 9.45587 8.26666ZM8.1528 19.7334H10.7247V11.9963H8.1528V19.7334Z" fill="black"/>
</svg>
