<svg width="179" height="64" viewBox="0 0 179 64" fill="none" xmlns="http://www.w3.org/2000/svg">
<path d="M45.1104 17.1016H50.4424C52.8721 17.1016 54.6338 17.4492 55.7275 18.1445C56.8291 18.832 57.3799 19.9297 57.3799 21.4375C57.3799 22.4609 57.1377 23.3008 56.6533 23.957C56.1768 24.6133 55.54 25.0078 54.7432 25.1406V25.2578C55.8291 25.5 56.6104 25.9531 57.0869 26.6172C57.5713 27.2812 57.8135 28.1641 57.8135 29.2656C57.8135 30.8281 57.2471 32.0469 56.1143 32.9219C54.9893 33.7969 53.458 34.2344 51.5205 34.2344H45.1104V17.1016ZM48.7432 23.8867H50.8525C51.8369 23.8867 52.5479 23.7344 52.9854 23.4297C53.4307 23.125 53.6533 22.6211 53.6533 21.918C53.6533 21.2617 53.4111 20.793 52.9268 20.5117C52.4502 20.2227 51.6924 20.0781 50.6533 20.0781H48.7432V23.8867ZM48.7432 26.7695V31.2344H51.1104C52.1104 31.2344 52.8486 31.043 53.3252 30.6602C53.8018 30.2773 54.04 29.6914 54.04 28.9023C54.04 27.4805 53.0244 26.7695 50.9932 26.7695H48.7432Z" fill="#2F3234"/>
<path d="M64.5283 34.2344H60.9541V16H64.5283V34.2344Z" fill="#2F3234"/>
<path d="M76.6104 34.2344L75.9189 32.4531H75.8252C75.2236 33.2109 74.6025 33.7383 73.9619 34.0352C73.3291 34.3242 72.501 34.4688 71.4775 34.4688C70.2197 34.4688 69.2275 34.1094 68.501 33.3906C67.7822 32.6719 67.4229 31.6484 67.4229 30.3203C67.4229 28.9297 67.9072 27.9062 68.876 27.25C69.8525 26.5859 71.3213 26.2188 73.2822 26.1484L75.5557 26.0781V25.5039C75.5557 24.1758 74.876 23.5117 73.5166 23.5117C72.4697 23.5117 71.2393 23.8281 69.8252 24.4609L68.6416 22.0469C70.1494 21.2578 71.8213 20.8633 73.6572 20.8633C75.415 20.8633 76.7627 21.2461 77.7002 22.0117C78.6377 22.7773 79.1064 23.9414 79.1064 25.5039V34.2344H76.6104ZM75.5557 28.1641L74.1729 28.2109C73.1338 28.2422 72.3604 28.4297 71.8525 28.7734C71.3447 29.1172 71.0908 29.6406 71.0908 30.3438C71.0908 31.3516 71.6689 31.8555 72.8252 31.8555C73.6533 31.8555 74.3135 31.6172 74.8057 31.1406C75.3057 30.6641 75.5557 30.0312 75.5557 29.2422V28.1641Z" fill="#2F3234"/>
<path d="M88.1182 34.4688C84.04 34.4688 82.001 32.2305 82.001 27.7539C82.001 25.5273 82.5557 23.8281 83.665 22.6562C84.7744 21.4766 86.3643 20.8867 88.4346 20.8867C89.9502 20.8867 91.3096 21.1836 92.5127 21.7773L91.458 24.543C90.8955 24.3164 90.3721 24.1328 89.8877 23.9922C89.4033 23.8438 88.9189 23.7695 88.4346 23.7695C86.5752 23.7695 85.6455 25.0898 85.6455 27.7305C85.6455 30.293 86.5752 31.5742 88.4346 31.5742C89.1221 31.5742 89.7588 31.4844 90.3447 31.3047C90.9307 31.1172 91.5166 30.8281 92.1025 30.4375V33.4961C91.5244 33.8633 90.9385 34.1172 90.3447 34.2578C89.7588 34.3984 89.0166 34.4688 88.1182 34.4688Z" fill="#2F3234"/>
<path d="M98.583 27.1094L100.142 25.1172L103.81 21.1328H107.841L102.638 26.8164L108.157 34.2344H104.032L100.259 28.9258L98.7236 30.1562V34.2344H95.1494V16H98.7236V24.1328L98.5361 27.1094H98.583Z" fill="#2F3234"/>
<path d="M119.173 30.3438C119.173 31.6875 118.704 32.7109 117.767 33.4141C116.837 34.1172 115.442 34.4688 113.583 34.4688C112.63 34.4688 111.817 34.4023 111.146 34.2695C110.474 34.1445 109.845 33.957 109.259 33.707V30.7539C109.923 31.0664 110.669 31.3281 111.497 31.5391C112.333 31.75 113.067 31.8555 113.7 31.8555C114.997 31.8555 115.646 31.4805 115.646 30.7305C115.646 30.4492 115.56 30.2227 115.388 30.0508C115.216 29.8711 114.919 29.6719 114.497 29.4531C114.075 29.2266 113.513 28.9648 112.81 28.668C111.802 28.2461 111.06 27.8555 110.583 27.4961C110.114 27.1367 109.771 26.7266 109.552 26.2656C109.341 25.7969 109.235 25.2227 109.235 24.543C109.235 23.3789 109.685 22.4805 110.583 21.8477C111.489 21.207 112.771 20.8867 114.427 20.8867C116.005 20.8867 117.54 21.2305 119.032 21.918L117.954 24.4961C117.298 24.2148 116.685 23.9844 116.114 23.8047C115.544 23.625 114.962 23.5352 114.368 23.5352C113.313 23.5352 112.786 23.8203 112.786 24.3906C112.786 24.7109 112.954 24.9883 113.29 25.2227C113.634 25.457 114.38 25.8047 115.528 26.2656C116.552 26.6797 117.302 27.0664 117.778 27.4258C118.255 27.7852 118.606 28.1992 118.833 28.668C119.06 29.1367 119.173 29.6953 119.173 30.3438Z" fill="#2F3234"/>
<path d="M134.056 34.2344H130.481V26.582C130.481 24.6914 129.778 23.7461 128.372 23.7461C127.372 23.7461 126.649 24.0859 126.204 24.7656C125.759 25.4453 125.536 26.5469 125.536 28.0703V34.2344H121.962V16H125.536V19.7148C125.536 20.0039 125.509 20.6836 125.454 21.7539L125.372 22.8086H125.56C126.356 21.5273 127.622 20.8867 129.356 20.8867C130.896 20.8867 132.063 21.3008 132.86 22.1289C133.657 22.957 134.056 24.1445 134.056 25.6914V34.2344Z" fill="#2F3234"/>
<path d="M137.583 17.7461C137.583 16.582 138.231 16 139.528 16C140.825 16 141.474 16.582 141.474 17.7461C141.474 18.3008 141.31 18.7344 140.981 19.0469C140.661 19.3516 140.177 19.5039 139.528 19.5039C138.231 19.5039 137.583 18.918 137.583 17.7461ZM141.31 34.2344H137.735V21.1328H141.31V34.2344Z" fill="#2F3234"/>
<path d="M150.497 23.4297C149.739 23.4297 149.146 23.6719 148.716 24.1562C148.286 24.6328 148.04 25.3125 147.978 26.1953H152.993C152.978 25.3125 152.747 24.6328 152.302 24.1562C151.856 23.6719 151.255 23.4297 150.497 23.4297ZM151.001 34.4688C148.892 34.4688 147.243 33.8867 146.056 32.7227C144.868 31.5586 144.274 29.9102 144.274 27.7773C144.274 25.582 144.821 23.8867 145.915 22.6914C147.017 21.4883 148.536 20.8867 150.474 20.8867C152.325 20.8867 153.767 21.4141 154.798 22.4688C155.829 23.5234 156.345 24.9805 156.345 26.8398V28.5742H147.896C147.935 29.5898 148.235 30.3828 148.798 30.9531C149.36 31.5234 150.149 31.8086 151.165 31.8086C151.954 31.8086 152.7 31.7266 153.403 31.5625C154.106 31.3984 154.841 31.1367 155.606 30.7773V33.543C154.981 33.8555 154.313 34.0859 153.603 34.2344C152.892 34.3906 152.024 34.4688 151.001 34.4688Z" fill="#2F3234"/>
<path d="M162.825 34.2344H159.251V16H162.825V34.2344Z" fill="#2F3234"/>
<path d="M170.735 34.4688C169.196 34.4688 167.985 33.8711 167.103 32.6758C166.228 31.4805 165.79 29.8242 165.79 27.707C165.79 25.5586 166.235 23.8867 167.126 22.6914C168.024 21.4883 169.259 20.8867 170.829 20.8867C172.478 20.8867 173.735 21.5273 174.603 22.8086H174.72C174.54 21.832 174.45 20.9609 174.45 20.1953V16H178.036V34.2344H175.294L174.603 32.5352H174.45C173.638 33.8242 172.399 34.4688 170.735 34.4688ZM171.989 31.6211C172.903 31.6211 173.571 31.3555 173.993 30.8242C174.423 30.293 174.657 29.3906 174.696 28.1172V27.7305C174.696 26.3242 174.478 25.3164 174.04 24.707C173.61 24.0977 172.907 23.793 171.931 23.793C171.134 23.793 170.513 24.1328 170.067 24.8125C169.63 25.4844 169.411 26.4648 169.411 27.7539C169.411 29.043 169.634 30.0117 170.079 30.6602C170.524 31.3008 171.161 31.6211 171.989 31.6211Z" fill="#2F3234"/>
<path d="M50.0293 48.4678C49.0039 48.4678 48.21 48.8545 47.6475 49.6279C47.085 50.3955 46.8037 51.4678 46.8037 52.8447C46.8037 55.71 47.8789 57.1426 50.0293 57.1426C50.9316 57.1426 52.0244 56.917 53.3076 56.4658V58.751C52.2529 59.1904 51.0752 59.4102 49.7744 59.4102C47.9053 59.4102 46.4756 58.8447 45.4854 57.7139C44.4951 56.5771 44 54.9482 44 52.8271C44 51.4912 44.2432 50.3223 44.7295 49.3203C45.2158 48.3125 45.9131 47.542 46.8213 47.0088C47.7354 46.4697 48.8047 46.2002 50.0293 46.2002C51.2773 46.2002 52.5312 46.502 53.791 47.1055L52.9121 49.3203C52.4316 49.0918 51.9482 48.8926 51.4619 48.7227C50.9756 48.5527 50.498 48.4678 50.0293 48.4678Z" fill="#2F3234"/>
<path d="M62.0791 59.2344L61.5605 57.8984H61.4902C61.0391 58.4668 60.5732 58.8623 60.0928 59.085C59.6182 59.3018 58.9971 59.4102 58.2295 59.4102C57.2861 59.4102 56.542 59.1406 55.9971 58.6016C55.458 58.0625 55.1885 57.2949 55.1885 56.2988C55.1885 55.2559 55.5518 54.4883 56.2783 53.9961C57.0107 53.498 58.1123 53.2227 59.583 53.1699L61.2881 53.1172V52.6865C61.2881 51.6904 60.7783 51.1924 59.7588 51.1924C58.9736 51.1924 58.0508 51.4297 56.9902 51.9043L56.1025 50.0938C57.2334 49.502 58.4873 49.2061 59.8643 49.2061C61.1826 49.2061 62.1934 49.4932 62.8965 50.0674C63.5996 50.6416 63.9512 51.5146 63.9512 52.6865V59.2344H62.0791ZM61.2881 54.6816L60.251 54.7168C59.4717 54.7402 58.8916 54.8809 58.5107 55.1387C58.1299 55.3965 57.9395 55.7891 57.9395 56.3164C57.9395 57.0723 58.373 57.4502 59.2402 57.4502C59.8613 57.4502 60.3564 57.2715 60.7256 56.9141C61.1006 56.5566 61.2881 56.082 61.2881 55.4902V54.6816Z" fill="#2F3234"/>
<path d="M72.1162 59.4102C70.9619 59.4102 70.0566 58.9912 69.4004 58.1533H69.2598C69.3535 58.9736 69.4004 59.4482 69.4004 59.5771V63.5586H66.7197V49.4082H68.8994L69.2773 50.6826H69.4004C70.0273 49.71 70.9561 49.2236 72.1865 49.2236C73.3467 49.2236 74.2549 49.6719 74.9111 50.5684C75.5674 51.4648 75.8955 52.71 75.8955 54.3037C75.8955 55.3525 75.7402 56.2637 75.4297 57.0371C75.125 57.8105 74.6885 58.3994 74.1201 58.8037C73.5518 59.208 72.8838 59.4102 72.1162 59.4102ZM71.3252 51.3682C70.6631 51.3682 70.1797 51.5732 69.875 51.9834C69.5703 52.3877 69.4121 53.0586 69.4004 53.9961V54.2861C69.4004 55.3408 69.5557 56.0967 69.8662 56.5537C70.1826 57.0107 70.6807 57.2393 71.3604 57.2393C72.5615 57.2393 73.1621 56.249 73.1621 54.2686C73.1621 53.3018 73.0127 52.5781 72.7139 52.0977C72.4209 51.6113 71.958 51.3682 71.3252 51.3682Z" fill="#2F3234"/>
<path d="M77.9961 46.8682C77.9961 45.9951 78.4824 45.5586 79.4551 45.5586C80.4277 45.5586 80.9141 45.9951 80.9141 46.8682C80.9141 47.2842 80.791 47.6094 80.5449 47.8438C80.3047 48.0723 79.9414 48.1865 79.4551 48.1865C78.4824 48.1865 77.9961 47.7471 77.9961 46.8682ZM80.791 59.2344H78.1104V49.4082H80.791V59.2344Z" fill="#2F3234"/>
<path d="M87.752 57.2744C88.2207 57.2744 88.7832 57.1719 89.4395 56.9668V58.9619C88.7715 59.2607 87.9512 59.4102 86.9785 59.4102C85.9062 59.4102 85.124 59.1406 84.6318 58.6016C84.1455 58.0566 83.9023 57.2422 83.9023 56.1582V51.4209H82.6191V50.2871L84.0957 49.3906L84.8691 47.3164H86.583V49.4082H89.334V51.4209H86.583V56.1582C86.583 56.5391 86.6885 56.8203 86.8994 57.002C87.1162 57.1836 87.4004 57.2744 87.752 57.2744Z" fill="#2F3234"/>
<path d="M97.6748 59.2344L97.1562 57.8984H97.0859C96.6348 58.4668 96.1689 58.8623 95.6885 59.085C95.2139 59.3018 94.5928 59.4102 93.8252 59.4102C92.8818 59.4102 92.1377 59.1406 91.5928 58.6016C91.0537 58.0625 90.7842 57.2949 90.7842 56.2988C90.7842 55.2559 91.1475 54.4883 91.874 53.9961C92.6064 53.498 93.708 53.2227 95.1787 53.1699L96.8838 53.1172V52.6865C96.8838 51.6904 96.374 51.1924 95.3545 51.1924C94.5693 51.1924 93.6465 51.4297 92.5859 51.9043L91.6982 50.0938C92.8291 49.502 94.083 49.2061 95.46 49.2061C96.7783 49.2061 97.7891 49.4932 98.4922 50.0674C99.1953 50.6416 99.5469 51.5146 99.5469 52.6865V59.2344H97.6748ZM96.8838 54.6816L95.8467 54.7168C95.0674 54.7402 94.4873 54.8809 94.1064 55.1387C93.7256 55.3965 93.5352 55.7891 93.5352 56.3164C93.5352 57.0723 93.9688 57.4502 94.8359 57.4502C95.457 57.4502 95.9521 57.2715 96.3213 56.9141C96.6963 56.5566 96.8838 56.082 96.8838 55.4902V54.6816Z" fill="#2F3234"/>
<path d="M104.996 59.2344H102.315V45.5586H104.996V59.2344Z" fill="#2F3234"/>
<path d="M0 10.6688V58.8714H0.371206C18.8078 58.8714 33.9035 43.1895 33.9035 23.9085V15.939C33.9035 15.939 27.4693 16.0675 20.2926 15.939C11.3837 15.939 1.23735 14.9107 0 10.6688Z" fill="#E4E4E3"/>
<path d="M0.989968 9.12636C2.22732 11.0545 5.93939 13.3682 15.5907 13.6253C15.5907 11.183 15.5907 6.04139 15.5907 0.385621V0H15.2195C7.17674 0 1.85612 1.9281 0.495026 5.27015C0.247555 5.78431 8.46088e-05 7.45534 0.989968 9.12636Z" fill="#E4E4E3"/>
<path d="M28.9541 16.0675V23.78C28.9541 41.5185 16.3331 56.3007 0 58.8715V59H0.371206C18.8078 59 33.9035 43.3181 33.9035 24.037V16.0675C33.9035 16.0675 31.9237 16.0675 28.9541 16.0675Z" fill="#F15C42"/>
</svg>
