<svg width="159" height="59" viewBox="0 0 159 59" fill="none" xmlns="http://www.w3.org/2000/svg">
<path d="M50.3603 16.1961C51.1027 16.1961 51.7214 16.3246 52.3401 16.4532C52.9588 16.5817 53.4537 16.8388 53.8249 17.0959C54.1961 17.3529 54.5673 17.8671 54.8148 18.2527C55.0623 18.7669 55.186 19.4096 55.186 20.1808C55.186 20.9521 55.0623 21.5948 54.6911 22.2375C54.3199 22.7516 53.8249 23.2658 53.0825 23.5229C54.0724 23.78 54.6911 24.2941 55.186 25.0654C55.6809 25.7081 55.9284 26.6078 55.9284 27.6362C55.9284 28.4074 55.8047 29.1787 55.4335 29.6928C55.186 30.3355 54.6911 30.7211 54.1961 31.1068C53.7012 31.4924 53.0825 31.7495 52.4638 31.878C51.9689 32.0065 51.2265 32.1351 50.6078 32.1351H43.1837V16.1961H50.3603ZM49.9891 22.6231C50.6078 22.6231 51.1027 22.4946 51.4739 22.2375C51.8451 21.9804 52.0926 21.4662 52.0926 20.8235C52.0926 20.4379 51.9689 20.1808 51.8451 19.9237C51.7214 19.6667 51.5977 19.5381 51.3502 19.4096C51.1027 19.281 50.8553 19.1525 50.6078 19.1525C50.3603 19.1525 49.9891 19.024 49.7416 19.024H46.5245V22.7516H49.9891V22.6231ZM50.1128 29.4357C50.484 29.4357 50.7315 29.4357 51.1027 29.3072C51.3502 29.1786 51.7214 29.1786 51.8451 28.9216C52.0926 28.793 52.2163 28.5359 52.3401 28.2789C52.4638 28.0218 52.5876 27.6362 52.5876 27.2505C52.5876 26.4793 52.3401 25.8366 51.9689 25.451C51.4739 25.0654 50.979 24.9368 50.2366 24.9368H46.5245V29.3072H50.1128V29.4357Z" fill="#2F3234"/>
<path d="M61.1253 16.1961V32.1351H58.0319V16.1961H61.1253Z" fill="#2F3234"/>
<path d="M63.3526 24.1656C63.3526 23.3943 63.6001 22.7516 63.8475 22.366C64.2187 21.8518 64.5899 21.4662 65.0849 21.2091C65.5798 20.9521 66.0748 20.695 66.6934 20.5664C67.3121 20.4379 67.9308 20.4379 68.5495 20.4379C69.1681 20.4379 69.6631 20.4379 70.2818 20.5664C70.9004 20.695 71.3954 20.8235 71.8903 21.0806C72.3853 21.3377 72.7565 21.5948 73.0039 22.1089C73.2514 22.4945 73.4989 23.1372 73.4989 23.7799V29.5643C73.4989 30.0784 73.4989 30.5926 73.6226 31.1067C73.6226 31.6209 73.7463 31.878 73.8701 32.1351H70.7767C70.7767 32.0065 70.653 31.7494 70.653 31.6209C70.653 31.4924 70.653 31.2353 70.5292 31.1067C70.0343 31.6209 69.4156 32.0065 68.7969 32.2636C68.1783 32.5207 67.4358 32.5207 66.8172 32.5207C66.3222 32.5207 65.8273 32.3921 65.3323 32.2636C64.8374 32.1351 64.4662 31.878 64.095 31.6209C63.7238 31.3638 63.4763 30.9782 63.2289 30.5926C62.9814 30.207 62.9814 29.6928 62.9814 29.0501C62.9814 28.4074 63.1051 27.8932 63.3526 27.3791C63.6001 26.9935 63.8475 26.6078 64.2187 26.3508C64.5899 26.0937 64.9611 25.9651 65.4561 25.8366C65.951 25.7081 66.3222 25.5795 66.8172 25.5795C67.3121 25.5795 67.6833 25.451 68.1783 25.451C68.6732 25.451 69.0444 25.3224 69.4156 25.1939C69.7868 25.0654 70.0343 24.9368 70.2818 24.8083C70.5292 24.6797 70.5292 24.4226 70.5292 24.037C70.5292 23.6514 70.5292 23.3943 70.4055 23.2658C70.2818 23.0087 70.158 22.8802 70.0343 22.7516C69.9106 22.6231 69.6631 22.6231 69.4156 22.4945C69.1681 22.4945 68.9207 22.4945 68.6732 22.4945C68.0545 22.4945 67.5596 22.6231 67.3121 22.8802C67.0646 23.1372 66.8172 23.6514 66.6934 24.1656H63.3526ZM70.4055 26.4793C70.2818 26.6078 70.158 26.7364 69.9106 26.7364C69.6631 26.8649 69.5393 26.8649 69.2919 26.8649C69.0444 26.8649 68.7969 26.9935 68.5495 26.9935C68.302 26.9935 68.0545 27.122 67.8071 27.122C67.5596 27.122 67.3121 27.2505 67.1884 27.2505C66.9409 27.3791 66.8172 27.3791 66.5697 27.5076C66.446 27.6362 66.3222 27.7647 66.1985 28.0218C66.0748 28.2789 66.0748 28.4074 66.0748 28.793C66.0748 29.0501 66.0748 29.3072 66.1985 29.5643C66.3222 29.8213 66.446 29.9499 66.5697 30.0784C66.6934 30.207 66.9409 30.207 67.1884 30.3355C67.4358 30.3355 67.6833 30.464 67.9308 30.464C68.5495 30.464 69.0444 30.3355 69.2919 30.207C69.6631 29.9499 69.9106 29.6928 70.0343 29.4357C70.158 29.1786 70.2818 28.793 70.2818 28.5359C70.2818 28.2789 70.2818 28.0218 70.2818 27.7647V26.4793H70.4055Z" fill="#2F3234"/>
<path d="M81.1704 22.6231C80.6755 22.6231 80.3043 22.7516 79.9331 23.0087C79.5619 23.2658 79.3144 23.5229 79.067 23.9085C78.8195 24.2941 78.6957 24.6797 78.572 25.0653C78.4483 25.451 78.4483 25.9651 78.4483 26.3507C78.4483 26.7364 78.4483 27.2505 78.572 27.6362C78.6957 28.0218 78.8195 28.4074 78.9432 28.793C79.1907 29.1786 79.4382 29.4357 79.6856 29.6928C80.0568 29.9499 80.428 30.0784 80.923 30.0784C81.6654 30.0784 82.1603 29.8213 82.6553 29.4357C83.0265 29.0501 83.274 28.4074 83.3977 27.7647H86.3673C86.1199 29.3072 85.6249 30.464 84.635 31.2353C83.6452 32.0065 82.5315 32.3921 81.0467 32.3921C80.1806 32.3921 79.4382 32.2636 78.8195 32.0065C78.0771 31.7494 77.5821 31.3638 77.0872 30.8497C76.5922 30.3355 76.221 29.6928 75.9736 29.0501C75.7261 28.2789 75.6024 27.5076 75.6024 26.7364C75.6024 25.8366 75.7261 25.0653 75.9736 24.2941C76.221 23.5229 76.5922 22.8802 77.0872 22.366C77.5821 21.8518 78.2008 21.3377 78.8195 21.0806C79.5619 20.8235 80.3043 20.5664 81.1704 20.5664C81.7891 20.5664 82.4078 20.695 83.0265 20.8235C83.6452 20.9521 84.1401 21.2091 84.635 21.5948C85.13 21.9804 85.5012 22.366 85.7487 23.0087C85.9961 23.6514 86.2436 24.1656 86.2436 24.9368H83.274C83.1502 23.3943 82.4078 22.6231 81.1704 22.6231Z" fill="#2F3234"/>
<path d="M91.4405 16.1961V24.6797L95.2763 20.5664H98.9884L94.7813 24.8083L99.4833 32.1351H95.7712L92.6778 26.9935L91.4405 28.1503V32.1351H88.3471V16.1961H91.4405Z" fill="#2F3234"/>
<path d="M103.072 29.3072C103.195 29.5643 103.443 29.6928 103.567 29.9499C103.814 30.0784 104.062 30.207 104.309 30.3355C104.556 30.464 104.928 30.464 105.175 30.464C105.423 30.464 105.67 30.464 105.794 30.3355C105.918 30.207 106.289 30.207 106.412 30.0784C106.66 29.9499 106.784 29.8213 106.907 29.6928C107.031 29.5643 107.155 29.3072 107.155 29.0501C107.155 28.5359 106.907 28.2789 106.289 28.0218C105.67 27.7647 104.804 27.5076 103.69 27.2505C103.195 27.122 102.824 26.9934 102.453 26.8649C102.082 26.7364 101.711 26.4793 101.339 26.3507C100.968 26.0937 100.721 25.8366 100.597 25.451C100.349 25.0653 100.349 24.6797 100.349 24.1656C100.349 23.3943 100.473 22.7516 100.721 22.366C100.968 21.8518 101.339 21.4662 101.834 21.2091C102.329 20.9521 102.824 20.695 103.319 20.5664C103.814 20.4379 104.433 20.4379 105.051 20.4379C105.67 20.4379 106.289 20.4379 106.784 20.5664C107.402 20.695 107.897 20.8235 108.269 21.2091C108.763 21.4662 109.135 21.8518 109.382 22.366C109.63 22.8802 109.877 23.3943 109.877 24.1656H107.031C107.031 23.5229 106.784 23.1372 106.412 22.8802C106.041 22.6231 105.546 22.4945 105.051 22.4945C104.928 22.4945 104.68 22.4945 104.433 22.4945C104.185 22.4945 104.062 22.6231 103.938 22.6231C103.814 22.7516 103.69 22.7516 103.567 23.0087C103.443 23.1372 103.443 23.3943 103.443 23.5229C103.443 23.7799 103.567 24.037 103.69 24.1656C103.938 24.2941 104.185 24.5512 104.433 24.5512C104.804 24.6797 105.175 24.8083 105.546 24.8083C105.918 24.9368 106.412 24.9368 106.784 25.0653C107.279 25.1939 107.65 25.3224 108.021 25.451C108.392 25.5795 108.763 25.8366 109.135 26.0937C109.506 26.3507 109.753 26.6078 109.877 26.9935C110.001 27.3791 110.125 27.7647 110.125 28.2789C110.125 29.0501 110.001 29.6928 109.63 30.207C109.382 30.7211 109.011 31.1067 108.516 31.4924C108.021 31.7494 107.526 32.0065 106.907 32.1351C106.289 32.2636 105.67 32.2636 105.051 32.2636C104.433 32.2636 103.814 32.1351 103.195 32.0065C102.577 31.878 102.082 31.6209 101.587 31.3638C101.092 31.1067 100.721 30.5926 100.349 30.0784C100.102 29.5643 99.8545 28.9216 99.8545 28.1503H102.7C102.824 28.793 102.948 29.0501 103.072 29.3072Z" fill="#2F3234"/>
<path d="M115.074 16.1961V22.2375C115.445 21.5948 115.94 21.0806 116.559 20.8235C117.177 20.5664 117.796 20.3094 118.291 20.3094C119.157 20.3094 119.776 20.4379 120.271 20.695C120.766 20.9521 121.261 21.2091 121.508 21.5948C121.756 21.9804 122.003 22.4946 122.127 23.1373C122.251 23.78 122.251 24.4227 122.251 25.0654V32.1351H119.157V25.5795C119.157 24.6797 119.033 23.9085 118.786 23.3943C118.538 22.8802 118.044 22.7516 117.301 22.7516C116.435 22.7516 115.816 23.0087 115.445 23.5229C115.074 24.037 114.826 24.9368 114.826 26.0937V32.1351H111.733V16.1961H115.074Z" fill="#2F3234"/>
<path d="M124.849 18.7669V16.1961H127.942V18.7669H124.849ZM127.942 20.5664V32.1351H124.849V20.5664H127.942Z" fill="#2F3234"/>
<path d="M133.511 29.4358C134.005 29.9499 134.624 30.0785 135.49 30.0785C136.109 30.0785 136.604 29.9499 137.099 29.5643C137.594 29.3072 137.841 28.9216 137.965 28.536H140.687C140.316 29.9499 139.574 30.8497 138.707 31.4924C137.841 32.1351 136.728 32.3922 135.49 32.3922C134.624 32.3922 133.882 32.2636 133.139 32.0066C132.397 31.7495 131.902 31.3639 131.407 30.7212C130.912 30.207 130.541 29.5643 130.293 28.7931C130.046 28.0218 129.922 27.2506 129.922 26.3508C129.922 25.451 130.046 24.6798 130.293 23.9085C130.541 23.1373 130.912 22.4946 131.407 21.9804C131.902 21.4663 132.521 20.9521 133.139 20.695C133.882 20.4379 134.624 20.1808 135.49 20.1808C136.48 20.1808 137.223 20.3094 137.965 20.695C138.707 21.0806 139.202 21.5948 139.697 22.2375C140.192 22.8802 140.44 23.6514 140.687 24.4227C140.935 25.1939 140.935 26.0937 140.935 26.9935H132.892C132.892 28.1503 133.139 28.9216 133.511 29.4358ZM136.975 23.2658C136.604 22.8802 136.109 22.6231 135.367 22.6231C134.872 22.6231 134.5 22.7517 134.129 22.8802C133.758 23.0087 133.511 23.2658 133.387 23.5229C133.139 23.78 133.016 24.0371 133.016 24.2941C132.892 24.5512 132.892 24.8083 132.892 25.0654H137.841C137.594 24.2941 137.346 23.78 136.975 23.2658Z" fill="#2F3234"/>
<path d="M145.76 16.1961V32.1351H142.667V16.1961H145.76Z" fill="#2F3234"/>
<path d="M156.03 30.7211C155.659 31.3638 155.164 31.7495 154.669 32.0065C154.051 32.2636 153.432 32.3922 152.69 32.3922C151.823 32.3922 151.081 32.2636 150.462 31.878C149.844 31.4924 149.349 31.1068 148.854 30.4641C148.483 29.9499 148.111 29.1787 147.988 28.536C147.74 27.7647 147.616 26.9935 147.616 26.2222C147.616 25.451 147.74 24.6797 147.988 24.037C148.235 23.2658 148.483 22.6231 148.854 22.1089C149.225 21.5948 149.72 21.0806 150.339 20.8235C150.957 20.4379 151.7 20.3094 152.442 20.3094C153.061 20.3094 153.679 20.4379 154.298 20.695C154.917 20.9521 155.412 21.4662 155.659 21.9804V16.1961H158.753V32.1351H155.907L156.03 30.7211ZM155.907 24.9368C155.783 24.5512 155.659 24.1656 155.412 23.78C155.164 23.3943 154.917 23.1373 154.546 23.0087C154.174 22.7516 153.803 22.7516 153.308 22.7516C152.813 22.7516 152.442 22.8802 152.071 23.0087C151.7 23.2658 151.452 23.5229 151.205 23.78C150.957 24.1656 150.833 24.5512 150.71 24.9368C150.586 25.3224 150.586 25.8366 150.586 26.3508C150.586 26.7364 150.586 27.2505 150.71 27.6362C150.833 28.0218 150.957 28.536 151.205 28.793C151.452 29.1787 151.7 29.4357 152.071 29.6928C152.442 29.9499 152.813 30.0784 153.308 30.0784C153.803 30.0784 154.174 29.9499 154.546 29.8214C154.917 29.5643 155.164 29.3072 155.412 28.9216C155.659 28.536 155.783 28.1503 155.783 27.7647C155.907 27.3791 155.907 26.8649 155.907 26.3508C155.907 25.8366 156.03 25.451 155.907 24.9368Z" fill="#2F3234"/>
<path d="M50.1129 46.2745C49.9892 45.8889 49.8654 45.6318 49.7417 45.3747C49.6179 45.1176 49.3705 44.8606 49.2467 44.732C48.9993 44.4749 48.7518 44.3464 48.5043 44.2179C48.2569 44.0893 47.8856 44.0893 47.5144 44.0893C46.8958 44.0893 46.4008 44.2179 46.0296 44.4749C45.6584 44.732 45.2872 44.9891 45.0397 45.3747C44.7923 45.7603 44.5448 46.2745 44.4211 46.7887C44.2973 47.3028 44.1736 47.817 44.1736 48.3311C44.1736 48.8453 44.2973 49.3595 44.4211 49.8736C44.5448 50.3878 44.7923 50.902 45.0397 51.2876C45.2872 51.6732 45.6584 52.0588 46.0296 52.1874C46.4008 52.4444 46.8958 52.573 47.5144 52.573C47.8856 52.573 48.2569 52.4444 48.6281 52.3159C48.9993 52.1874 49.2467 51.9303 49.4942 51.6732C49.7417 51.4161 49.8654 51.159 49.9892 50.7734C50.1129 50.3878 50.2366 50.0022 50.2366 49.6166H51.9689C51.9689 50.2593 51.8452 50.902 51.5977 51.4161C51.3502 51.9303 51.1028 52.4444 50.6078 52.8301C50.2366 53.2157 49.7417 53.6013 49.2467 53.7298C48.7518 53.9869 48.1331 54.1155 47.5144 54.1155C46.772 54.1155 46.0296 53.9869 45.4109 53.6013C44.7923 53.3442 44.2973 52.8301 43.8024 52.3159C43.3074 51.8017 43.06 51.159 42.8125 50.5163C42.565 49.7451 42.4413 49.1024 42.4413 48.2026C42.4413 47.4314 42.565 46.6601 42.8125 46.0174C43.06 45.2462 43.4312 44.732 43.8024 44.2179C44.2973 43.7037 44.7923 43.3181 45.4109 42.9325C46.0296 42.6754 46.772 42.4183 47.5144 42.4183C48.1331 42.4183 48.6281 42.5468 49.2467 42.6754C49.8654 42.8039 50.2366 43.061 50.6078 43.4466C50.979 43.8322 51.3502 44.2179 51.5977 44.6035C51.8452 45.1176 51.9689 45.6318 52.0927 46.2745H50.1129Z" fill="#2F3234"/>
<path d="M59.888 52.0588C59.888 52.3159 59.888 52.4445 60.0117 52.573C60.1355 52.7015 60.1355 52.7015 60.3829 52.7015H60.5067C60.6304 52.7015 60.6304 52.7015 60.7541 52.7015V53.9869C60.7541 53.9869 60.6304 53.9869 60.5067 54.1155C60.3829 54.1155 60.2592 54.1155 60.2592 54.244C60.1355 54.244 60.0117 54.244 60.0117 54.244C59.888 54.244 59.888 54.244 59.7642 54.244C59.393 54.244 59.1456 54.1155 58.8981 53.9869C58.6506 53.8584 58.5269 53.6013 58.4032 53.2157C58.032 53.6013 57.6607 53.8584 57.1658 53.9869C56.6709 54.1155 56.1759 54.244 55.681 54.244C55.3098 54.244 54.9386 54.244 54.6911 54.1155C54.3199 53.9869 54.0724 53.8584 53.825 53.7299C53.5775 53.6013 53.33 53.3442 53.2063 52.9586C53.0825 52.7015 52.9588 52.3159 52.9588 51.9303C52.9588 51.4161 53.0825 51.0305 53.2063 50.7734C53.33 50.5163 53.5775 50.2593 53.9487 50.0022C54.1962 49.8736 54.5674 49.7451 54.9386 49.6166C55.3098 49.488 55.681 49.488 56.0522 49.488C56.4234 49.488 56.6709 49.3595 56.9183 49.3595C57.1658 49.3595 57.4133 49.2309 57.6607 49.2309C57.9082 49.2309 58.032 49.1024 58.1557 48.9739C58.2794 48.8453 58.4032 48.5882 58.4032 48.3312C58.4032 48.0741 58.4032 47.9455 58.2794 47.817C58.1557 47.6885 58.032 47.5599 57.9082 47.4314C57.7845 47.3028 57.537 47.3028 57.4133 47.3028C57.1658 47.3028 57.0421 47.3028 56.9183 47.3028C56.4234 47.3028 56.0522 47.4314 55.681 47.5599C55.3098 47.817 55.186 48.0741 55.186 48.5882H53.4537C53.4537 48.0741 53.5775 47.6885 53.825 47.3028C54.0724 46.9172 54.3199 46.6601 54.5674 46.5316C54.9386 46.2745 55.3098 46.146 55.681 46.146C56.0522 46.0174 56.5471 46.0174 56.9183 46.0174C57.2895 46.0174 57.6607 46.0174 58.032 46.146C58.4032 46.2745 58.7744 46.403 59.0218 46.5316C59.2693 46.6601 59.5168 46.9172 59.7642 47.3028C59.888 47.5599 60.0117 47.9455 60.0117 48.3312V52.0588H59.888ZM58.2794 49.8736C58.032 50.0022 57.6607 50.1307 57.2895 50.1307C56.9183 50.1307 56.5471 50.2593 56.1759 50.2593C56.0522 50.2593 55.8047 50.3878 55.681 50.3878C55.5572 50.3878 55.3098 50.5163 55.186 50.6449C55.0623 50.7734 54.9386 50.902 54.9386 51.0305C54.8148 51.159 54.8148 51.4161 54.8148 51.6732C54.8148 51.9303 54.8148 52.0588 54.9386 52.1874C55.0623 52.3159 55.186 52.4444 55.3098 52.4444C55.4335 52.573 55.681 52.573 55.8047 52.573C55.9285 52.573 56.1759 52.573 56.2997 52.573C56.5471 52.573 56.6709 52.573 56.9183 52.4444C57.1658 52.4444 57.2895 52.3159 57.537 52.1874C57.7845 52.0588 57.9082 51.9303 58.032 51.6732C58.1557 51.5447 58.2794 51.2876 58.2794 50.902V49.8736Z" fill="#2F3234"/>
<path d="M61.8677 45.7603H63.4763V46.7887C63.7238 46.2745 64.095 46.0174 64.4662 45.7603C64.8374 45.5032 65.3323 45.5033 65.8273 45.5033C66.446 45.5033 66.9409 45.6318 67.4358 45.8889C67.9308 46.146 68.302 46.403 68.5495 46.7887C68.7969 47.1743 69.0444 47.6884 69.1681 48.2026C69.2919 48.7168 69.4156 49.2309 69.4156 49.8736C69.4156 50.3878 69.2919 50.9019 69.1681 51.4161C69.0444 51.9303 68.7969 52.3159 68.5495 52.83C68.302 53.2157 67.9308 53.4727 67.5596 53.7298C67.1884 53.9869 66.6934 54.1154 66.0747 54.1154C65.8273 54.1154 65.5798 54.1155 65.3323 53.9869C65.0849 53.9869 64.8374 53.8584 64.5899 53.7298C64.3424 53.6013 64.095 53.4727 63.9712 53.3442C63.7238 53.2157 63.6 52.9586 63.4763 52.83V56.8148H61.8677V45.7603ZM67.807 49.8736C67.807 49.488 67.807 49.1024 67.6833 48.8453C67.5596 48.4597 67.4358 48.2026 67.3121 47.9455C67.1884 47.6884 66.9409 47.4314 66.6934 47.3028C66.446 47.1743 66.0747 47.0457 65.7035 47.0457C64.9611 47.0457 64.4662 47.3028 64.095 47.817C63.7238 48.3311 63.6 48.9738 63.6 49.8736C63.6 50.2592 63.6 50.6449 63.7238 51.0305C63.8475 51.4161 63.9712 51.6732 64.095 51.9303C64.3424 52.1873 64.4662 52.3159 64.8374 52.573C65.0849 52.7015 65.4561 52.83 65.7035 52.83C66.0747 52.83 66.446 52.7015 66.6934 52.573C66.9409 52.4444 67.1884 52.1873 67.3121 51.9303C67.4358 51.6732 67.5596 51.4161 67.6833 51.0305C67.807 50.5163 67.807 50.2592 67.807 49.8736Z" fill="#2F3234"/>
<path d="M71.0242 42.6754H72.7565V44.3464H71.0242V42.6754ZM71.0242 45.7603H72.7565V53.8584H71.0242V45.7603Z" fill="#2F3234"/>
<path d="M73.8701 45.7604H75.1075V43.3181H76.8398V45.7604H78.4483V47.0458H76.8398V51.4161C76.8398 51.5447 76.8398 51.8018 76.8398 51.9303C76.8398 52.0588 76.8398 52.1874 76.9635 52.3159C77.0872 52.4445 77.0872 52.4445 77.211 52.573C77.3347 52.573 77.4584 52.7015 77.7059 52.7015C77.8296 52.7015 77.9534 52.7015 78.0771 52.7015C78.2008 52.7015 78.3246 52.7015 78.4483 52.7015V54.1155C78.2008 54.1155 78.0771 54.1155 77.9534 54.1155C77.8296 54.1155 77.5822 54.1155 77.3347 54.1155C76.8398 54.1155 76.4686 54.1155 76.2211 53.9869C75.9736 53.8584 75.7261 53.7299 75.6024 53.6013C75.4787 53.4728 75.3549 53.2157 75.2312 52.9586C75.2312 52.7015 75.1075 52.4445 75.1075 52.0588V47.3028H73.8701V45.7604Z" fill="#2F3234"/>
<path d="M86.1199 52.0588C86.1199 52.3159 86.1199 52.4445 86.2436 52.573C86.3674 52.7015 86.3674 52.7015 86.6149 52.7015H86.7386C86.8623 52.7015 86.8623 52.7015 86.9861 52.7015V53.9869C86.9861 53.9869 86.8623 53.9869 86.7386 54.1155C86.6149 54.1155 86.4911 54.1155 86.4911 54.244C86.3674 54.244 86.2436 54.244 86.2436 54.244C86.1199 54.244 86.1199 54.244 85.9962 54.244C85.625 54.244 85.3775 54.1155 85.13 53.9869C84.8826 53.8584 84.7588 53.6013 84.6351 53.2157C84.2639 53.6013 83.8927 53.8584 83.3977 53.9869C82.9028 54.1155 82.4079 54.244 81.9129 54.244C81.5417 54.244 81.1705 54.244 80.923 54.1155C80.5518 53.9869 80.3043 53.8584 80.0569 53.7299C79.8094 53.6013 79.5619 53.3442 79.4382 52.9586C79.3145 52.7015 79.1907 52.3159 79.1907 51.9303C79.1907 51.4161 79.3145 51.0305 79.4382 50.7734C79.5619 50.5163 79.8094 50.2593 80.1806 50.0022C80.4281 49.8736 80.7993 49.7451 81.1705 49.6166C81.5417 49.488 81.9129 49.488 82.2841 49.488C82.6553 49.488 82.9028 49.3595 83.1503 49.3595C83.3977 49.3595 83.6452 49.2309 83.8927 49.2309C84.1402 49.2309 84.2639 49.1024 84.3876 48.9739C84.5114 48.8453 84.6351 48.5882 84.6351 48.3312C84.6351 48.0741 84.6351 47.9455 84.5114 47.817C84.3876 47.6885 84.2639 47.5599 84.1402 47.4314C84.0164 47.3028 83.7689 47.3028 83.6452 47.3028C83.3977 47.3028 83.274 47.3028 83.1503 47.3028C82.6553 47.3028 82.2841 47.4314 81.9129 47.5599C81.5417 47.817 81.418 48.0741 81.418 48.5882H79.6857C79.6857 48.0741 79.8094 47.6885 80.0569 47.3028C80.3043 46.9172 80.5518 46.6601 80.7993 46.5316C81.1705 46.2745 81.5417 46.146 81.9129 46.146C82.2841 46.0174 82.7791 46.0174 83.1503 46.0174C83.5215 46.0174 83.8927 46.0174 84.2639 46.146C84.6351 46.2745 85.0063 46.403 85.2538 46.5316C85.5012 46.6601 85.7487 46.9172 85.9962 47.3028C86.1199 47.5599 86.2436 47.9455 86.2436 48.3312V52.0588H86.1199ZM84.3876 49.8736C84.1401 50.0022 83.7689 50.1307 83.3977 50.1307C83.0265 50.1307 82.6553 50.2593 82.2841 50.2593C82.1604 50.2593 81.9129 50.3878 81.7892 50.3878C81.6654 50.3878 81.418 50.5163 81.2942 50.6449C81.1705 50.7734 81.0468 50.902 81.0468 51.0305C80.923 51.159 80.923 51.4161 80.923 51.6732C80.923 51.9303 80.923 52.0588 81.0468 52.1874C81.1705 52.3159 81.2942 52.4444 81.418 52.4444C81.5417 52.573 81.7892 52.573 81.9129 52.573C82.0366 52.573 82.2841 52.573 82.4079 52.573C82.6553 52.573 82.7791 52.573 83.0265 52.4444C83.274 52.4444 83.3977 52.3159 83.6452 52.1874C83.8927 52.0588 84.0164 51.9303 84.1402 51.6732C84.2639 51.5447 84.3876 51.2876 84.3876 50.902V49.8736Z" fill="#2F3234"/>
<path d="M87.9759 42.6754H89.7082V53.8584H87.9759V42.6754Z" fill="#2F3234"/>
<path d="M0 10.6688V58.8714H0.371206C18.8078 58.8714 33.9035 43.1895 33.9035 23.9085V15.939C33.9035 15.939 27.4693 16.0675 20.2926 15.939C11.3837 15.939 1.23735 14.9107 0 10.6688Z" fill="#E4E4E3"/>
<path d="M0.989907 9.12636C2.22726 11.0545 5.93932 13.3682 15.5907 13.6253C15.5907 11.183 15.5907 6.04139 15.5907 0.385621V0H15.2195C7.17668 0 1.85605 1.9281 0.494965 5.27015C0.247494 5.78431 2.35736e-05 7.45534 0.989907 9.12636Z" fill="#E4E4E3"/>
<path d="M28.9541 16.0675V23.78C28.9541 41.5185 16.3331 56.3007 0 58.8715V59H0.371206C18.8078 59 33.9035 43.3181 33.9035 24.037V16.0675C33.9035 16.0675 31.9237 16.0675 28.9541 16.0675Z" fill="#F15C42"/>
</svg>
