<svg width="60" height="60" viewBox="0 0 60 60" fill="none" xmlns="http://www.w3.org/2000/svg">
<g clip-path="url(#clip0)">
<path d="M1.94531 9.44527C2.07422 9.82027 2.4375 10.0664 2.82422 10.0664H19.3594C19.7578 10.0664 20.1094 9.82027 20.2383 9.44527C20.3906 9.04684 20.4609 8.62496 20.4609 8.19137C20.4609 6.11715 18.7852 4.44137 16.7109 4.44137C16.4648 4.44137 16.2187 4.46481 15.9844 4.51168C14.4961 1.81637 11.0859 0.843712 8.39062 2.33199C7.46484 2.8359 6.71484 3.59762 6.19922 4.5234C5.95312 4.47652 5.71875 4.45309 5.47266 4.45309C3.39844 4.45309 1.72266 6.12887 1.72266 8.20309C1.72266 8.62496 1.79297 9.04684 1.94531 9.44527ZM6.28125 6.52731C6.75 6.74996 7.3125 6.56246 7.53516 6.09371C7.54687 6.05856 7.55859 6.03512 7.57031 5.99996C8.25 4.05465 10.3828 3.04684 12.3164 3.72652C13.3828 4.10152 14.2148 4.93356 14.5898 5.99996C14.7656 6.49215 15.3047 6.73824 15.7852 6.56246C15.8203 6.55074 15.8437 6.53902 15.8789 6.52731C16.8164 6.07027 17.9297 6.46871 18.3867 7.39449C18.5039 7.64059 18.5742 7.92184 18.5742 8.20309H3.57422C3.58594 7.17184 4.42969 6.32809 5.46094 6.33981C5.75391 6.33981 6.03516 6.3984 6.28125 6.52731Z" fill="#F15C39"/>
<path d="M45.2344 23.4374H58.3594C58.875 23.4374 59.2969 23.0156 59.2969 22.4999C59.2969 19.9101 57.1992 17.8124 54.6094 17.8124C54.1641 17.8124 53.7188 17.8828 53.2852 18.0117C50.8125 16.1484 47.2969 16.6406 45.4336 19.1132C44.6953 20.0859 44.2969 21.2812 44.2969 22.5117C44.2969 23.0156 44.7187 23.4374 45.2344 23.4374ZM49.9219 18.7499C50.8711 18.7499 51.7734 19.1132 52.4648 19.7578C52.7344 20.0156 53.1328 20.0742 53.4844 19.9335C54.9023 19.3007 56.5547 19.9335 57.1875 21.3515C57.2227 21.4218 57.2461 21.4921 57.2695 21.5624H46.2891C46.7227 19.9101 48.2109 18.7499 49.9219 18.7499Z" fill="#F15C39"/>
<path d="M59.8367 58.2422L38.907 22.1836V11.7188H52.9695C53.6141 11.7188 54.1414 11.1914 54.1414 10.5469V1.17188C54.1414 0.527344 53.6141 0 52.9695 0H37.7352C37.0906 0 36.5633 0.527344 36.5633 1.17188V11.5781L34.0555 15.082C33.6805 15.6094 33.7977 16.3359 34.325 16.7227C34.536 16.875 34.7703 16.9453 35.0047 16.9453C35.368 16.9453 35.7313 16.7812 35.9539 16.4531L36.5633 15.6094V22.1719L27.3055 36.9961L19.4656 30.9492C19.2078 30.75 18.8797 30.668 18.5516 30.7266C18.2235 30.7852 17.9422 30.9727 17.7664 31.2422L0.188295 58.1953C-0.0460798 58.5586 -0.0695173 59.0156 0.14142 59.3906C0.352358 59.7656 0.739076 60 1.17267 60H58.8289C59.2508 60 59.6375 59.7773 59.8485 59.4141C60.0594 59.0508 60.0477 58.6055 59.8367 58.2422ZM38.907 2.34375H51.7977V9.375H38.907V2.34375ZM3.34064 57.6562L19.0438 33.5742L26.0867 39.0117L22.3953 45.4688C22.243 45.7383 22.1961 46.0547 22.2781 46.3594C22.3602 46.6641 22.5594 46.9102 22.8289 47.0742C23.0047 47.1797 23.2039 47.2266 23.4149 47.2266C23.8367 47.2266 24.2235 47.0039 24.4344 46.6289L28.5828 39.3516C28.5945 39.3398 37.6531 24.832 37.6531 24.832C37.6766 24.832 37.7 24.832 37.7352 24.832L56.7899 57.6445H3.34064V57.6562Z" fill="#F15C39"/>
<path d="M21.6679 49.1133C21.4921 49.0078 21.2929 48.9609 21.0937 48.9609C20.6718 48.9609 20.2851 49.1836 20.0742 49.5469C19.7577 50.1094 19.9452 50.8242 20.5077 51.1523C20.6835 51.2578 20.8827 51.3047 21.082 51.3047C21.5038 51.3047 21.8906 51.082 22.1015 50.7188C22.2538 50.4492 22.3007 50.1328 22.2187 49.8281C22.1366 49.5117 21.9491 49.2656 21.6679 49.1133Z" fill="#F15C39"/>
<path d="M24.3633 30.0703C24.5859 30.3398 24.9258 30.5039 25.2773 30.5039C25.2891 30.5039 25.3008 30.5039 25.3125 30.5039C25.6758 30.4922 26.0156 30.3164 26.2266 30.0117L27.7617 27.8672C28.1367 27.3398 28.0195 26.6133 27.4922 26.2266C26.9648 25.8516 26.2383 25.9688 25.8516 26.4961L25.207 27.3984L23.4023 25.1836C22.9922 24.6797 22.2539 24.6094 21.75 25.0195C21.2461 25.4297 21.1758 26.168 21.5859 26.6719L24.3633 30.0703Z" fill="#F15C39"/>
<path d="M28.8515 24.3281C29.0625 24.4804 29.2968 24.5507 29.5312 24.5507C29.8945 24.5507 30.2578 24.3867 30.4804 24.0585L33.2109 20.2499C33.5859 19.7226 33.4687 18.996 32.9414 18.6093C32.414 18.2343 31.6875 18.3515 31.3007 18.8788L28.5703 22.6874C28.207 23.2265 28.3359 23.9531 28.8515 24.3281Z" fill="#F15C39"/>
<path d="M16.2305 25.1953C16.4297 25.3242 16.6524 25.3828 16.875 25.3828C17.2617 25.3828 17.6367 25.1953 17.8594 24.8555L18.8906 23.2735C19.3125 23.5547 19.875 23.543 20.2852 23.2031C20.7891 22.793 20.8594 22.0547 20.4492 21.5508L19.6641 20.5899C19.4297 20.2969 19.0664 20.1445 18.6914 20.1563C18.3164 20.1797 17.9766 20.3789 17.7774 20.6836L15.9024 23.5664C15.5391 24.1172 15.6914 24.8438 16.2305 25.1953Z" fill="#F15C39"/>
<path d="M11.1094 33.0469C11.3086 33.1758 11.5313 33.2344 11.7539 33.2344C12.1406 33.2344 12.5156 33.0469 12.7383 32.7071L15.3047 28.7813C15.6563 28.2422 15.5039 27.5157 14.9648 27.1641C14.4258 26.8126 13.6992 26.9649 13.3477 27.504L10.7813 31.4297C10.418 31.9688 10.5703 32.6954 11.1094 33.0469Z" fill="#F15C39"/>
<path d="M0.527396 49.2657C0.726615 49.3946 0.949271 49.4532 1.17193 49.4532C1.55865 49.4532 1.93365 49.2657 2.1563 48.9258L3.77349 46.4532C4.12505 45.9141 3.97271 45.1876 3.43365 44.836C2.89458 44.4844 2.16802 44.6368 1.81646 45.1758L0.187552 47.6368C-0.16401 48.1876 -0.0116663 48.9141 0.527396 49.2657Z" fill="#F15C39"/>
<path d="M4.71085 42.8672C4.91007 42.9962 5.13272 43.0547 5.35538 43.0547C5.7421 43.0547 6.1171 42.8672 6.33975 42.5274L8.90616 38.6016C9.25773 38.0626 9.10538 37.336 8.56632 36.9844C8.02726 36.6329 7.30069 36.7852 6.94913 37.3243L4.38272 41.2501C4.00772 41.7774 4.16007 42.504 4.71085 42.8672Z" fill="#F15C39"/>
</g>
<defs>
<clipPath id="clip0">
<rect width="60" height="60" fill="white"/>
</clipPath>
</defs>
</svg>
