<svg width="39" height="64" viewBox="0 0 39 64" fill="none" xmlns="http://www.w3.org/2000/svg">
<path d="M0.0432434 11.5739V63.8572H0.499C21.2875 63.8572 38.3168 46.8501 38.3168 25.944V17.3326C38.2769 17.3326 31.1012 17.4222 22.9608 17.3558C12.9142 17.2695 1.40386 16.1569 0.0432434 11.5739Z" fill="#C4C2C2"/>
<path d="M1.17433 9.90006C2.63475 12.0455 6.7665 14.4532 17.6914 14.782C17.6914 12.0753 17.6914 6.57568 17.6914 0.454984V0H17.2423C8.04728 0 2.04592 2.13212 0.505665 5.78859C0.303645 6.48039 0.258841 7.20849 0.37452 7.91977C0.4902 8.63106 0.763446 9.3076 1.17433 9.90006Z" fill="#C4C2C2"/>
<path d="M32.7579 17.4323V25.8312C32.7579 45.1332 18.4532 61.1572 0 63.9071V64.0001H0.455757C21.2842 64.0001 38.3435 46.9631 38.3435 26.0172V17.3824C38.3235 17.3924 36.1079 17.419 32.7579 17.4323Z" fill="#F05336"/>
</svg>
