<svg width="39" height="65" viewBox="0 0 39 65" fill="none" xmlns="http://www.w3.org/2000/svg">
<path d="M0.0338135 11.7384V64.8313H0.507219C21.6414 64.8313 38.9545 47.5609 38.9545 26.3103V17.6076C38.9207 17.6076 31.6167 17.7088 23.3321 17.6414C13.1201 17.5402 1.42021 16.3933 0.0338135 11.7384Z" fill="#C4C2C2"/>
<path d="M1.18351 10.0519C2.67135 12.2444 6.86437 14.6731 17.9556 15.0104C17.9556 12.2444 17.9556 6.67878 17.9556 0.472237V0H17.4822C8.18314 0 2.0965 2.1588 0.507216 5.86923C0.338143 6.44266 -0.0676335 8.23041 1.18351 10.0519Z" fill="#C4C2C2"/>
<path d="M33.3074 17.7089V26.2429C33.3074 45.8407 18.7671 62.1329 0 64.9326V65.0338H0.473405C21.6414 65.0338 38.9883 47.7297 38.9883 26.4453V17.6752C38.9545 17.6752 36.6889 17.6752 33.3074 17.7089Z" fill="url(#paint0_radial)"/>
<defs>
<radialGradient id="paint0_radial" cx="0" cy="0" r="1" gradientUnits="userSpaceOnUse" gradientTransform="translate(19.4881 41.3325) scale(21.7133 21.6597)">
<stop offset="0.3776" stop-color="#C55527"/>
<stop offset="1" stop-color="#E66A24"/>
</radialGradient>
</defs>
</svg>
