<svg width="39" height="65" viewBox="0 0 39 65" fill="none" xmlns="http://www.w3.org/2000/svg">
<path d="M0.033268 11.7384V64.8313H0.498996C21.2904 64.8313 38.3228 47.5609 38.3228 26.3103V17.6076C38.2895 17.6076 31.104 17.7088 22.9538 17.6414C12.9073 17.5402 1.39719 16.3933 0.033268 11.7384Z" fill="#C4C2C2"/>
<path d="M1.16432 10.0519C2.62804 12.2444 6.75306 14.6731 17.6644 15.0104C17.6644 12.2444 17.6644 6.67878 17.6644 0.472237V0H17.1987C8.05045 0 2.06251 2.1588 0.498995 5.86923C0.332663 6.44266 -0.0665324 8.23041 1.16432 10.0519Z" fill="#C4C2C2"/>
<path d="M32.7673 17.7089V26.2429C32.7673 45.8407 18.4628 62.1329 0 64.9326V65.0338H0.465728C21.2904 65.0338 38.3561 47.7297 38.3561 26.4453V17.6752C38.3228 17.6752 36.094 17.6752 32.7673 17.7089Z" fill="#295CAA"/>
</svg>
