<svg width="61" height="74" viewBox="0 0 61 74" fill="none" xmlns="http://www.w3.org/2000/svg">
<path d="M30.717 8.92883C31.5629 9.01485 32.2941 8.35537 32.2941 7.50952C32.2941 6.72101 31.6489 6.07587 30.8604 6.07587C30.0719 6.07587 29.4268 6.72101 29.4268 7.50952C29.4268 8.24068 29.9859 8.85715 30.717 8.92883Z" fill="#F15C42"/>
<path d="M58.0996 33.774C58.0996 50.8918 47.1752 65.7301 30.8603 70.8195C14.6744 65.7731 3.62096 50.8058 3.62096 33.774V11.7101C8.00793 11.0793 11.4917 7.59557 12.1225 3.20861H49.5981C50.2289 7.59557 53.7127 11.0793 58.0996 11.7101V33.774ZM59.5333 8.9432C55.5764 8.9432 52.365 5.73183 52.365 1.77496C52.365 0.986451 51.7199 0.341309 50.9314 0.341309H10.7892C10.0007 0.341309 9.35556 0.986451 9.35556 1.77496C9.35556 5.73183 6.14418 8.9432 2.18731 8.9432C1.3988 8.9432 0.753662 9.58835 0.753662 10.3769V33.774C0.753662 52.01 12.6386 68.3393 30.4445 73.6868C30.5736 73.7298 30.7169 73.7442 30.8603 73.7442C31.0037 73.7442 31.1327 73.7298 31.2761 73.6868C48.6949 68.454 60.9669 52.3971 60.9669 33.774V10.3769C60.9669 9.58835 60.3218 8.9432 59.5333 8.9432Z" fill="#F15C42"/>
<path d="M47.7057 6.93606C47.4763 6.41994 46.9602 6.07587 46.3867 6.07587H36.5949C35.8064 6.07587 35.1613 6.72101 35.1613 7.50952C35.1613 8.29802 35.8064 8.94317 36.5949 8.94317H45.4835C47.0032 11.9108 49.3974 14.305 52.3651 15.8247V33.774C52.3651 47.8094 43.9495 59.9094 30.8603 64.7551C17.7711 59.9094 9.35558 47.8094 9.35558 33.774V15.8247C12.3232 14.305 14.7174 11.9108 16.2371 8.94317H25.1257C25.9142 8.94317 26.5594 8.29802 26.5594 7.50952C26.5594 6.72101 25.9142 6.07587 25.1257 6.07587H15.3196C14.7461 6.07587 14.23 6.41994 14.0006 6.93606C12.7103 9.91805 10.3305 12.2979 7.34847 13.6025C6.83236 13.8319 6.48828 14.348 6.48828 14.9215V33.774C6.48828 49.1427 15.9934 62.5473 30.3872 67.6368C30.5449 67.6941 30.7026 67.7228 30.8603 67.7228C31.018 67.7228 31.1901 67.6941 31.3334 67.6368C45.7129 62.5473 55.2324 49.157 55.2324 33.774V14.9071C55.2324 14.3337 54.8883 13.8176 54.3722 13.5882C51.3902 12.2979 49.0103 9.91805 47.7057 6.93606Z" fill="#F15C42"/>
<path d="M40.8959 34.1754C40.8959 39.7093 36.3942 44.211 30.8604 44.211C25.3265 44.211 20.8248 39.7093 20.8248 34.1754C20.8248 28.6415 25.3265 24.1399 30.8604 24.1399C36.3942 24.1399 40.8959 28.6415 40.8959 34.1754ZM17.9575 34.1754C17.9575 41.2863 23.7495 47.0783 30.8604 47.0783C37.9713 47.0783 43.7632 41.2863 43.7632 34.1754C43.7632 27.0645 37.9713 21.2726 30.8604 21.2726C23.7495 21.2726 17.9575 27.0645 17.9575 34.1754Z" fill="#F15C42"/>
<path d="M27.5773 34.5913C27.0181 34.0321 26.1149 34.0321 25.5558 34.5913C24.9967 35.1504 24.9967 36.0536 25.5558 36.6127L28.4231 39.48C28.7098 39.7667 29.0683 39.8958 29.441 39.8958C29.8138 39.8958 30.1722 39.7524 30.4589 39.48L37.6271 32.3118C38.1863 31.7526 38.1863 30.8494 37.6271 30.2903C37.068 29.7312 36.1648 29.7312 35.6057 30.2903L29.4267 36.455L27.5773 34.5913Z" fill="#F15C42"/>
</svg>
