<svg width="28" height="28" viewBox="0 0 28 28" fill="none" xmlns="http://www.w3.org/2000/svg">
<circle cx="14" cy="14" r="13.5" stroke="black"/>
<path d="M7.24344 13.754L10.4192 14.9393L11.6484 18.8924C11.7271 19.1456 12.0367 19.2392 12.2422 19.0712L14.0124 17.628C14.198 17.4768 14.4623 17.4693 14.6562 17.6101L17.8491 19.9282C18.0689 20.088 18.3803 19.9675 18.4355 19.7019L20.7744 8.45112C20.8346 8.16096 20.5495 7.91889 20.2732 8.02575L7.23972 13.0537C6.91808 13.1777 6.92088 13.6331 7.24344 13.754ZM11.4503 14.3083L17.657 10.4856C17.7685 10.4171 17.8833 10.5679 17.7875 10.6568L12.6652 15.4182C12.4852 15.5858 12.369 15.8101 12.3361 16.0535L12.1616 17.3466C12.1385 17.5193 11.896 17.5364 11.8484 17.3693L11.1773 15.0113C11.1004 14.7424 11.2124 14.4551 11.4503 14.3083Z" fill="black"/>
</svg>
