<svg width="28" height="28" viewBox="0 0 28 28" fill="none" xmlns="http://www.w3.org/2000/svg">
<circle cx="14" cy="14" r="13.5" stroke="black"/>
<path d="M22.7905 12.5938C22.7844 12.2563 22.7576 11.8296 22.7109 11.3141C22.6639 10.7983 22.5967 10.3374 22.5093 9.93123C22.4093 9.47504 22.1921 9.09062 21.8578 8.77812C21.5235 8.46555 21.1343 8.28436 20.6905 8.23429C19.3029 8.07815 17.206 8 14.3999 8C11.5938 8 9.4969 8.07815 8.1094 8.23429C7.66559 8.28433 7.27802 8.46555 6.94687 8.77812C6.61558 9.09052 6.39995 9.47494 6.29993 9.93123C6.20628 10.3375 6.13588 10.7984 6.08902 11.3141C6.04223 11.8296 6.01563 12.2561 6.00942 12.5938C6.00309 12.9312 6 13.4 6 14C6 14.6 6.00309 15.0688 6.00946 15.4062C6.01566 15.7439 6.04226 16.1704 6.08905 16.6858C6.13591 17.2016 6.20313 17.6626 6.29063 18.0688C6.39065 18.5251 6.6078 18.9094 6.94217 19.2218C7.27661 19.5343 7.66575 19.7155 8.10944 19.7656C9.49693 19.9219 11.5937 20 14.4 20C17.2063 20 19.3029 19.9219 20.6905 19.7656C21.1344 19.7156 21.5218 19.5343 21.8531 19.2218C22.1844 18.9094 22.3999 18.5249 22.4999 18.0688C22.5936 17.6626 22.6639 17.2016 22.7109 16.6858C22.7576 16.1704 22.7842 15.7437 22.7905 15.4062C22.7968 15.0688 22.7999 14.6 22.7999 14C22.7999 13.4 22.7968 12.9312 22.7905 12.5938ZM17.7187 14.5063L12.9188 17.5062C12.8313 17.5686 12.7249 17.5999 12.6 17.5999C12.5063 17.5999 12.4094 17.5748 12.3094 17.5248C12.1032 17.4124 12.0001 17.2374 12.0001 16.9999V11.0001C12.0001 10.7627 12.1033 10.5877 12.3094 10.4752C12.522 10.3625 12.725 10.3688 12.9188 10.4939L17.7188 13.4939C17.9062 13.5999 17.9999 13.7688 17.9999 14C17.9999 14.2312 17.9061 14.4001 17.7187 14.5063Z" fill="black"/>
</svg>
