<svg width="17" height="12" viewBox="0 0 17 12" fill="none" xmlns="http://www.w3.org/2000/svg">
<path d="M16.7905 4.59376C16.7844 4.2563 16.7576 3.82962 16.7109 3.31413C16.6639 2.79834 16.5967 2.33738 16.5093 1.93123C16.4093 1.47504 16.1921 1.09062 15.8578 0.77812C15.5235 0.465552 15.1343 0.284362 14.6905 0.234287C13.3029 0.0781503 11.206 0 8.39992 0C5.59376 0 3.4969 0.0781503 2.1094 0.234287C1.66559 0.284329 1.27802 0.465552 0.946868 0.77812C0.615582 1.09052 0.399946 1.47494 0.299927 1.93123C0.206278 2.33751 0.135877 2.79843 0.0890192 3.31413C0.0422275 3.82962 0.0156301 4.25613 0.00942402 4.59376C0.00308661 4.93125 0 5.39995 0 6C0 6.59998 0.00308661 7.06882 0.00945685 7.40624C0.0156629 7.74393 0.0422603 8.17038 0.089052 8.68584C0.135909 9.2016 0.203125 9.66255 0.290634 10.0688C0.390653 10.5251 0.6078 10.9094 0.942172 11.2218C1.27661 11.5343 1.66575 11.7155 2.10944 11.7656C3.49693 11.9219 5.59366 12 8.39995 12C11.2063 12 13.3029 11.9219 14.6905 11.7656C15.1344 11.7156 15.5218 11.5343 15.8531 11.2218C16.1844 10.9094 16.3999 10.5249 16.4999 10.0688C16.5936 9.66255 16.6639 9.2016 16.7109 8.68584C16.7576 8.17041 16.7842 7.74374 16.7905 7.40624C16.7968 7.06882 16.7999 6.59998 16.7999 6C16.7999 5.39995 16.7968 4.93125 16.7905 4.59376ZM11.7187 6.50627L6.91881 9.50615C6.83126 9.56864 6.72491 9.59987 6.59997 9.59987C6.50628 9.59987 6.40942 9.57478 6.30943 9.52481C6.10322 9.41244 6.00014 9.23736 6.00014 8.99992V3.00011C6.00014 2.76274 6.10325 2.58766 6.30943 2.4752C6.52198 2.36253 6.72504 2.36884 6.91881 2.49394L11.7188 5.49386C11.9062 5.59992 11.9999 5.76877 11.9999 6.00003C11.9999 6.2312 11.9061 6.40011 11.7187 6.50627Z" fill="black"/>
</svg>
